<svg width="281" height="136" viewBox="0 0 281 136" fill="none" xmlns="http://www.w3.org/2000/svg">
    <g filter="url(#filter0_dd_2_13028)">
        <rect x="0.5" y="5" width="221.118" height="82.1839" rx="7.07579" fill="white" shape-rendering="crispEdges"/>
        <rect x="0.75" y="5.25" width="220.618" height="81.6839" rx="6.82579" stroke="#E3E8F4" stroke-width="0.5"
              shape-rendering="crispEdges"/>
        <rect width="202.559" height="22.0758" transform="translate(9.34473 16.498)" fill="white"/>
        <rect x="11.556" y="19.1336" width="13.2671" height="13.2671" rx="3.09566" stroke="#468EFF"
              stroke-width="0.884473"/>
        <path d="M36.7394 20.5164C36.7394 23.4186 34.8409 25.4017 31.5518 26.2482L30.9592 25.0511C33.4382 24.4162 34.8409 23.1949 35.0827 21.7135H31.6001V20.5164H36.7394ZM32.7731 30.7466V26.478H40.1132V30.7466H32.7731ZM34.3088 29.5373H38.6016V27.6872H34.3088V29.5373ZM38.5653 26.0305V19.8876H40.1132V26.0305H38.5653ZM47.3173 20.7341C47.3113 22.034 48.6415 23.4669 51.1627 23.7813L50.5581 25.0269C48.6354 24.7487 47.2267 23.8599 46.5072 22.6688C45.7816 23.8539 44.3789 24.7487 42.4804 25.0269L41.8637 23.7813C44.3668 23.4669 45.6909 22.034 45.697 20.7341V20.202H47.3173V20.7341ZM41.4767 27.1189V25.8612H51.5134V27.1189H47.2327V30.8796H45.7091V27.1189H41.4767ZM61.3295 19.8876V27.929H59.7938V25.3171H57.2786C56.7465 25.8794 55.9847 26.224 55.1261 26.224C53.4574 26.224 52.1877 25.0148 52.1998 23.3823C52.1877 21.7256 53.4574 20.5224 55.1261 20.5164C55.9787 20.5224 56.7405 20.861 57.2725 21.4233H59.7938V19.8876H61.3295ZM53.663 23.3823C53.6569 24.3013 54.2676 24.8576 55.1261 24.8576C55.9363 24.8576 56.5591 24.3013 56.5651 23.3823C56.5591 22.4512 55.9363 21.8949 55.1261 21.8949C54.2676 21.8949 53.6569 22.4512 53.663 23.3823ZM54.0257 30.6861V27.1189H55.5736V29.4527H61.5956V30.6861H54.0257ZM57.9376 22.6568C57.9981 22.8865 58.0283 23.1284 58.0283 23.3823C58.0283 23.6241 57.9981 23.8599 57.9437 24.0837H59.7938V22.6568H57.9376Z"
              fill="#2B3C56"/>
        <g style="mix-blend-mode:multiply">
            <rect x="66.1099" y="16.498" width="33.6137" height="18.5379" rx="3.53789" fill="#F1F4FA"/>
            <path d="M74.51 23.2315C74.5014 24.6048 75.296 26.0041 76.4535 26.5655L75.9438 27.222C75.1017 26.7858 74.4496 25.9177 74.1127 24.8812C73.7629 25.9868 73.0849 26.911 72.2038 27.3688L71.6942 26.7037C72.8862 26.1336 73.6895 24.648 73.6895 23.2315V21.9099H74.51V23.2315ZM77.8527 21.2621V24.3457H79.0965V25.0453H77.8527V29.0013H77.0322V21.2621H77.8527ZM85.4602 21.2708V23.1969H86.5917V23.8879H85.4602V25.8745H84.6397V21.2708H85.4602ZM85.4602 26.2373V28.9063H80.5023V26.2373H85.4602ZM81.3056 26.8765V28.2412H84.6656V26.8765H81.3056ZM83.2145 21.6767V23.862H80.5196V24.8294C81.8627 24.8251 82.8129 24.7862 83.94 24.5962L84.0264 25.2526C82.8258 25.4686 81.8066 25.5117 80.321 25.5117H79.6991V23.2401H82.4112V22.3332H79.6904V21.6767H83.2145ZM93.3528 21.2708V26.8937H92.5322V21.2708H93.3528ZM93.586 28.1721V28.8372H88.2912V26.3237H89.1204V28.1721H93.586ZM89.155 21.789C90.321 21.789 91.2107 22.5837 91.2107 23.7065C91.2107 24.8467 90.321 25.6327 89.155 25.6327C87.9889 25.6327 87.0906 24.8467 87.0906 23.7065C87.0906 22.5837 87.9889 21.789 89.155 21.789ZM89.155 22.5059C88.4294 22.5059 87.8939 22.9983 87.8939 23.7065C87.8939 24.4321 88.4294 24.9158 89.155 24.9158C89.8632 24.9158 90.4074 24.4321 90.4074 23.7065C90.4074 22.9983 89.8632 22.5059 89.155 22.5059Z"
                  fill="#7E94BD"/>
        </g>
        <rect x="151.023" y="16.498" width="60.8808" height="22.0758" rx="3.53789" fill="#EDF4FE"/>
        <g clip-path="url(#clip0_2_13028)">
            <path d="M164.585 21.805H166.944C167.269 21.805 167.533 22.069 167.533 22.3947V31.8291C167.533 32.1547 167.269 32.4187 166.944 32.4187H156.33C156.004 32.4187 155.74 32.1547 155.74 31.8291V22.3947C155.74 22.069 156.004 21.805 156.33 21.805H158.688V21.2154C158.688 20.8897 158.952 20.6257 159.278 20.6257C159.604 20.6257 159.868 20.8897 159.868 21.2154V21.805H163.406V21.2154C163.406 20.8897 163.67 20.6257 163.995 20.6257C164.321 20.6257 164.585 20.8897 164.585 21.2154V21.805ZM156.92 25.3429V31.2394H166.354V25.3429H156.92ZM158.099 27.7015H161.047V30.0601H158.099V27.7015Z"
                  fill="#468EFF"/>
        </g>
        <path d="M176.8 23.3762V24.1225H178.686V22.5988H179.837V29.419H178.686V27.0558H176.8V27.8642H172.395V23.3762H176.8ZM173.545 26.9625H175.66V24.2883H173.545V26.9625ZM173.659 31.7718V28.7867H174.83V30.839H180.044V31.7718H173.659ZM176.8 26.1333H178.686V25.0657H176.8V26.1333ZM188.904 22.5885V27.6984H187.753V25.698H186.136V24.7444H187.753V22.5885H188.904ZM181.037 26.9521C182.519 26.4546 183.317 25.2419 183.327 24.0085H181.379V23.0653H186.437V24.0085H184.498C184.509 25.1331 185.265 26.2939 186.706 26.7759L186.126 27.6673C185.079 27.3097 184.338 26.5997 183.928 25.7187C183.519 26.6982 182.742 27.4859 181.627 27.8642L181.037 26.9521ZM182.726 31.8444V28.0923H183.877V29.0666H187.753V28.0923H188.904V31.8444H182.726ZM183.877 30.9115H187.753V29.9683H183.877V30.9115ZM198.209 22.5885V31.9584H197.1V22.5885H198.209ZM190.217 26.6412C190.217 24.5785 191.015 23.2985 192.239 23.3037C193.031 23.2985 193.648 23.8219 193.995 24.734H195.224V22.7543H196.312V31.5023H195.224V28.5483H193.995C193.653 29.4656 193.031 29.9942 192.239 29.989C191.015 29.9942 190.217 28.709 190.217 26.6412ZM191.275 26.6412C191.264 28.1078 191.622 28.8955 192.239 28.8904C192.86 28.8955 193.244 28.1078 193.244 26.6412C193.244 25.1797 192.86 24.3868 192.239 24.392C191.622 24.3868 191.264 25.1797 191.275 26.6412ZM194.229 25.6669C194.275 25.9674 194.301 26.2939 194.301 26.6412C194.301 26.9832 194.275 27.3045 194.234 27.6051H195.224V25.6669H194.229ZM207.037 22.5885V28.1544H205.887V25.8638H204.29V24.9206H205.887V22.5885H207.037ZM199.16 27.2216C200.668 26.7034 201.461 25.444 201.461 24.2054V24.1329H199.512V23.2H204.57V24.1329H202.632V24.195C202.632 25.3352 203.389 26.4857 204.84 26.9728L204.259 27.885C203.218 27.5325 202.482 26.8174 202.067 25.9363C201.658 26.9314 200.875 27.7398 199.761 28.1337L199.16 27.2216ZM200.683 30.1756C200.673 29.051 201.891 28.3928 203.865 28.3928C205.85 28.3928 207.063 29.051 207.068 30.1756C207.063 31.3002 205.85 31.9532 203.865 31.9584C201.891 31.9532 200.673 31.3002 200.683 30.1756ZM201.824 30.1756C201.818 30.756 202.565 31.0722 203.865 31.067C205.177 31.0722 205.918 30.756 205.918 30.1756C205.918 29.59 205.177 29.2739 203.865 29.2739C202.565 29.2739 201.818 29.59 201.824 30.1756Z"
              fill="#468EFF"/>
        <rect x="9.34473" y="49.1875" width="203.429" height="0.884473" fill="#F1F4FA"/>
        <path d="M9.84224 70.2241V69.3016L13.159 64.1813H14.5686V69.2602H15.5948V70.2241H14.5686V71.6855H13.4907V70.2241H9.84224ZM11.0446 69.2602H13.4907V65.5391H13.4078L11.0446 69.198V69.2602ZM18.9505 63.5905C20.3498 63.6009 21.3811 64.456 21.3863 65.6739C21.3811 66.897 20.3498 67.7469 18.9505 67.7469C17.5357 67.7469 16.5096 66.897 16.5044 65.6739C16.5096 64.456 17.5357 63.6009 18.9505 63.5905ZM17.4683 65.6739C17.4632 66.4409 18.0954 66.9488 18.9505 66.9488C19.8004 66.9488 20.4327 66.4409 20.4327 65.6739C20.4327 64.9173 19.8004 64.4094 18.9505 64.4197C18.0954 64.4094 17.4632 64.9173 17.4683 65.6739ZM17.914 69.2187V68.431H24.019V70.7734H18.8987V71.6648H24.3299V72.4526H17.9451V70.0375H23.0447V69.2187H17.914ZM23.0343 68.006V63.2796H24.019V68.006H23.0343ZM35.6123 63.29V70.0893H34.6277V66.5964H32.8553V65.7983H34.6277V63.29H35.6123ZM27.8801 68.1511C29.3053 67.6691 30.1967 66.4461 30.1915 65.166V64.8032H28.1807V63.9948H33.1869V64.8032H31.1969V65.166C31.1917 66.3217 32.0313 67.4878 33.4357 67.9542L32.9278 68.7419C31.8861 68.3791 31.114 67.6329 30.7097 66.7104C30.3055 67.7365 29.4919 68.5553 28.388 68.9492L27.8801 68.1511ZM29.58 72.3696V69.4778H30.5646V71.5715H35.8611V72.3696H29.58ZM42.8421 66.0159C42.8369 67.5707 43.8578 69.1772 45.2882 69.7888L44.7492 70.5558C43.6557 70.0738 42.7851 69.0477 42.3549 67.8091C41.9248 69.1358 41.0541 70.2656 39.971 70.7942L39.4009 70.0168C40.8002 69.3586 41.8367 67.6173 41.847 66.0159V65.0313H39.7222V64.2124H44.9565V65.0313H42.8421V66.0159ZM46.1278 72.5666V63.2796H47.1124V72.5666H46.1278ZM56.2103 63.29V70.3277H55.2257V69.4364H53.36V68.7419H55.2257V63.29H56.2103ZM48.447 67.5292C50.1624 67.5137 52.479 67.4981 54.4587 67.2494L54.5209 67.9542C53.7279 68.0889 52.8936 68.1718 52.0747 68.2288V70.0375H51.0901V68.2807C50.1883 68.3169 49.3228 68.3169 48.5714 68.3169L48.447 67.5292ZM49.1726 65.28C49.1674 64.2954 50.1054 63.6424 51.4839 63.6424C52.8417 63.6424 53.7849 64.2954 53.7849 65.28C53.7849 66.2699 52.8417 66.897 51.4839 66.897C50.1106 66.897 49.1674 66.2699 49.1726 65.28ZM49.7323 72.3696V69.6437H50.7066V71.5715H56.4384V72.3696H49.7323ZM50.1054 65.28C50.1002 65.8294 50.6599 66.1714 51.4839 66.1714C52.2768 66.1714 52.8469 65.8294 52.8521 65.28C52.8469 64.7255 52.2768 64.3679 51.4839 64.3783C50.6599 64.3679 50.1002 64.7255 50.1054 65.28Z"
              fill="#CBD5EA"/>
    </g>
    <defs>
        <filter id="filter0_dd_2_13028" x="0.5" y="0.360344" width="280.494" height="135.252"
                filterUnits="userSpaceOnUse" color-interpolation-filters="sRGB">
            <feFlood flood-opacity="0" result="BackgroundImageFix"/>
            <feColorMatrix in="SourceAlpha" type="matrix" values="0 0 0 0 0 0 0 0 0 0 0 0 0 0 0 0 0 0 127 0"
                           result="hardAlpha"/>
            <feOffset dx="32.8418" dy="21.8945"/>
            <feGaussianBlur stdDeviation="13.2671"/>
            <feComposite in2="hardAlpha" operator="out"/>
            <feColorMatrix type="matrix" values="0 0 0 0 0.760784 0 0 0 0 0.803922 0 0 0 0 0.882353 0 0 0 0.3 0"/>
            <feBlend mode="normal" in2="BackgroundImageFix" result="effect1_dropShadow_2_13028"/>
            <feColorMatrix in="SourceAlpha" type="matrix" values="0 0 0 0 0 0 0 0 0 0 0 0 0 0 0 0 0 0 127 0"
                           result="hardAlpha"/>
            <feOffset dx="1.09473" dy="1.09473"/>
            <feComposite in2="hardAlpha" operator="out"/>
            <feColorMatrix type="matrix" values="0 0 0 0 0.832031 0 0 0 0 0.884765 0 0 0 0 0.9375 0 0 0 1 0"/>
            <feBlend mode="normal" in2="effect1_dropShadow_2_13028" result="effect2_dropShadow_2_13028"/>
            <feBlend mode="normal" in="SourceGraphic" in2="effect2_dropShadow_2_13028" result="shape"/>
        </filter>
        <clipPath id="clip0_2_13028">
            <rect width="14.1516" height="14.1516" fill="white" transform="translate(154.561 20.0359)"/>
        </clipPath>
    </defs>
</svg>
