<svg width="114" height="102" viewBox="0 0 114 102" fill="none" xmlns="http://www.w3.org/2000/svg">
<g filter="url(#filter0_ii_2_13521)">
<path d="M26.9591 47.8362C43.6264 31.43 70.3737 31.43 87.041 47.8362C91.1369 51.8679 88.2822 58.8376 82.5349 58.8376H31.4652C25.7179 58.8376 22.8632 51.8679 26.9591 47.8362Z" fill="#F0F7FF"/>
</g>
<g filter="url(#filter1_i_2_13521)">
<circle cx="56.7738" cy="18.2657" r="15.5111" fill="#F0F7FF"/>
<mask id="mask0_2_13521" style="mask-type:alpha" maskUnits="userSpaceOnUse" x="41" y="2" width="32" height="32">
<circle cx="56.7527" cy="18.2633" r="15.5111" fill="white"/>
</mask>
<g mask="url(#mask0_2_13521)">
<g filter="url(#filter2_f_2_13521)">
<path d="M60.9452 23.7017C54.1585 28.7376 40.6004 26.9994 40.6004 26.9994C40.6004 26.9994 60.9452 50.6412 76.3406 36.2761C86.5376 26.7615 66.353 1.61743 66.353 1.61743C66.353 1.61743 68.5711 18.0431 60.9452 23.7017Z" fill="#B8D6FF" fill-opacity="0.95"/>
</g>
</g>
</g>
<g opacity="0.9" filter="url(#filter3_f_2_13521)">
<path fill-rule="evenodd" clip-rule="evenodd" d="M54.0101 18.5181H44.9026L44.9026 22.5181H54.0101V18.5181ZM44.9026 16.5181C43.7981 16.5181 42.9026 17.4135 42.9026 18.5181V22.5181C42.9026 23.6226 43.7981 24.5181 44.9026 24.5181H54.0101C55.1146 24.5181 56.0101 23.6226 56.0101 22.5181V21.2549H57.9612V22.5181C57.9612 23.6226 58.8567 24.5181 59.9612 24.5181H69.0687C70.1732 24.5181 71.0687 23.6226 71.0687 22.5181V18.5181C71.0687 17.4135 70.1732 16.5181 69.0687 16.5181H59.9612C58.8567 16.5181 57.9612 17.4135 57.9612 18.5181V19.6841H56.0101V18.5181C56.0101 17.4135 55.1146 16.5181 54.0101 16.5181H44.9026ZM59.9612 18.5181H69.0687V22.5181H59.9612V18.5181Z" fill="url(#paint0_linear_2_13521)"/>
</g>
<path fill-rule="evenodd" clip-rule="evenodd" d="M54.0101 16.5181H44.9026L44.9026 20.5181H54.0101V16.5181ZM44.9026 14.5181C43.7981 14.5181 42.9026 15.4135 42.9026 16.5181V20.5181C42.9026 21.6226 43.7981 22.5181 44.9026 22.5181H54.0101C55.1146 22.5181 56.0101 21.6226 56.0101 20.5181V19.2549H57.9612V20.5181C57.9612 21.6226 58.8567 22.5181 59.9612 22.5181H69.0687C70.1732 22.5181 71.0687 21.6226 71.0687 20.5181V16.5181C71.0687 15.4135 70.1732 14.5181 69.0687 14.5181H59.9612C58.8567 14.5181 57.9612 15.4135 57.9612 16.5181V17.6841H56.0101V16.5181C56.0101 15.4135 55.1146 14.5181 54.0101 14.5181H44.9026ZM59.9612 16.5181H69.0687V20.5181H59.9612V16.5181Z" fill="#5D9DF3"/>
<path fill-rule="evenodd" clip-rule="evenodd" d="M54.0101 16.0137H44.9026L44.9026 20.0137H54.0101V16.0137ZM44.9026 14.0137C43.7981 14.0137 42.9026 14.9091 42.9026 16.0137V20.0137C42.9026 21.1182 43.7981 22.0137 44.9026 22.0137H54.0101C55.1146 22.0137 56.0101 21.1182 56.0101 20.0137V18.7505H57.9612V20.0137C57.9612 21.1182 58.8567 22.0137 59.9612 22.0137H69.0687C70.1732 22.0137 71.0687 21.1182 71.0687 20.0137V16.0137C71.0687 14.9091 70.1732 14.0137 69.0687 14.0137H59.9612C58.8567 14.0137 57.9612 14.9091 57.9612 16.0137V17.1797H56.0101V16.0137C56.0101 14.9091 55.1146 14.0137 54.0101 14.0137H44.9026ZM59.9612 16.0137H69.0687V20.0137H59.9612V16.0137Z" fill="url(#paint1_linear_2_13521)"/>
<mask id="mask1_2_13521" style="mask-type:alpha" maskUnits="userSpaceOnUse" x="42" y="14" width="30" height="9">
<path fill-rule="evenodd" clip-rule="evenodd" d="M54.0101 16.0137H44.9026L44.9026 20.0137H54.0101V16.0137ZM44.9026 14.0137C43.7981 14.0137 42.9026 14.9091 42.9026 16.0137V20.0137C42.9026 21.1182 43.7981 22.0137 44.9026 22.0137H54.0101C55.1146 22.0137 56.0101 21.1182 56.0101 20.0137V18.7505H57.9612V20.0137C57.9612 21.1182 58.8567 22.0137 59.9612 22.0137H69.0687C70.1732 22.0137 71.0687 21.1182 71.0687 20.0137V16.0137C71.0687 14.9091 70.1732 14.0137 69.0687 14.0137H59.9612C58.8567 14.0137 57.9612 14.9091 57.9612 16.0137V17.1797H56.0101V16.0137C56.0101 14.9091 55.1146 14.0137 54.0101 14.0137H44.9026ZM59.9612 16.0137H69.0687V20.0137H59.9612V16.0137Z" fill="url(#paint2_linear_2_13521)"/>
</mask>
<g mask="url(#mask1_2_13521)">
<g filter="url(#filter4_f_2_13521)">
<circle cx="46.5335" cy="10.5349" r="12.3125" fill="#F0F7FF"/>
</g>
</g>
<rect x="0.5" y="72.7961" width="113" height="29" rx="14.5" fill="url(#paint3_linear_2_13521)"/>
<path d="M18.643 81.6926V82.677H21.1313V80.6672H22.6489V89.6633H21.1313V86.5461H18.643V87.6125H12.8325V81.6926H18.643ZM14.35 82.8958V86.4231H17.1391V82.8958H14.35ZM22.9223 91.5364V92.7668H14.5004V88.8293H16.0454V91.5364H22.9223ZM18.643 85.3293H21.1313V83.9211H18.643V85.3293ZM34.6085 80.6536V87.3938H33.0909V84.7551H30.9581V83.4973H33.0909V80.6536H34.6085ZM27.9776 87.9133V89.1985H33.0909V87.9133H34.6085V92.8625H26.46V87.9133H27.9776ZM27.9776 91.6321H33.0909V90.3879H27.9776V91.6321ZM31.3546 81.2825V82.5266H28.7979C28.8116 84.01 29.8096 85.5413 31.71 86.177L30.9444 87.3528C29.5636 86.8743 28.586 85.9446 28.046 84.7825C27.4991 86.0745 26.4737 87.1135 25.0108 87.6125L24.2315 86.4094C26.1866 85.7463 27.2393 84.1467 27.253 82.5266H24.6827V81.2825H31.3546ZM43.1228 81.5696V82.3079C43.1091 83.1555 43.1091 84.3723 42.822 85.9446L41.3181 85.8079C41.5573 84.5295 41.6052 83.5862 41.6325 82.8274H36.82V81.5696H43.1228ZM40.0056 84.386V86.8469C41.2839 86.7991 42.5964 86.7034 43.7927 86.5325L43.8747 87.6262C41.3044 88.0911 38.3923 88.1321 36.2185 88.1458L36.0818 86.929C36.8132 86.9221 37.6335 86.9153 38.5017 86.9016V84.386H40.0056ZM46.0759 80.6536V84.509H47.6755V85.7805H46.0759V89.9094H44.5173V80.6536H46.0759ZM46.4724 91.5364V92.7668H37.9275V89.0891H39.4587V91.5364H46.4724ZM61.71 80.6672V87.886H60.1924V86.5188H57.2529V85.2883H60.1924V83.9622H57.376C56.5898 85.9309 54.792 87.3049 52.0986 88.05L51.4834 86.8469C54.375 86.0608 55.9131 84.5979 56.1592 82.759H52.1396V81.5286H57.8135C57.8135 81.9592 57.7793 82.3694 57.7041 82.759H60.1924V80.6672H61.71ZM57.6221 88.0227C60.124 88.0227 61.792 88.9661 61.792 90.4836C61.792 92.0012 60.124 92.9446 57.6221 92.9446C55.0928 92.9446 53.4248 92.0012 53.4248 90.4836C53.4248 88.9661 55.0928 88.0227 57.6221 88.0227ZM57.6221 89.2122C55.9541 89.2122 54.9424 89.6633 54.9424 90.4836C54.9424 91.2903 55.9541 91.7415 57.6221 91.7415C59.249 91.7415 60.2744 91.2903 60.2744 90.4836C60.2744 89.6633 59.249 89.2122 57.6221 89.2122ZM73.6696 80.6536V88.1321H72.152V85.5754H70.3883V84.3176H72.152V80.6536H73.6696ZM73.6696 88.6926V92.8625H65.4528V88.6926H73.6696ZM66.9704 89.8958V91.6321H72.1793V89.8958H66.9704ZM70.5934 81.802V83.0325H63.3473V81.802H66.2184V80.5579H67.7223V81.802H70.5934ZM66.9704 83.511C68.693 83.511 69.8961 84.427 69.9098 85.7258C69.8961 87.0657 68.693 87.9407 66.9704 87.9407C65.2614 87.9407 64.0446 87.0657 64.0446 85.7258C64.0446 84.427 65.2614 83.511 66.9704 83.511ZM66.9704 84.6594C66.0817 84.6594 65.4938 85.0696 65.4938 85.7258C65.4938 86.4094 66.0817 86.8059 66.9704 86.8059C67.859 86.8059 68.4469 86.4094 68.4469 85.7258C68.4469 85.0696 67.859 84.6594 66.9704 84.6594ZM89.1532 80.6125V93.054H87.4716V86.7239H86.3368V92.5071H84.7099V80.9407H86.3368V85.3293H87.4716V80.6125H89.1532ZM83.8349 82.1438C83.8212 85.6165 82.7822 88.4602 79.2822 90.4973L78.2704 89.2942C80.8066 87.804 81.8935 85.9788 82.1396 83.5383H78.8993V82.1438H83.8349ZM95.0425 82.7454C95.0425 84.3586 95.9039 85.9583 97.8863 86.6145L96.9429 87.9817C95.6236 87.4963 94.7144 86.5803 94.1949 85.425C93.6548 86.7239 92.6841 87.7493 91.2418 88.2688L90.2984 86.9016C92.3765 86.218 93.2789 84.509 93.2789 82.7317V81.3782H95.0425V82.7454ZM100.867 80.6262V89.8137H99.1304V84.6731H96.7925V83.2649H99.1304V80.6262H100.867ZM101.127 91.4407V92.8352H92.5816V88.843H94.3453V91.4407H101.127Z" fill="white"/>
<defs>
<filter id="filter0_ii_2_13521" x="10.6987" y="33.1432" width="79.4668" height="25.6945" filterUnits="userSpaceOnUse" color-interpolation-filters="sRGB">
<feFlood flood-opacity="0" result="BackgroundImageFix"/>
<feBlend mode="normal" in="SourceGraphic" in2="BackgroundImageFix" result="shape"/>
<feColorMatrix in="SourceAlpha" type="matrix" values="0 0 0 0 0 0 0 0 0 0 0 0 0 0 0 0 0 0 127 0" result="hardAlpha"/>
<feOffset dx="-23.8834" dy="-2.38834"/>
<feGaussianBlur stdDeviation="7.16502"/>
<feComposite in2="hardAlpha" operator="arithmetic" k2="-1" k3="1"/>
<feColorMatrix type="matrix" values="0 0 0 0 0.721569 0 0 0 0 0.839216 0 0 0 0 1 0 0 0 0.7 0"/>
<feBlend mode="normal" in2="shape" result="effect1_innerShadow_2_13521"/>
<feColorMatrix in="SourceAlpha" type="matrix" values="0 0 0 0 0 0 0 0 0 0 0 0 0 0 0 0 0 0 127 0" result="hardAlpha"/>
<feOffset dx="1.19417" dy="-0.597085"/>
<feGaussianBlur stdDeviation="1.19417"/>
<feComposite in2="hardAlpha" operator="arithmetic" k2="-1" k3="1"/>
<feColorMatrix type="matrix" values="0 0 0 0 0.756863 0 0 0 0 0.858824 0 0 0 0 1 0 0 0 1 0"/>
<feBlend mode="normal" in2="effect1_innerShadow_2_13521" result="effect2_innerShadow_2_13521"/>
</filter>
<filter id="filter1_i_2_13521" x="41.2416" y="2.7522" width="31.0436" height="31.2431" filterUnits="userSpaceOnUse" color-interpolation-filters="sRGB">
<feFlood flood-opacity="0" result="BackgroundImageFix"/>
<feBlend mode="normal" in="SourceGraphic" in2="BackgroundImageFix" result="shape"/>
<feColorMatrix in="SourceAlpha" type="matrix" values="0 0 0 0 0 0 0 0 0 0 0 0 0 0 0 0 0 0 127 0" result="hardAlpha"/>
<feOffset dy="0.218403"/>
<feGaussianBlur stdDeviation="2.18403"/>
<feComposite in2="hardAlpha" operator="arithmetic" k2="-1" k3="1"/>
<feColorMatrix type="matrix" values="0 0 0 0 0.756863 0 0 0 0 0.858824 0 0 0 0 1 0 0 0 1 0"/>
<feBlend mode="normal" in2="shape" result="effect1_innerShadow_2_13521"/>
</filter>
<filter id="filter2_f_2_13521" x="27.4962" y="-11.4868" width="64.8257" height="65.4979" filterUnits="userSpaceOnUse" color-interpolation-filters="sRGB">
<feFlood flood-opacity="0" result="BackgroundImageFix"/>
<feBlend mode="normal" in="SourceGraphic" in2="BackgroundImageFix" result="shape"/>
<feGaussianBlur stdDeviation="6.5521" result="effect1_foregroundBlur_2_13521"/>
</filter>
<filter id="filter3_f_2_13521" x="39.9026" y="13.5181" width="34.166" height="14" filterUnits="userSpaceOnUse" color-interpolation-filters="sRGB">
<feFlood flood-opacity="0" result="BackgroundImageFix"/>
<feBlend mode="normal" in="SourceGraphic" in2="BackgroundImageFix" result="shape"/>
<feGaussianBlur stdDeviation="1.5" result="effect1_foregroundBlur_2_13521"/>
</filter>
<filter id="filter4_f_2_13521" x="19.221" y="-16.7776" width="54.625" height="54.625" filterUnits="userSpaceOnUse" color-interpolation-filters="sRGB">
<feFlood flood-opacity="0" result="BackgroundImageFix"/>
<feBlend mode="normal" in="SourceGraphic" in2="BackgroundImageFix" result="shape"/>
<feGaussianBlur stdDeviation="7.5" result="effect1_foregroundBlur_2_13521"/>
</filter>
<linearGradient id="paint0_linear_2_13521" x1="61.7497" y1="24.5181" x2="59.6252" y2="13.3398" gradientUnits="userSpaceOnUse">
<stop offset="0.306345" stop-color="#85B9FF"/>
<stop offset="1" stop-color="#86BAFF" stop-opacity="0.4"/>
</linearGradient>
<linearGradient id="paint1_linear_2_13521" x1="71.4895" y1="21.5781" x2="65.6684" y2="5.30534" gradientUnits="userSpaceOnUse">
<stop offset="0.306345" stop-color="#85B9FF"/>
<stop offset="1" stop-color="#86BAFF" stop-opacity="0.6"/>
</linearGradient>
<linearGradient id="paint2_linear_2_13521" x1="71.4895" y1="21.5781" x2="65.6684" y2="5.30534" gradientUnits="userSpaceOnUse">
<stop offset="0.306345" stop-color="#85B9FF"/>
<stop offset="1" stop-color="#86BAFF" stop-opacity="0.6"/>
</linearGradient>
<linearGradient id="paint3_linear_2_13521" x1="127.248" y1="101.796" x2="16.1584" y2="102.966" gradientUnits="userSpaceOnUse">
<stop offset="0.0216347" stop-color="#0086FF"/>
<stop offset="1" stop-color="#7EB0FF"/>
</linearGradient>
</defs>
</svg>
