<svg width="129" height="102" viewBox="0 0 129 102" fill="none" xmlns="http://www.w3.org/2000/svg">
<g clip-path="url(#clip0_7664_108598)">
<rect x="0.0402695" y="0.0211823" width="29.6611" height="39.3932" rx="1.57653" transform="matrix(0.954993 -0.296629 0.296621 0.954995 31.5971 23.7451)" fill="url(#paint0_linear_7664_108598)" stroke="#D8E9FF" stroke-width="0.0643481"/>
<rect x="-0.0617765" y="-0.0743564" width="40.2795" height="53.4225" rx="1.67706" transform="matrix(0.995757 0.092019 -0.0920156 0.995758 56.9363 0.801512)" fill="url(#paint1_linear_7664_108598)" stroke="#CFE4FF" stroke-width="0.136713"/>
<g filter="url(#filter0_d_7664_108598)">
<g filter="url(#filter1_d_7664_108598)">
<rect width="30.9168" height="3.25446" rx="1.62723" transform="matrix(0.995757 0.092019 -0.0920156 0.995758 60.8984 10.3008)" fill="white"/>
</g>
<mask id="mask0_7664_108598" style="mask-type:alpha" maskUnits="userSpaceOnUse" x="60" y="10" width="32" height="7">
<rect width="30.9168" height="3.25446" rx="1.62723" transform="matrix(0.995757 0.092019 -0.0920156 0.995758 60.9004 10.3015)" fill="white"/>
</mask>
<g mask="url(#mask0_7664_108598)">
<g filter="url(#filter2_f_7664_108598)">
<rect width="32.1225" height="1.95997" transform="matrix(0.996195 0.0871573 -0.0871542 0.996195 60.377 12.3765)" fill="#E3EFFF"/>
</g>
</g>
<g filter="url(#filter3_d_7664_108598)">
<rect width="30.9168" height="3.25446" rx="1.62723" transform="matrix(0.995757 0.092019 -0.0920156 0.995758 60.3008 16.8145)" fill="white"/>
</g>
<mask id="mask1_7664_108598" style="mask-type:alpha" maskUnits="userSpaceOnUse" x="60" y="16" width="31" height="7">
<rect width="30.9168" height="3.25446" rx="1.62723" transform="matrix(0.995757 0.092019 -0.0920156 0.995758 60.2988 16.8142)" fill="white"/>
</mask>
<g mask="url(#mask1_7664_108598)">
<g filter="url(#filter4_f_7664_108598)">
<rect width="32.1225" height="1.95997" transform="matrix(0.996195 0.0871573 -0.0871542 0.996195 59.7754 18.8892)" fill="#E3EFFF" fill-opacity="0.9"/>
</g>
</g>
<g filter="url(#filter5_d_7664_108598)">
<rect width="30.9168" height="3.25446" rx="1.62723" transform="matrix(0.995757 0.0920189 -0.0920157 0.995758 59.6934 23.3281)" fill="white"/>
</g>
<mask id="mask2_7664_108598" style="mask-type:alpha" maskUnits="userSpaceOnUse" x="59" y="23" width="32" height="7">
<rect width="30.9168" height="3.25446" rx="1.62723" transform="matrix(0.995757 0.092019 -0.0920156 0.995758 59.7168 23.3286)" fill="white"/>
</mask>
<g mask="url(#mask2_7664_108598)">
<g filter="url(#filter6_f_7664_108598)">
<rect width="32.1225" height="1.95997" transform="matrix(0.996195 0.0871573 -0.0871542 0.996195 59.1934 25.4036)" fill="#E3EFFF" fill-opacity="0.9"/>
</g>
</g>
<g filter="url(#filter7_d_7664_108598)">
<rect width="16.272" height="3.25446" rx="1.62723" transform="matrix(0.995757 0.0920189 -0.0920157 0.995758 59.0938 29.8418)" fill="white"/>
</g>
<mask id="mask3_7664_108598" style="mask-type:alpha" maskUnits="userSpaceOnUse" x="58" y="29" width="18" height="6">
<rect width="16.3498" height="3.25446" rx="1.62723" transform="matrix(0.995757 0.092019 -0.0920156 0.995758 59.0879 29.842)" fill="white"/>
</mask>
<g mask="url(#mask3_7664_108598)">
<g filter="url(#filter8_f_7664_108598)">
<rect width="32.1225" height="1.95997" transform="matrix(0.996195 0.0871573 -0.0871542 0.996195 58.5645 31.9167)" fill="#E3EFFF" fill-opacity="0.9"/>
</g>
</g>
</g>
<mask id="mask4_7664_108598" style="mask-type:alpha" maskUnits="userSpaceOnUse" x="52" y="0" width="45" height="58">
<mask id="path-15-inside-1_7664_108598" fill="white">
<rect width="40.1428" height="53.2858" rx="1.6087" transform="matrix(0.995757 0.092019 -0.0920156 0.995758 56.9492 0.797119)"/>
</mask>
<rect width="40.1428" height="53.2858" rx="1.6087" transform="matrix(0.995757 0.092019 -0.0920156 0.995758 56.9492 0.797119)" fill="url(#paint2_linear_7664_108598)" stroke="#DAE7FF" stroke-width="3.31061" mask="url(#path-15-inside-1_7664_108598)"/>
<rect width="29.8682" height="0.716849" rx="0.358424" transform="matrix(0.995757 0.092019 -0.0920156 0.995758 61.5195 8.41797)" fill="white"/>
<rect width="29.8682" height="0.716849" rx="0.358424" transform="matrix(0.995757 0.092019 -0.0920156 0.995758 61.0137 13.8906)" fill="white"/>
<rect width="29.8682" height="0.716849" rx="0.358424" transform="matrix(0.995757 0.0920189 -0.0920157 0.995758 60.5117 19.3633)" fill="white"/>
<rect width="29.8682" height="0.716849" rx="0.358424" transform="matrix(0.995757 0.0920189 -0.0920157 0.995758 60.0039 24.8354)" fill="white"/>
<rect width="19.1156" height="0.716848" rx="0.358424" transform="matrix(0.995757 0.0920189 -0.0920157 0.995758 57.9805 46.7261)" fill="white"/>
</mask>
<g mask="url(#mask4_7664_108598)">
<g opacity="0.5" filter="url(#filter9_f_7664_108598)">
<ellipse cx="55.6656" cy="21.0945" rx="14.0347" ry="14.0347" fill="url(#paint3_linear_7664_108598)"/>
</g>
</g>
<ellipse cx="49.4664" cy="18.1797" rx="14.0347" ry="14.0347" fill="#5D9DF3"/>
<ellipse cx="48.8121" cy="17.3523" rx="14.0347" ry="14.0347" fill="url(#paint4_linear_7664_108598)"/>
<mask id="mask5_7664_108598" style="mask-type:alpha" maskUnits="userSpaceOnUse" x="34" y="3" width="29" height="29">
<ellipse cx="48.816" cy="17.3521" rx="14.0347" ry="14.0347" fill="url(#paint5_linear_7664_108598)"/>
<g clip-path="url(#clip1_7664_108598)">
<path d="M46.5233 22.5599L42.6094 18.646C42.2491 18.2857 42.2491 17.7016 42.6094 17.3413C42.9696 16.9811 43.5534 16.981 43.9138 17.3409L46.5246 19.9488L46.5233 19.9502L53.6982 12.7753C54.0584 12.415 54.6424 12.415 55.0026 12.7753C55.3628 13.1354 55.3628 13.7194 55.0027 14.0796L47.8276 21.2555L46.5242 22.559L46.5233 22.5599Z" fill="white"/>
</g>
</mask>
<g mask="url(#mask5_7664_108598)">
<g filter="url(#filter10_f_7664_108598)">
<ellipse cx="39.7183" cy="8.02301" rx="12.3297" ry="12.3299" fill="white"/>
</g>
</g>
<g clip-path="url(#clip2_7664_108598)">
<g filter="url(#filter11_d_7664_108598)">
<path d="M46.5194 22.5604L42.6055 18.6465C42.2452 18.2862 42.2452 17.7021 42.6055 17.3418C42.9656 16.9816 43.5495 16.9815 43.9099 17.3414L46.5207 19.9493L46.5194 19.9507L53.6943 12.7757C54.0545 12.4155 54.6385 12.4155 54.9987 12.7757C55.3589 13.1359 55.3589 13.7199 54.9988 14.0801L47.8237 21.256L46.5203 22.5594L46.5194 22.5604Z" fill="white"/>
<path d="M46.4024 22.6773L46.5193 22.7942L46.6363 22.6773L46.6372 22.6764L46.6372 22.6764L47.9407 21.3729L47.9407 21.3729L55.1157 14.197C55.5405 13.7723 55.5404 13.0836 55.1157 12.6588C54.6909 12.234 54.0022 12.234 53.5774 12.6588L46.5207 19.7155L44.0267 17.2244C43.6018 16.7999 42.9133 16.8001 42.4886 17.2248C42.0637 17.6497 42.0637 18.3386 42.4886 18.7634L46.4024 22.6773Z" stroke="white" stroke-width="0.330751"/>
</g>
</g>
</g>
<rect x="0.5" y="72.7961" width="128" height="29" rx="14.5" fill="url(#paint6_linear_7664_108598)"/>
<path d="M15.66 81.2004C17.2596 81.1936 18.5174 82.1165 18.825 83.47H21.0604V80.6536H22.5779V87.2844H21.0604V84.7004H18.8387C18.5447 86.0881 17.2732 87.0247 15.66 87.0247C13.7664 87.0247 12.3924 85.8079 12.3924 84.0989C12.3924 82.4104 13.7664 81.1936 15.66 81.2004ZM13.8416 84.0989C13.8416 85.0901 14.5936 85.7463 15.66 85.7395C16.699 85.7463 17.4441 85.0901 17.451 84.0989C17.4441 83.1077 16.699 82.4651 15.66 82.4719C14.5936 82.4651 13.8416 83.1077 13.8416 84.0989ZM14.4295 92.8625V87.8586H15.9334V89.1711H21.0604V87.8586H22.5779V92.8625H14.4295ZM15.9334 91.6321H21.0604V90.3469H15.9334V91.6321ZM35.4672 87.6536V88.884H30.5454V92.9993H29.0414V88.884H24.1743V87.6536H35.4672ZM25.5551 86.2043V81.2825H34.0864V86.2043H25.5551ZM27.0454 85.0149H32.5688V82.4993H27.0454V85.0149ZM49.3923 84.6184V85.8489H40.7517V81.2415H42.2693V84.6184H49.3923ZM39.3298 88.6516V87.4075H50.6228V88.6516H45.6872V93.0129H44.156V88.6516H39.3298ZM57.4007 81.3645V85.0286H53.2855V86.4094C55.3773 86.3958 56.8265 86.3274 58.5082 86.0403L58.6722 87.2571C56.8334 87.5784 55.2201 87.6604 52.7796 87.6536H51.7679V83.8528H55.9105V82.595H51.7543V81.3645H57.4007ZM52.807 89.9778V88.761H61.0375V92.9993H59.5199V89.9778H52.807ZM59.5199 88.1731V80.6672H61.0375V83.6887H62.7738V84.9465H61.0375V88.1731H59.5199ZM68.5641 81.5422V83.4153H71.5036V81.5422H73.0211V87.7356H67.0602V81.5422H68.5641ZM68.4957 92.7668V88.8293H70.027V91.5364H77.0133V92.7668H68.4957ZM68.5641 86.5325H71.5036V84.5911H68.5641V86.5325ZM75.195 89.759V80.6672H76.7262V89.759H75.195ZM88.4261 86.2727V87.4758H84.762V90.3059H89.6839V91.55H78.3909V90.3059H83.2581V87.4758H79.7581V81.5696H88.3304V82.7864H81.2757V86.2727H88.4261ZM104.224 80.6125V93.054H102.543V86.7239H101.408V92.5071H99.7808V80.9407H101.408V85.3293H102.543V80.6125H104.224ZM93.3414 89.2942C95.8775 87.804 96.9713 85.9788 97.2037 83.5383H93.9703V82.1438H98.9058C98.899 85.6165 97.8599 88.4602 94.3531 90.4973L93.3414 89.2942ZM110.113 82.7454C110.113 84.3518 110.975 85.9514 112.957 86.6145L112.014 87.9817C110.695 87.4963 109.785 86.5803 109.259 85.425C108.726 86.7307 107.755 87.7493 106.313 88.2688L105.369 86.9016C107.447 86.218 108.343 84.5159 108.35 82.7317V81.3782H110.113V82.7454ZM107.653 92.8352V88.843H109.416V91.4407H116.197V92.8352H107.653ZM111.863 84.6731V83.2649H114.201V80.6262H115.938V89.8137H114.201V84.6731H111.863Z" fill="white"/>
<defs>
<filter id="filter0_d_7664_108598" x="58.2882" y="10.1219" width="33.8983" height="25.2879" filterUnits="userSpaceOnUse" color-interpolation-filters="sRGB">
<feFlood flood-opacity="0" result="BackgroundImageFix"/>
<feColorMatrix in="SourceAlpha" type="matrix" values="0 0 0 0 0 0 0 0 0 0 0 0 0 0 0 0 0 0 127 0" result="hardAlpha"/>
<feOffset dy="0.321741"/>
<feGaussianBlur stdDeviation="0.321741"/>
<feComposite in2="hardAlpha" operator="out"/>
<feColorMatrix type="matrix" values="0 0 0 0 0.792157 0 0 0 0 0.858824 0 0 0 0 0.964706 0 0 0 0.6 0"/>
<feBlend mode="normal" in2="BackgroundImageFix" result="effect1_dropShadow_7664_108598"/>
<feBlend mode="normal" in="SourceGraphic" in2="effect1_dropShadow_7664_108598" result="shape"/>
</filter>
<filter id="filter1_d_7664_108598" x="59.777" y="10.4436" width="32.7293" height="8.1324" filterUnits="userSpaceOnUse" color-interpolation-filters="sRGB">
<feFlood flood-opacity="0" result="BackgroundImageFix"/>
<feColorMatrix in="SourceAlpha" type="matrix" values="0 0 0 0 0 0 0 0 0 0 0 0 0 0 0 0 0 0 127 0" result="hardAlpha"/>
<feOffset dy="1.36713"/>
<feGaussianBlur stdDeviation="0.482611"/>
<feComposite in2="hardAlpha" operator="out"/>
<feColorMatrix type="matrix" values="0 0 0 0 0.788235 0 0 0 0 0.878431 0 0 0 0 1 0 0 0 0.6 0"/>
<feBlend mode="multiply" in2="BackgroundImageFix" result="effect1_dropShadow_7664_108598"/>
<feBlend mode="normal" in="SourceGraphic" in2="effect1_dropShadow_7664_108598" result="shape"/>
</filter>
<filter id="filter2_f_7664_108598" x="58.8399" y="11.0093" width="34.9042" height="7.48645" filterUnits="userSpaceOnUse" color-interpolation-filters="sRGB">
<feFlood flood-opacity="0" result="BackgroundImageFix"/>
<feBlend mode="normal" in="SourceGraphic" in2="BackgroundImageFix" result="shape"/>
<feGaussianBlur stdDeviation="0.683563" result="effect1_foregroundBlur_7664_108598"/>
</filter>
<filter id="filter3_d_7664_108598" x="59.1793" y="16.9573" width="32.7293" height="8.1324" filterUnits="userSpaceOnUse" color-interpolation-filters="sRGB">
<feFlood flood-opacity="0" result="BackgroundImageFix"/>
<feColorMatrix in="SourceAlpha" type="matrix" values="0 0 0 0 0 0 0 0 0 0 0 0 0 0 0 0 0 0 127 0" result="hardAlpha"/>
<feOffset dy="1.36713"/>
<feGaussianBlur stdDeviation="0.482611"/>
<feComposite in2="hardAlpha" operator="out"/>
<feColorMatrix type="matrix" values="0 0 0 0 0.788235 0 0 0 0 0.878431 0 0 0 0 1 0 0 0 0.6 0"/>
<feBlend mode="multiply" in2="BackgroundImageFix" result="effect1_dropShadow_7664_108598"/>
<feBlend mode="normal" in="SourceGraphic" in2="effect1_dropShadow_7664_108598" result="shape"/>
</filter>
<filter id="filter4_f_7664_108598" x="58.2383" y="17.522" width="34.9042" height="7.48645" filterUnits="userSpaceOnUse" color-interpolation-filters="sRGB">
<feFlood flood-opacity="0" result="BackgroundImageFix"/>
<feBlend mode="normal" in="SourceGraphic" in2="BackgroundImageFix" result="shape"/>
<feGaussianBlur stdDeviation="0.683563" result="effect1_foregroundBlur_7664_108598"/>
</filter>
<filter id="filter5_d_7664_108598" x="58.5719" y="23.4709" width="32.7293" height="8.1324" filterUnits="userSpaceOnUse" color-interpolation-filters="sRGB">
<feFlood flood-opacity="0" result="BackgroundImageFix"/>
<feColorMatrix in="SourceAlpha" type="matrix" values="0 0 0 0 0 0 0 0 0 0 0 0 0 0 0 0 0 0 127 0" result="hardAlpha"/>
<feOffset dy="1.36713"/>
<feGaussianBlur stdDeviation="0.482611"/>
<feComposite in2="hardAlpha" operator="out"/>
<feColorMatrix type="matrix" values="0 0 0 0 0.788235 0 0 0 0 0.878431 0 0 0 0 1 0 0 0 0.6 0"/>
<feBlend mode="multiply" in2="BackgroundImageFix" result="effect1_dropShadow_7664_108598"/>
<feBlend mode="normal" in="SourceGraphic" in2="effect1_dropShadow_7664_108598" result="shape"/>
</filter>
<filter id="filter6_f_7664_108598" x="57.6563" y="24.0364" width="34.9042" height="7.48645" filterUnits="userSpaceOnUse" color-interpolation-filters="sRGB">
<feFlood flood-opacity="0" result="BackgroundImageFix"/>
<feBlend mode="normal" in="SourceGraphic" in2="BackgroundImageFix" result="shape"/>
<feGaussianBlur stdDeviation="0.683563" result="effect1_foregroundBlur_7664_108598"/>
</filter>
<filter id="filter7_d_7664_108598" x="57.9723" y="29.9846" width="18.1472" height="6.78474" filterUnits="userSpaceOnUse" color-interpolation-filters="sRGB">
<feFlood flood-opacity="0" result="BackgroundImageFix"/>
<feColorMatrix in="SourceAlpha" type="matrix" values="0 0 0 0 0 0 0 0 0 0 0 0 0 0 0 0 0 0 127 0" result="hardAlpha"/>
<feOffset dy="1.36713"/>
<feGaussianBlur stdDeviation="0.482611"/>
<feComposite in2="hardAlpha" operator="out"/>
<feColorMatrix type="matrix" values="0 0 0 0 0.788235 0 0 0 0 0.878431 0 0 0 0 1 0 0 0 0.6 0"/>
<feBlend mode="multiply" in2="BackgroundImageFix" result="effect1_dropShadow_7664_108598"/>
<feBlend mode="normal" in="SourceGraphic" in2="effect1_dropShadow_7664_108598" result="shape"/>
</filter>
<filter id="filter8_f_7664_108598" x="57.0274" y="30.5496" width="34.9042" height="7.48645" filterUnits="userSpaceOnUse" color-interpolation-filters="sRGB">
<feFlood flood-opacity="0" result="BackgroundImageFix"/>
<feBlend mode="normal" in="SourceGraphic" in2="BackgroundImageFix" result="shape"/>
<feGaussianBlur stdDeviation="0.683563" result="effect1_foregroundBlur_7664_108598"/>
</filter>
<filter id="filter9_f_7664_108598" x="34.0802" y="-0.490829" width="43.1716" height="43.1706" filterUnits="userSpaceOnUse" color-interpolation-filters="sRGB">
<feFlood flood-opacity="0" result="BackgroundImageFix"/>
<feBlend mode="normal" in="SourceGraphic" in2="BackgroundImageFix" result="shape"/>
<feGaussianBlur stdDeviation="3.77532" result="effect1_foregroundBlur_7664_108598"/>
</filter>
<filter id="filter10_f_7664_108598" x="9.7705" y="-21.9251" width="59.8965" height="59.8962" filterUnits="userSpaceOnUse" color-interpolation-filters="sRGB">
<feFlood flood-opacity="0" result="BackgroundImageFix"/>
<feBlend mode="normal" in="SourceGraphic" in2="BackgroundImageFix" result="shape"/>
<feGaussianBlur stdDeviation="8.80908" result="effect1_foregroundBlur_7664_108598"/>
</filter>
<filter id="filter11_d_7664_108598" x="37.5939" y="10.7648" width="22.4157" height="19.6733" filterUnits="userSpaceOnUse" color-interpolation-filters="sRGB">
<feFlood flood-opacity="0" result="BackgroundImageFix"/>
<feColorMatrix in="SourceAlpha" type="matrix" values="0 0 0 0 0 0 0 0 0 0 0 0 0 0 0 0 0 0 127 0" result="hardAlpha"/>
<feOffset dy="3"/>
<feGaussianBlur stdDeviation="2.20501"/>
<feComposite in2="hardAlpha" operator="out"/>
<feColorMatrix type="matrix" values="0 0 0 0 0.411765 0 0 0 0 0.658824 0 0 0 0 1 0 0 0 1 0"/>
<feBlend mode="multiply" in2="BackgroundImageFix" result="effect1_dropShadow_7664_108598"/>
<feBlend mode="normal" in="SourceGraphic" in2="effect1_dropShadow_7664_108598" result="shape"/>
</filter>
<linearGradient id="paint0_linear_7664_108598" x1="29.1658" y1="16.5178" x2="0.425499" y2="3.96932" gradientUnits="userSpaceOnUse">
<stop offset="0.164383" stop-color="#BBD8FF"/>
<stop offset="1" stop-color="#E5F0FF"/>
</linearGradient>
<linearGradient id="paint1_linear_7664_108598" x1="48.343" y1="51.0752" x2="0.163349" y2="10.3469" gradientUnits="userSpaceOnUse">
<stop offset="0.276007" stop-color="#D4E6FF"/>
<stop offset="1" stop-color="#F3F8FF"/>
<stop offset="1" stop-color="#DCF4FF"/>
</linearGradient>
<linearGradient id="paint2_linear_7664_108598" x1="38.8286" y1="53.2858" x2="-0.000951748" y2="-2.62779" gradientUnits="userSpaceOnUse">
<stop stop-color="#DFEBFE"/>
<stop offset="1" stop-color="#F3F8FF"/>
<stop offset="1" stop-color="#F3F8FF"/>
</linearGradient>
<linearGradient id="paint3_linear_7664_108598" x1="61.9443" y1="41.9619" x2="41.6309" y2="7.05982" gradientUnits="userSpaceOnUse">
<stop offset="0.348958" stop-color="#86BAFF"/>
<stop offset="1" stop-color="#86BAFF" stop-opacity="0.4"/>
</linearGradient>
<linearGradient id="paint4_linear_7664_108598" x1="53.5598" y1="31.3871" x2="34.7773" y2="3.31763" gradientUnits="userSpaceOnUse">
<stop offset="0.306345" stop-color="#85B9FF"/>
<stop offset="1" stop-color="#86BAFF" stop-opacity="0.4"/>
</linearGradient>
<linearGradient id="paint5_linear_7664_108598" x1="53.5637" y1="31.3868" x2="34.7812" y2="3.31739" gradientUnits="userSpaceOnUse">
<stop offset="0.306345" stop-color="#85B9FF"/>
<stop offset="1" stop-color="#86BAFF" stop-opacity="0.4"/>
</linearGradient>
<linearGradient id="paint6_linear_7664_108598" x1="144.073" y1="101.796" x2="18.2409" y2="103.297" gradientUnits="userSpaceOnUse">
<stop offset="0.0216347" stop-color="#0086FF"/>
<stop offset="1" stop-color="#7EB0FF"/>
</linearGradient>
<clipPath id="clip0_7664_108598">
<rect width="76.7728" height="60" fill="white" transform="translate(26.1133 0.796143)"/>
</clipPath>
<clipPath id="clip1_7664_108598">
<rect width="22.1393" height="22.1393" fill="white" transform="translate(37.7363 6.27173)"/>
</clipPath>
<clipPath id="clip2_7664_108598">
<rect width="22.1393" height="22.1393" fill="white" transform="translate(37.7324 6.27222)"/>
</clipPath>
</defs>
</svg>
