<svg width="363" height="71" viewBox="0 0 363 71" fill="none" xmlns="http://www.w3.org/2000/svg">
<path d="M50.3887 3.98364C50.3887 8.13989 54.0762 12.6086 60.5137 13.7024L58.7637 17.0149C53.8106 16.0305 50.1231 13.2493 48.295 9.57739C46.4044 13.218 42.7169 16.0149 37.795 17.0149L36.0762 13.7024C42.3887 12.5774 46.1075 8.10864 46.1387 3.98364V1.92114H50.3887V3.98364ZM61.4512 21.8899V25.1711H35.42V21.8899H61.4512ZM74.2562 3.38989V6.51489H67.4125V11.0461H73.1312V14.0774H67.4125V19.1711C70.4594 19.1555 72.7094 18.9836 75.35 18.5461L75.6937 21.7649C72.4437 22.3586 69.6937 22.3899 65.5375 22.3899H63.6312V3.38989H74.2562ZM87.4125 0.233643V28.6711H83.5687V0.233643H87.4125ZM81.3812 0.733643V27.3899H77.6625V13.7961H74.475V10.6086H77.6625V0.733643H81.3812ZM113.28 13.3899V16.5774H93.155V2.60864H113.061V5.82739H97.0925V13.3899H113.28ZM116.124 21.9211V25.2024H90.0925V21.9211H116.124ZM142.085 0.233643V28.6711H138.272V0.233643H142.085ZM136.147 0.639893V27.3586H132.397V13.9211H130.116C129.741 19.5149 127.366 22.8899 123.866 22.8899C120.116 22.8899 117.679 18.9524 117.679 12.5461C117.679 6.17114 120.116 2.26489 123.866 2.26489C127.288 2.26489 129.632 5.45239 130.085 10.7649H132.397V0.639893H136.147ZM123.866 6.01489C122.272 6.01489 121.335 8.20239 121.366 12.5461C121.335 16.9211 122.272 19.0774 123.866 19.0461C125.491 19.0774 126.46 16.9211 126.46 12.5461C126.46 8.20239 125.491 6.01489 123.866 6.01489ZM155.515 6.67114C155.515 12.0149 157.671 17.2024 162.421 19.2649L159.984 22.4524C156.827 20.9055 154.718 18.0774 153.546 14.5774C152.296 18.2961 150.109 21.343 146.859 22.9524L144.359 19.7024C149.234 17.5149 151.452 12.0149 151.484 6.67114V2.42114H155.515V6.67114ZM168.765 0.233643V28.7336H164.827V12.3899H159.234V9.17114H164.827V0.233643H168.765ZM188.031 8.82739C188.031 13.1086 189.562 17.4524 193.656 19.6086L191.438 22.5461C188.875 21.2336 187.172 18.9368 186.188 16.1399C185.188 19.1868 183.484 21.7336 180.906 23.2024L178.656 20.2024C182.688 17.8899 184.25 13.2336 184.281 8.82739V8.29614H179.562V5.04614H184.281V1.20239H188V5.04614H192.688V8.29614H188.031V8.82739ZM203.969 0.233643V28.6711H200.156V14.4211H197.75V27.3586H193.969V0.639893H197.75V11.1711H200.156V0.233643H203.969ZM232.43 13.7024V16.8899H206.492V13.7024H212.336V10.2961C210.258 9.37427 209.086 7.96802 209.086 6.13989C209.086 2.70239 213.117 0.639893 219.461 0.639893C225.742 0.639893 229.774 2.70239 229.805 6.13989C229.789 7.98364 228.571 9.42114 226.461 10.3274V13.7024H232.43ZM219.43 18.3899C225.586 18.3899 229.305 20.2024 229.336 23.4836C229.305 26.8274 225.586 28.6399 219.43 28.6399C213.18 28.6399 209.461 26.8274 209.461 23.4836C209.461 20.2024 213.18 18.3899 219.43 18.3899ZM219.43 21.3899C215.492 21.3899 213.492 22.0774 213.524 23.4836C213.492 24.9524 215.492 25.6711 219.43 25.6711C223.274 25.6711 225.305 24.9524 225.336 23.4836C225.305 22.0774 223.274 21.3899 219.43 21.3899ZM219.461 3.70239C215.43 3.70239 213.211 4.54614 213.242 6.13989C213.211 7.70239 215.43 8.48364 219.461 8.48364C223.43 8.48364 225.68 7.70239 225.68 6.13989C225.68 4.54614 223.43 3.70239 219.461 3.70239ZM216.367 13.7024H222.492V11.3274C221.555 11.4368 220.539 11.4836 219.461 11.4836C218.352 11.4836 217.321 11.4368 216.367 11.2961V13.7024ZM248.821 1.45239C252.462 1.42114 255.352 3.49927 256.134 6.54614H260.884V0.233643H264.852V15.5149H260.884V9.73364H256.165C255.415 12.8586 252.493 14.9836 248.821 14.9836C244.446 14.9836 241.227 12.1399 241.259 8.17114C241.227 4.26489 244.446 1.42114 248.821 1.45239ZM248.821 4.76489C246.602 4.73364 245.009 6.04614 245.04 8.17114C245.009 10.2961 246.602 11.6399 248.821 11.6399C250.977 11.6399 252.54 10.2961 252.54 8.17114C252.54 6.04614 250.977 4.73364 248.821 4.76489ZM249.821 16.7649V19.5149H260.884V16.7649H264.852V28.3586H245.884V16.7649H249.821ZM249.821 25.1399H260.884V22.5774H249.821V25.1399ZM294.22 16.1399V19.3274H283.095V28.6399H279.158V19.3274H268.189V16.1399H294.22ZM291.095 1.60864V13.0774H271.251V1.60864H291.095ZM275.189 4.76489V9.95239H287.126V4.76489H275.189ZM304.775 2.13989C309.275 2.10864 312.65 5.04614 312.65 9.10864C312.65 13.2024 309.275 16.1086 304.775 16.1086C300.275 16.1086 296.869 13.2024 296.869 9.10864C296.869 5.04614 300.275 2.10864 304.775 2.13989ZM304.775 5.57739C302.525 5.57739 300.806 6.88989 300.838 9.10864C300.806 11.3586 302.525 12.6399 304.775 12.6399C307.025 12.6399 308.744 11.3586 308.775 9.10864C308.744 6.88989 307.056 5.57739 304.775 5.57739ZM319.463 0.233643V28.7336H315.494V0.233643H319.463ZM295.681 19.6711C300.744 19.7024 307.775 19.6086 313.869 18.7649L314.181 21.6399C307.869 22.8586 301.119 22.9211 296.15 22.9211L295.681 19.6711ZM26.2319 64.0774V67.3586H0.200623V64.0774H11.1694V58.2649H2.95062V44.3274H23.3256V58.2649H15.1381V64.0774H26.2319ZM6.88812 47.5149V55.1399H19.3881V47.5149H6.88812ZM53.5369 56.2649V59.4524H27.5369V56.2649H53.5369ZM50.6931 50.7649V53.9524H30.6931V43.2649H50.4119V46.4524H34.6619V50.7649H50.6931ZM50.8494 66.9524V70.1399H30.6619V61.6711H34.5994V66.9524H50.8494ZM85.8969 42.2649V61.1399H81.9281V53.0149H76.8969V49.7649H81.9281V42.2649H85.8969ZM76.6781 44.4211C76.6781 52.1086 72.5844 57.2024 63.9594 59.8899L62.2406 56.7649C68.6781 54.8586 71.7875 51.7024 72.3969 47.5774H63.7719V44.4211H76.6781ZM78.2406 59.9836C78.2406 63.2336 81.2406 66.4836 87.2406 67.3899L85.6469 70.5461C81.1781 69.8118 77.9594 67.7961 76.2719 65.0461C74.5219 67.8118 71.2719 69.8274 66.8031 70.5774L65.2406 67.4211C71.2719 66.5461 74.2719 63.2336 74.3031 59.9836V58.9836H78.2406V59.9836ZM102.233 42.6399C108.764 42.6399 112.546 44.3586 112.577 47.4836C112.546 50.6399 108.764 52.3586 102.233 52.3586C95.6706 52.3586 91.8581 50.6399 91.8581 47.4836C91.8581 44.3586 95.6706 42.6399 102.233 42.6399ZM102.233 45.5461C98.0456 45.5461 96.0144 46.2336 96.0456 47.4836C96.0144 48.8899 98.0456 49.4211 102.233 49.4211C106.452 49.4211 108.452 48.8899 108.452 47.4836C108.452 46.2336 106.452 45.5461 102.233 45.5461ZM115.202 53.7024V56.8586H89.2644V53.7024H115.202ZM112.046 58.5149V65.7649H96.2019V67.4836H112.796V70.4836H92.2956V62.9836H108.108V61.4211H92.2644V58.5149H112.046ZM148.187 42.2336V70.6711H144.343V56.2024H141.749V69.4211H138.031V42.9836H141.749V53.0149H144.343V42.2336H148.187ZM136.031 45.7336C135.999 53.6711 133.624 60.1711 125.624 64.8274L123.312 62.0774C129.109 58.6711 131.593 54.4993 132.156 48.9211H124.749V45.7336H136.031ZM161.648 47.1086C161.648 50.7961 163.617 54.4524 168.148 55.9524L165.992 59.0774C162.976 57.968 160.898 55.8743 159.711 53.2336C158.476 56.2024 156.257 58.5461 152.961 59.7336L150.804 56.6086C155.554 55.0461 157.617 51.1399 157.617 47.0774V43.9836H161.648V47.1086ZM174.961 42.2649V63.2649H170.992V51.5149H165.648V48.2961H170.992V42.2649H174.961ZM175.554 66.9836V70.1711H156.023V61.0461H160.054V66.9836H175.554ZM200.891 42.1711V48.3586H204.734V51.5461H200.891V57.5774H196.891V42.1711H200.891ZM200.891 58.7336V65.9211H185.984V67.5461H201.703V70.4836H182.078V63.2024H196.922V61.6086H182.016V58.7336H200.891ZM195.203 44.3586V47.3899H178.328V44.3586H184.797V42.0461H188.766V44.3586H195.203ZM186.766 48.0774C191.016 48.0774 193.766 49.8899 193.766 52.7336C193.766 55.6399 191.016 57.3899 186.766 57.3899C182.516 57.3899 179.703 55.6399 179.703 52.7336C179.703 49.8899 182.516 48.0774 186.766 48.0774ZM186.766 50.8899C184.797 50.8899 183.578 51.5461 183.609 52.7336C183.578 53.9524 184.797 54.5461 186.766 54.5461C188.734 54.5461 189.984 53.9524 189.984 52.7336C189.984 51.5461 188.734 50.8899 186.766 50.8899ZM227.813 44.4524C227.813 47.7961 231.219 51.5149 237.751 52.3274L236.188 55.5461C231.219 54.8274 227.579 52.5305 225.719 49.4524C223.844 52.5305 220.235 54.8274 215.313 55.5461L213.719 52.3274C220.188 51.5149 223.626 47.7961 223.626 44.4524V43.0774H227.813V44.4524ZM238.657 57.7024V60.9524H227.594V70.6711H223.657V60.9524H212.719V57.7024H238.657ZM257.454 60.4836C257.454 62.7805 258.408 65.1399 260.736 66.7024C263.079 65.0461 264.111 62.593 264.111 60.4836V59.5149H268.048V60.4836C268.017 63.4524 269.611 66.2024 273.392 67.3586L271.454 70.2649C268.736 69.343 266.954 67.6086 265.986 65.4211C265.033 67.6086 263.376 69.5149 260.829 70.5149C258.142 69.5461 256.47 67.7024 255.548 65.5149C254.548 67.6399 252.798 69.3586 250.204 70.2649L248.236 67.3586C251.986 66.0774 253.548 63.2649 253.579 60.4836V59.5149H257.454V60.4836ZM270.923 42.2649V58.3274H266.923V42.2649H270.923ZM255.329 43.7024C259.767 43.7024 263.111 46.5149 263.111 50.5461C263.111 54.5149 259.767 57.3274 255.329 57.3274C250.892 57.3274 247.548 54.5149 247.548 50.5461C247.548 46.5149 250.892 43.7024 255.329 43.7024ZM255.329 47.0461C253.048 47.0461 251.423 48.3586 251.454 50.5461C251.423 52.7024 253.048 54.0149 255.329 54.0149C257.548 54.0149 259.173 52.7024 259.173 50.5461C259.173 48.3586 257.548 47.0461 255.329 47.0461ZM281.416 59.2961V61.7024H293.134V59.2961H297.103V70.3586H277.478V59.2961H281.416ZM281.416 67.2336H293.134V64.7336H281.416V67.2336ZM300.384 54.6399V57.8586H274.447V54.6399H300.384ZM289.478 43.4836C289.478 46.3274 292.759 49.5461 299.103 50.2649L297.697 53.3899C292.791 52.7649 289.244 50.7336 287.416 47.9836C285.587 50.7336 282.025 52.7649 277.166 53.3899L275.728 50.2649C282.072 49.5149 285.353 46.3899 285.384 43.4836V42.5149H289.478V43.4836ZM325.689 42.2336V70.6711H321.721V42.2336H325.689ZM307.252 44.9524V60.2336C311.096 60.1868 315.221 59.8274 319.408 59.0149L319.908 62.2961C314.908 63.3274 310.221 63.6711 305.814 63.6399H303.314V44.9524H307.252ZM351.557 42.2336V52.7961H355.744V56.0461H351.557V70.7336H347.557V42.2336H351.557ZM343.588 44.8586V48.0774H334.213V60.5461C338.338 60.4993 341.744 60.3118 345.526 59.6399L345.963 62.9836C341.557 63.7336 337.682 63.8586 332.651 63.8274H330.244V44.8586H343.588ZM360.143 68.0774C358.674 68.0774 357.487 66.8899 357.518 65.4524C357.487 64.0149 358.674 62.8586 360.143 62.8586C361.518 62.8586 362.737 64.0149 362.737 65.4524C362.737 66.8899 361.518 68.0774 360.143 68.0774Z" fill="url(#paint0_linear_7664_108596)"/>
<defs>
<linearGradient id="paint0_linear_7664_108596" x1="409.53" y1="77.7964" x2="49.7265" y2="82.0329" gradientUnits="userSpaceOnUse">
<stop offset="0.0216347" stop-color="#0086FF"/>
<stop offset="1" stop-color="#7EB0FF"/>
</linearGradient>
</defs>
</svg>
