<svg width="447" height="690" viewBox="0 0 447 690" fill="none" xmlns="http://www.w3.org/2000/svg">
<g clip-path="url(#clip0_344_1718)">
<path d="M0.21875 20C0.21875 8.9543 9.17305 0 20.2187 0H426.219C437.264 0 446.219 8.95431 446.219 20V670C446.219 681.046 437.264 690 426.219 690H20.2188C9.17307 690 0.21875 681.046 0.21875 670V20Z" fill="white"/>
<g clip-path="url(#clip1_344_1718)">
<rect x="0.122915" y="0.064655" width="90.5348" height="120.24" rx="4.81206" transform="matrix(0.954993 -0.296629 0.296621 0.954995 121.289 341.932)" fill="url(#paint0_linear_344_1718)" stroke="#D8E9FF" stroke-width="0.196411"/>
<rect x="-0.188561" y="-0.226959" width="122.946" height="163.062" rx="5.11891" transform="matrix(0.995757 0.092019 -0.0920156 0.995758 198.635 271.9)" fill="url(#paint1_linear_344_1718)" stroke="#CFE4FF" stroke-width="0.41729"/>
<g filter="url(#filter0_d_344_1718)">
<g filter="url(#filter1_d_344_1718)">
<rect width="94.3678" height="9.93363" rx="4.96682" transform="matrix(0.995757 0.092019 -0.0920156 0.995758 210.729 300.892)" fill="white"/>
</g>
<mask id="mask0_344_1718" style="mask-type:alpha" maskUnits="userSpaceOnUse" x="210" y="301" width="95" height="19">
<rect width="94.3678" height="9.93363" rx="4.96682" transform="matrix(0.995757 0.092019 -0.0920156 0.995758 210.732 300.896)" fill="white"/>
</mask>
<g mask="url(#mask0_344_1718)">
<g filter="url(#filter2_f_344_1718)">
<rect width="98.0479" height="5.98243" transform="matrix(0.996195 0.0871573 -0.0871542 0.996195 209.135 307.229)" fill="#E3EFFF"/>
</g>
</g>
<g filter="url(#filter3_d_344_1718)">
<rect width="94.3678" height="9.93363" rx="4.96682" transform="matrix(0.995757 0.092019 -0.0920156 0.995758 208.902 320.774)" fill="white"/>
</g>
<mask id="mask1_344_1718" style="mask-type:alpha" maskUnits="userSpaceOnUse" x="208" y="321" width="95" height="18">
<rect width="94.3678" height="9.93363" rx="4.96682" transform="matrix(0.995757 0.092019 -0.0920156 0.995758 208.898 320.774)" fill="white"/>
</mask>
<g mask="url(#mask1_344_1718)">
<g filter="url(#filter4_f_344_1718)">
<rect width="98.0479" height="5.98243" transform="matrix(0.996195 0.0871573 -0.0871542 0.996195 207.301 327.108)" fill="#E3EFFF" fill-opacity="0.9"/>
</g>
</g>
<g filter="url(#filter5_d_344_1718)">
<rect width="94.3678" height="9.93363" rx="4.96682" transform="matrix(0.995757 0.0920189 -0.0920157 0.995758 207.049 340.656)" fill="white"/>
</g>
<mask id="mask2_344_1718" style="mask-type:alpha" maskUnits="userSpaceOnUse" x="206" y="341" width="95" height="18">
<rect width="94.3678" height="9.93363" rx="4.96682" transform="matrix(0.995757 0.092019 -0.0920156 0.995758 207.121 340.658)" fill="white"/>
</mask>
<g mask="url(#mask2_344_1718)">
<g filter="url(#filter6_f_344_1718)">
<rect width="98.0479" height="5.98243" transform="matrix(0.996195 0.0871573 -0.0871542 0.996195 205.523 346.993)" fill="#E3EFFF" fill-opacity="0.9"/>
</g>
</g>
<g filter="url(#filter7_d_344_1718)">
<rect width="49.6673" height="9.93363" rx="4.96682" transform="matrix(0.995757 0.0920189 -0.0920157 0.995758 205.219 360.541)" fill="white"/>
</g>
<mask id="mask3_344_1718" style="mask-type:alpha" maskUnits="userSpaceOnUse" x="204" y="360" width="51" height="15">
<rect width="49.9048" height="9.93363" rx="4.96682" transform="matrix(0.995757 0.092019 -0.0920156 0.995758 205.201 360.54)" fill="white"/>
</mask>
<g mask="url(#mask3_344_1718)">
<g filter="url(#filter8_f_344_1718)">
<rect width="98.0479" height="5.98243" transform="matrix(0.996195 0.0871573 -0.0871542 0.996195 203.604 366.871)" fill="#E3EFFF" fill-opacity="0.9"/>
</g>
</g>
</g>
<mask id="mask4_344_1718" style="mask-type:alpha" maskUnits="userSpaceOnUse" x="184" y="272" width="137" height="173">
<mask id="path-25-inside-1_344_1718" fill="white">
<rect width="122.528" height="162.645" rx="4.91026" transform="matrix(0.995757 0.092019 -0.0920156 0.995758 198.674 271.887)"/>
</mask>
<rect width="122.528" height="162.645" rx="4.91026" transform="matrix(0.995757 0.092019 -0.0920156 0.995758 198.674 271.887)" fill="url(#paint2_linear_344_1718)" stroke="#DAE7FF" stroke-width="10.105" mask="url(#path-25-inside-1_344_1718)"/>
<rect width="91.1669" height="2.18805" rx="1.09402" transform="matrix(0.995757 0.092019 -0.0920156 0.995758 212.621 295.148)" fill="white"/>
<rect width="91.1669" height="2.18805" rx="1.09402" transform="matrix(0.995757 0.092019 -0.0920156 0.995758 211.078 311.853)" fill="white"/>
<rect width="91.1669" height="2.18805" rx="1.09402" transform="matrix(0.995757 0.0920189 -0.0920157 0.995758 209.547 328.558)" fill="white"/>
<rect width="91.1669" height="2.18805" rx="1.09402" transform="matrix(0.995757 0.0920189 -0.0920157 0.995758 207.996 345.261)" fill="white"/>
<rect width="58.3468" height="2.18804" rx="1.09402" transform="matrix(0.995757 0.0920189 -0.0920157 0.995758 201.82 412.075)" fill="white"/>
</mask>
<g mask="url(#mask4_344_1718)">
<g opacity="0.5" filter="url(#filter9_f_344_1718)">
<ellipse cx="194.754" cy="333.84" rx="42.8383" ry="42.8383" fill="url(#paint3_linear_344_1718)"/>
</g>
</g>
<ellipse cx="175.838" cy="324.943" rx="42.8383" ry="42.8383" fill="#5D9DF3"/>
<ellipse cx="173.84" cy="322.418" rx="42.8383" ry="42.8383" fill="url(#paint4_linear_344_1718)"/>
<mask id="mask5_344_1718" style="mask-type:alpha" maskUnits="userSpaceOnUse" x="131" y="279" width="86" height="87">
<ellipse cx="173.85" cy="322.417" rx="42.8383" ry="42.8383" fill="url(#paint5_linear_344_1718)"/>
<path d="M166.852 338.314L154.905 326.367C153.806 325.267 153.806 323.484 154.905 322.385V322.385C156.005 321.285 157.787 321.285 158.887 322.384L166.856 330.344L166.852 330.348L188.752 308.448C189.851 307.348 191.634 307.348 192.733 308.448V308.448C193.833 309.547 193.833 311.33 192.733 312.429L170.833 334.332L166.854 338.311L166.852 338.314Z" fill="white"/>
</mask>
<g mask="url(#mask5_344_1718)">
<g filter="url(#filter10_f_344_1718)">
<ellipse cx="146.081" cy="293.942" rx="37.634" ry="37.6347" fill="white"/>
</g>
</g>
<g clip-path="url(#clip2_344_1718)">
<g filter="url(#filter11_d_344_1718)">
<path d="M166.842 338.316L154.896 326.37C153.796 325.27 153.796 323.487 154.896 322.388V322.388C155.995 321.288 157.777 321.288 158.877 322.387L166.846 330.347L166.842 330.351L188.742 308.451C189.842 307.351 191.624 307.351 192.724 308.451V308.451C193.823 309.55 193.823 311.333 192.724 312.432L170.823 334.335L166.845 338.314L166.842 338.316Z" fill="white"/>
<path d="M166.485 338.673L166.842 339.03L167.199 338.673L167.202 338.671L167.202 338.671L171.18 334.692L171.18 334.692L193.081 312.789C194.377 311.492 194.377 309.39 193.08 308.094C191.784 306.797 189.682 306.797 188.385 308.094L166.846 329.633L159.234 322.029C157.937 320.734 155.835 320.734 154.539 322.031C153.242 323.328 153.242 325.43 154.539 326.727L166.485 338.673Z" stroke="white" stroke-width="1.00956"/>
</g>
</g>
</g>
<rect x="360.24" y="323.273" width="17.2085" height="15.0574" rx="4.75658" transform="rotate(52.6429 360.24 323.273)" fill="url(#paint6_linear_344_1718)"/>
<path d="M275.491 401.5C273.527 401.92 271.958 399.866 272.882 398.081L277.862 388.455C278.664 386.906 280.806 386.718 281.865 388.105L287.483 395.464C288.541 396.851 287.796 398.868 286.09 399.233L275.491 401.5Z" fill="url(#paint7_linear_344_1718)"/>
<rect x="351.893" y="328.293" width="19.3595" height="94.6465" rx="4.75658" transform="rotate(52.6429 351.893 328.293)" fill="url(#paint8_linear_344_1718)"/>
<g style="mix-blend-mode:multiply" filter="url(#filter12_f_344_1718)">
<path fill-rule="evenodd" clip-rule="evenodd" d="M311.324 379.318L274.876 407.141C273.381 408.282 272.751 410.137 273.099 411.864C272.774 412.078 272.494 412.378 272.295 412.761L267.315 422.387C266.391 424.171 267.96 426.225 269.924 425.805L280.523 423.538C280.945 423.448 281.308 423.257 281.6 422.999C283.174 423.79 285.129 423.67 286.623 422.529L308.902 405.523L311.324 379.318Z" fill="#A8C3F1"/>
</g>
<circle cx="366.796" cy="284.612" r="4.75658" fill="#A4C7FC"/>
<circle cx="77.698" cy="441.882" r="4.75658" fill="#468EFF"/>
<circle cx="374.249" cy="298.716" r="3.56743" fill="#468EFF"/>
<circle cx="88.6514" cy="430.539" r="3.56743" fill="#A4C7FC"/>
<circle cx="95.671" cy="301.261" r="3.56743" fill="#468EFF"/>
<path d="M142.477 154.312C142.477 156.594 144.906 158.75 147.602 159.234L146.914 160.469C144.672 159.984 142.617 158.516 141.711 156.547C140.789 158.508 138.734 159.969 136.492 160.469L135.836 159.234C138.492 158.734 140.906 156.594 140.914 154.312V153.25H142.477V154.312ZM135.367 164.484V163.25H148.18V164.484H135.367ZM154.93 153.984V155.172H151.117V157.75H154.305V158.906H151.117V161.844C152.945 161.82 154.141 161.75 155.586 161.484L155.711 162.688C154.102 163.016 152.773 163.039 150.602 163.047H149.695V153.984H154.93ZM155.039 158.781V157.578H156.93V152.625H158.336V165.625H156.93V158.781H155.039ZM159.789 166.328V152.328H161.227V166.328H159.789ZM174.367 158.969V160.188H164.617V153.578H174.242V154.797H166.086V158.969H174.367ZM163.023 164.484V163.25H175.836V164.484H163.023ZM185.805 155.891C185.805 158.453 187.242 161.008 189.383 161.969L188.477 163.156C186.891 162.359 185.688 160.781 185.07 158.867C184.453 160.883 183.234 162.586 181.617 163.422L180.68 162.219C182.852 161.18 184.297 158.484 184.305 155.891V153.5H185.805V155.891ZM187.836 158.188V156.984H190.961V152.328H192.43V166.359H190.961V158.188H187.836ZM206.18 152.328V166.359H204.695V152.328H206.18ZM195.367 163V153.5H196.852V157.094H200.617V153.5H202.086V163H195.367ZM196.852 161.781H200.617V158.266H196.852V161.781ZM215.523 154.312C215.523 156.594 217.953 158.75 220.648 159.234L219.961 160.469C217.719 159.984 215.664 158.516 214.758 156.547C213.836 158.508 211.781 159.969 209.539 160.469L208.883 159.234C211.539 158.734 213.953 156.594 213.961 154.312V153.25H215.523V154.312ZM208.414 164.484V163.25H221.227V164.484H208.414ZM226.805 153.328C229.016 153.32 230.609 154.688 230.617 156.656C230.609 158.625 229.016 159.992 226.805 160C224.602 159.992 222.984 158.625 222.992 156.656C222.984 154.688 224.602 153.32 226.805 153.328ZM222.32 162.109C224.867 162.109 228.398 162.086 231.461 161.641L231.57 162.719C228.406 163.328 225.008 163.344 222.508 163.344L222.32 162.109ZM224.461 156.656C224.445 157.898 225.445 158.703 226.805 158.703C228.164 158.703 229.164 157.898 229.164 156.656C229.164 155.43 228.164 154.609 226.805 154.609C225.445 154.609 224.445 155.43 224.461 156.656ZM232.336 166.359V152.328H233.82V166.359H232.336ZM244.883 155.344C244.883 156.977 246.148 158.547 248.289 159.172L247.586 160.328C245.992 159.844 244.805 158.836 244.18 157.547C243.57 159 242.367 160.141 240.711 160.703L239.977 159.516C242.117 158.836 243.414 157.156 243.414 155.344V155.109H240.367V153.922H243.414V152.281H244.898V153.922H247.93V155.109H244.883V155.344ZM241.648 165.094C244.25 164.672 246.297 163.102 246.305 161.344V161.062H247.82V161.344C247.812 163.156 249.82 164.688 252.492 165.094L251.898 166.266C249.711 165.906 247.891 164.82 247.055 163.289C246.203 164.805 244.375 165.906 242.18 166.266L241.648 165.094ZM247.508 157.453V156.219H250.164V152.328H251.648V161.984H250.164V157.453H247.508ZM262.852 155.891C262.836 158.445 264.383 161.023 266.555 161.984L265.664 163.156C264.055 162.391 262.781 160.82 262.125 158.906C261.477 160.961 260.188 162.648 258.508 163.469L257.602 162.219C259.805 161.242 261.352 158.562 261.352 155.891V153.5H262.852V155.891ZM267.82 166.359V152.328H269.305V166.359H267.82ZM276.43 154.844C276.422 156.633 277.664 158.328 279.805 159.047L279.055 160.203C277.469 159.656 276.305 158.562 275.695 157.188C275.086 158.695 273.867 159.891 272.227 160.469L271.43 159.312C273.617 158.57 274.938 156.758 274.945 154.828V154.453H271.867V153.25H279.445V154.453H276.43V154.844ZM273.289 162.656V161.453H282.539V166.328H281.055V162.656H273.289ZM281.055 160.766V152.328H282.539V155.922H284.57V157.172H282.539V160.766H281.055ZM296.977 152.344V162.516H295.492V152.344H296.977ZM285.648 156.75C285.656 154.727 287.266 153.289 289.383 153.281C291.492 153.289 293.102 154.727 293.102 156.75C293.102 158.805 291.492 160.234 289.383 160.234C287.266 160.234 285.656 158.805 285.648 156.75ZM287.102 156.75C287.094 158.07 288.078 158.938 289.383 158.938C290.664 158.938 291.648 158.07 291.648 156.75C291.648 155.461 290.664 154.578 289.383 154.578C288.078 154.578 287.094 155.461 287.102 156.75ZM287.82 166.031V161.484H289.32V164.828H297.398V166.031H287.82ZM80.3438 180.562C80.3438 182.719 81.2266 184.938 83.2344 185.984L82.25 187.266C80.9375 186.578 80.0469 185.344 79.5391 183.867C79.0391 185.461 78.1484 186.828 76.8281 187.578L75.8281 186.297C77.8047 185.148 78.6953 182.797 78.7031 180.562V180.172H76.2344V178.75H78.7031V176.766H80.3438V178.75H82.7812V180.172H80.3438V180.562ZM83.5312 189.703V176.516H85.1719V181.797H86.625V176.266H88.2812V190.391H86.625V183.234H85.1719V189.703H83.5312ZM102.734 183.062V184.453H89.8594V183.062H92.8594V181.273C91.7891 180.82 91.1875 180.109 91.1875 179.188C91.1875 177.492 93.1641 176.5 96.2812 176.5C99.3906 176.5 101.367 177.492 101.375 179.188C101.367 180.117 100.758 180.828 99.6875 181.273V183.062H102.734ZM91.3594 187.828C91.3594 186.203 93.1953 185.297 96.2812 185.312C99.3203 185.297 101.164 186.203 101.172 187.828C101.164 189.469 99.3203 190.359 96.2812 190.359C93.1953 190.359 91.3594 189.469 91.3594 187.828ZM93 179.188C92.9844 180.047 94.1953 180.508 96.2812 180.5C98.3594 180.508 99.5781 180.047 99.5781 179.188C99.5781 178.32 98.3594 177.836 96.2812 177.844C94.1953 177.836 92.9844 178.32 93 179.188ZM93.125 187.828C93.1172 188.625 94.2266 189.055 96.2812 189.047C98.3047 189.055 99.4219 188.625 99.4375 187.828C99.4219 187.039 98.3047 186.633 96.2812 186.625C94.2266 186.633 93.1172 187.039 93.125 187.828ZM94.6094 183.062H97.9531V181.719C97.4453 181.789 96.8828 181.828 96.2812 181.828C95.6797 181.828 95.1172 181.789 94.6094 181.719V183.062ZM110.047 185.094C113.117 185.102 115.055 186.07 115.062 187.75C115.055 189.391 113.117 190.375 110.047 190.375C107.008 190.375 105.047 189.391 105.047 187.75C105.047 186.07 107.008 185.102 110.047 185.094ZM103.719 184.078V182.672H108.688V180.109H110.406V182.672H116.531V184.078H103.719ZM105.188 178.312V176.938H114.969V178.109C114.977 179.227 114.977 180.414 114.578 181.859L112.859 181.703C113.211 180.336 113.234 179.336 113.234 178.312H105.188ZM106.797 187.75C106.781 188.578 108.008 189.031 110.047 189.031C112.094 189.031 113.328 188.578 113.344 187.75C113.328 186.891 112.094 186.406 110.047 186.406C108.008 186.406 106.781 186.891 106.797 187.75ZM129.047 177.562V178.922C129.031 180.68 129.031 182.641 128.484 185.594L126.734 185.406C127.289 182.656 127.289 180.648 127.297 178.953H118.859V177.562H129.047ZM117.516 188.562V187.141H122.266V182.234H123.984V187.141H130.391V188.562H117.516ZM142.312 177.484V184.156H135.625V177.484H142.312ZM137.234 190.109V185.578H138.969V188.703H146.844V190.109H137.234ZM137.328 182.781H140.609V178.875H137.328V182.781ZM144.547 186.578V176.266H146.281V180.406H148.25V181.859H146.281V186.578H144.547ZM160.438 182.891V184.281H150.531V177.5H160.328V178.906H152.25V182.891H160.438ZM148.969 188.594V187.156H161.875V188.594H148.969ZM174.234 180.266V181.641H164.453V176.781H166.172V180.266H174.234ZM162.781 184.656V183.281H175.688V184.656H162.781ZM164.328 190.062V185.906H166.062V188.656H174.328V190.062H164.328ZM186.969 184.984C189.898 184.984 191.695 185.977 191.703 187.672C191.695 189.391 189.898 190.383 186.969 190.391C184.016 190.383 182.188 189.391 182.188 187.672C182.188 185.977 184.016 184.984 186.969 184.984ZM180.906 183.75V177.156H182.625V179.062H185.922V177.156H187.641V183.75H180.906ZM182.625 182.375H185.922V180.422H182.625V182.375ZM183.922 187.672C183.922 188.547 185.031 189.023 186.969 189.016C188.898 189.023 189.984 188.547 189.984 187.672C189.984 186.797 188.898 186.352 186.969 186.344C185.031 186.352 183.922 186.797 183.922 187.672ZM189.828 184.641V176.266H191.562V179.641H193.531V181.094H191.562V184.641H189.828ZM196.625 177V178.922H199.781V177H201.5V179.578H204.344V176.266H206.078V183.984H204.344V181.016H201.5V183.547H194.891V177H196.625ZM196.625 182.141H199.781V180.266H196.625V182.141ZM196.766 190.188V184.609H198.5V186.047H204.344V184.609H206.078V190.188H196.766ZM198.5 188.781H204.344V187.391H198.5V188.781ZM215.969 177.734V178.734C215.969 179.992 215.969 181.773 215.578 184.203L213.859 184.062C214.203 181.922 214.242 180.336 214.25 179.125H208.703V177.734H215.969ZM207.953 186.031C208.789 186.023 209.719 186.016 210.688 185.992V181.766H212.406V185.938C213.844 185.875 215.32 185.773 216.672 185.609L216.766 186.906C213.852 187.383 210.617 187.438 208.125 187.422L207.953 186.031ZM217.406 190.391V176.266H219.156V182.016H221.203V183.484H219.156V190.391H217.406ZM237.5 176.266V190.391H235.75V176.266H237.5ZM225.797 186.5C229.5 184.742 231.203 182.352 231.516 179.141H226.516V177.766H233.281C233.281 181.969 231.648 185.539 226.703 187.891L225.797 186.5ZM250.953 179.938V181.344H241.203V176.516H242.938V179.938H250.953ZM239.531 184.109V182.703H252.422V184.109H239.531ZM241.031 187.734C241.031 186.07 242.883 185.133 245.953 185.125C249 185.133 250.836 186.07 250.844 187.734C250.836 189.391 249 190.328 245.953 190.328C242.883 190.328 241.031 189.391 241.031 187.734ZM242.797 187.734C242.789 188.547 243.898 188.992 245.953 189C247.977 188.992 249.094 188.547 249.109 187.734C249.094 186.898 247.977 186.492 245.953 186.484C243.898 186.492 242.789 186.898 242.797 187.734ZM259.781 176.562C262.938 176.555 264.773 177.406 264.781 178.969C264.773 180.539 262.938 181.391 259.781 181.391C256.625 181.391 254.773 180.539 254.781 178.969C254.773 177.406 256.625 176.555 259.781 176.562ZM253.406 183.438V182.25H266.172V183.438H253.406ZM254.938 185.625V184.516H264.562V187.797H256.406V189.047H264.953V190.188H254.953V186.719H263.094V185.625H254.938ZM256.328 178.969C256.32 179.836 257.555 180.281 259.781 180.281C262.023 180.281 263.258 179.836 263.25 178.969C263.258 178.141 262.023 177.656 259.781 177.656C257.555 177.656 256.32 178.141 256.328 178.969ZM282.141 176.328V179.25H284.172V180.484H282.141V183.406H280.656V176.328H282.141ZM271.359 179.938C271.344 178.086 272.914 176.82 275.031 176.812C277.156 176.82 278.703 178.086 278.703 179.938C278.703 181.773 277.156 183.062 275.031 183.062C272.914 183.062 271.344 181.773 271.359 179.938ZM272.797 179.938C272.789 181.078 273.742 181.875 275.031 181.875C276.32 181.875 277.266 181.078 277.266 179.938C277.266 178.797 276.32 178.023 275.031 178.031C273.742 178.023 272.789 178.797 272.797 179.938ZM273.094 185.203V184.047H282.141V187.594H274.578V188.969H282.625V190.156H273.125V186.484H280.672V185.203H273.094ZM296.625 176.328V190.359H295.156V184.5H292.422V183.266H295.156V180.672H292.5V179.453H295.156V176.328H296.625ZM285.453 178.766V177.562H291.656V182.672H286.969V185.891C288.945 185.883 290.617 185.789 292.609 185.5L292.734 186.719C290.547 187.062 288.758 187.125 286.547 187.125H285.484V181.5H290.203V178.766H285.453ZM310.141 182.969V184.188H300.391V177.578H310.016V178.797H301.859V182.969H310.141ZM298.797 188.484V187.25H311.609V188.484H298.797ZM319.797 177V180.547H314.797V182.047C317.453 182.039 319.141 181.969 321.188 181.656L321.328 182.781C319.172 183.141 317.367 183.211 314.484 183.219H313.344V179.469H318.344V178.141H313.297V177H319.797ZM315.031 185.406V184.25H324.234V187.688H316.547V189.031H324.703V190.188H315.078V186.594H322.719V185.406H315.031ZM322.75 183.672V176.328H324.234V183.672H322.75ZM338.484 176.328V190.328H337.078V176.328H338.484ZM326.406 186.281C329.375 184.516 330.797 182.164 331.055 179.281H327.062V178.062H332.531C332.523 179.43 332.336 180.734 331.906 181.953H334.125V176.688H335.531V189.641H334.125V183.141H331.391C330.562 184.766 329.227 186.188 327.25 187.344L326.406 186.281ZM353.094 187.344V188.578H340.281V187.344H343.344V183.688C342.195 183.055 341.492 182.055 341.5 180.797C341.492 178.594 343.656 177.148 346.656 177.141C349.664 177.148 351.828 178.594 351.828 180.797C351.828 182.031 351.156 183.023 350.031 183.656V187.344H353.094ZM342.938 180.797C342.938 182.297 344.461 183.273 346.656 183.281C348.836 183.273 350.383 182.297 350.391 180.797C350.383 179.289 348.836 178.328 346.656 178.328C344.461 178.328 342.938 179.289 342.938 180.797ZM344.812 187.344H348.531V184.234C347.961 184.367 347.328 184.438 346.656 184.438C346 184.438 345.375 184.367 344.812 184.234V187.344ZM356.688 177.688L356.547 185.734H355L354.859 177.688H356.688ZM354.672 188C354.664 187.391 355.172 186.891 355.781 186.891C356.383 186.891 356.883 187.391 356.891 188C356.883 188.609 356.383 189.102 355.781 189.109C355.172 189.102 354.664 188.609 354.672 188ZM150.828 204.828C150.828 206.984 152.148 209.266 154.234 210.266L153.391 211.391C151.867 210.672 150.719 209.211 150.125 207.5C149.508 209.352 148.289 210.898 146.688 211.641L145.859 210.5C147.992 209.523 149.367 207.133 149.375 204.828V203.906H146.281V202.719H149.359V200.609H150.859V202.719H153.906V203.906H150.828V204.828ZM155.453 214.328V200.328H156.938V205.969H159.188V207.219H156.938V214.328H155.453ZM171.047 201.156V202.266C171.055 203.453 171.055 204.836 170.695 206.688H172.672V207.906H159.859V206.688H169.203C169.57 204.867 169.578 203.539 169.578 202.359H161.469V201.156H171.047ZM161.531 214.031V209.359H163V212.812H171.469V214.031H161.531ZM178.484 204.828C178.484 206.984 179.805 209.266 181.891 210.266L181.047 211.391C179.523 210.672 178.375 209.211 177.781 207.5C177.164 209.352 175.945 210.898 174.344 211.641L173.516 210.5C175.648 209.523 177.023 207.133 177.031 204.828V203.906H173.938V202.719H177.016V200.609H178.516V202.719H181.562V203.906H178.484V204.828ZM183.109 214.328V200.328H184.594V205.969H186.844V207.219H184.594V214.328H183.109ZM198.703 201.156V202.266C198.711 203.453 198.711 204.836 198.352 206.688H200.328V207.906H187.516V206.688H196.859C197.227 204.867 197.234 203.539 197.234 202.359H189.125V201.156H198.703ZM189.188 214.031V209.359H190.656V212.812H199.125V214.031H189.188ZM216.406 200.297V205.734H218.328V206.984H216.406V214.328H214.922V200.297H216.406ZM205.625 210.734V201.766H209.219V202.984H207.109V209.492C207.781 209.461 208.523 209.391 209.344 209.219L209.469 210.453C208.203 210.711 207.195 210.734 206.266 210.734H205.625ZM210 210.734V201.766H213.734V202.984H211.453V209.5C212.484 209.484 213.258 209.406 214.109 209.188L214.234 210.422C213.109 210.703 212.188 210.734 210.688 210.734H210ZM229.984 200.328V205.797H232.234V207.047H229.984V214.359H228.516V200.328H229.984ZM219.625 202.797V201.594H226.031V206.734H221.125V209.766C223.523 209.758 225.312 209.672 227.359 209.297L227.5 210.5C225.312 210.906 223.422 211 220.797 211.016H219.656V205.531H224.562V202.797H219.625ZM239.828 202.641V203.844H232.875V202.641H235.625V200.734H237.094V202.641H239.828ZM233.328 207.906C233.32 206.023 234.602 204.688 236.359 204.688C238.133 204.688 239.398 206.023 239.406 207.906C239.398 209.82 238.133 211.164 236.359 211.156C234.602 211.164 233.32 209.82 233.328 207.906ZM234.641 207.906C234.633 209.094 235.352 209.891 236.359 209.891C237.367 209.891 238.094 209.094 238.094 207.906C238.094 206.742 237.367 205.93 236.359 205.922C235.352 205.93 234.633 206.742 234.641 207.906ZM240.469 213.672V200.641H241.875V206.156H243.484V200.328H244.891V214.328H243.484V207.375H241.875V213.672H240.469ZM259.547 211.359V212.594H246.734V211.359H252.375V208.484H248.203V201.281H249.688V203.688H256.562V201.281H258.031V208.484H253.844V211.359H259.547ZM249.688 207.281H256.562V204.891H249.688V207.281ZM264.828 204.156C264.828 206.391 265.766 208.773 267.641 209.922L266.812 211.062C265.5 210.273 264.617 208.875 264.133 207.258C263.625 209.031 262.656 210.547 261.297 211.375L260.375 210.266C262.352 209.078 263.398 206.602 263.391 204.219V201.609H264.828V204.156ZM266.125 206.484V205.25H268.297V200.594H269.703V213.641H268.297V206.484H266.125ZM271.188 214.328V200.328H272.609V214.328H271.188ZM287.203 211.344V212.578H274.391V211.344H277.453V207.688C276.305 207.055 275.602 206.055 275.609 204.797C275.602 202.594 277.766 201.148 280.766 201.141C283.773 201.148 285.938 202.594 285.938 204.797C285.938 206.031 285.266 207.023 284.141 207.656V211.344H287.203ZM277.047 204.797C277.047 206.297 278.57 207.273 280.766 207.281C282.945 207.273 284.492 206.297 284.5 204.797C284.492 203.289 282.945 202.328 280.766 202.328C278.57 202.328 277.047 203.289 277.047 204.797ZM278.922 211.344H282.641V208.234C282.07 208.367 281.438 208.438 280.766 208.438C280.109 208.438 279.484 208.367 278.922 208.234V211.344ZM289.812 213.109C289.203 213.102 288.695 212.609 288.703 212C288.695 211.391 289.203 210.891 289.812 210.891C290.414 210.891 290.914 211.391 290.922 212C290.914 212.609 290.414 213.102 289.812 213.109Z" fill="#40587C"/>
<path d="M132.594 91.9688C132.594 96.1719 133.859 100.469 138.062 102.656L135.594 105.938C133.109 104.703 131.484 102.594 130.5 100.016C129.516 102.844 127.891 105.219 125.375 106.625L122.844 103.25C127.016 100.875 128.328 96.3125 128.344 91.9688V91.6562H123.875V88.0312H128.344V84.2812H132.562V88.0312H137V91.6562H132.594V91.9688ZM138.094 110.719V83.6875H142.344V94.1875H144.312V83.3125H148.625V112H144.312V97.8125H142.344V110.719H138.094ZM177.281 96.7188V100.312H151.125V96.7188H156.812V93.4531C154.797 92.5156 153.641 91.0938 153.656 89.2812C153.641 85.8125 157.781 83.7031 164.188 83.6875C170.562 83.7031 174.703 85.8125 174.719 89.2812C174.703 91.1406 173.516 92.5781 171.406 93.5156V96.7188H177.281ZM154.062 106.75C154.062 103.406 157.844 101.562 164.156 101.562C170.359 101.562 174.156 103.406 174.156 106.75C174.156 110.141 170.359 111.969 164.156 111.969C157.844 111.969 154.062 110.141 154.062 106.75ZM158.344 89.2812C158.312 90.7188 160.359 91.375 164.188 91.375C167.984 91.375 170.062 90.7188 170.062 89.2812C170.062 87.8438 167.984 87.1406 164.188 87.1562C160.359 87.1406 158.312 87.8438 158.344 89.2812ZM158.656 106.75C158.625 108.031 160.391 108.641 164.156 108.625C167.828 108.641 169.641 108.031 169.656 106.75C169.641 105.484 167.828 104.953 164.156 104.938C160.391 104.953 158.625 105.484 158.656 106.75ZM161.375 96.7188H166.906V94.6094C166.062 94.7031 165.141 94.75 164.188 94.75C163.188 94.75 162.25 94.7031 161.375 94.6094V96.7188ZM191.688 101.094C197.984 101.094 201.938 103.094 201.969 106.562C201.938 109.984 197.984 112.031 191.688 112C185.438 112.031 181.406 109.984 181.406 106.562C181.406 103.094 185.438 101.094 191.688 101.094ZM178.875 99.5625V95.9375H188.281V91.0625H192.719V95.9375H204.875V99.5625H178.875ZM181.75 88.0625V84.5625H201.844V86.875C201.859 89.125 201.859 91.625 201.031 94.5625L196.594 94.1562C197.203 91.7344 197.312 89.8906 197.328 88.0625H181.75ZM185.906 106.562C185.891 107.984 187.938 108.609 191.688 108.625C195.422 108.609 197.5 107.984 197.5 106.562C197.5 105.125 195.422 104.422 191.688 104.438C187.938 104.422 185.891 105.125 185.906 106.562ZM230.25 85.6562V88.3438C230.25 91.9531 230.25 96.0156 229.094 102.219L224.531 101.75C225.625 96.4844 225.703 92.5156 225.75 89.2188H209.125V85.6562H230.25ZM206.438 108.656V105.031H215.531V95.2812H220V105.031H232.594V108.656H206.438ZM255.906 85.625V99.5625H242V85.625H255.906ZM245.281 111.531V102.125H249.781V107.938H265.031V111.531H245.281ZM246.438 96.0625H251.469V89.1875H246.438V96.0625ZM259.594 104.219V83.3438H264.094V91.4375H267.812V95.125H264.094V104.219H259.594ZM295.125 94.25V97.75H268.906V94.25H295.125ZM271.875 111.781V103.75H287.469V102.531H271.875V99.1562H291.938V106.906H276.312V108.312H292.625V111.781H271.875ZM272.094 92.9062V83.7812H291.812V87.3438H276.594V89.4062H292V92.9062H272.094ZM320.781 83.3125V112H316.219V83.3125H320.781ZM296.562 103.656C303.859 100.219 306.922 95.9688 307.562 89.7812H298.188V86.2812H312.156C312.141 95.125 309.344 102.328 298.906 107.219L296.562 103.656Z" fill="#2B3C56"/>
<line x1="124.219" y1="121.5" x2="322.219" y2="121.5" stroke="#468EFF" stroke-width="3" stroke-linecap="round"/>
</g>
<defs>
<filter id="filter0_d_344_1718" x="202.759" y="300.345" width="103.469" height="77.189" filterUnits="userSpaceOnUse" color-interpolation-filters="sRGB">
<feFlood flood-opacity="0" result="BackgroundImageFix"/>
<feColorMatrix in="SourceAlpha" type="matrix" values="0 0 0 0 0 0 0 0 0 0 0 0 0 0 0 0 0 0 127 0" result="hardAlpha"/>
<feOffset dy="0.982053"/>
<feGaussianBlur stdDeviation="0.982053"/>
<feComposite in2="hardAlpha" operator="out"/>
<feColorMatrix type="matrix" values="0 0 0 0 0.792157 0 0 0 0 0.858824 0 0 0 0 0.964706 0 0 0 0.6 0"/>
<feBlend mode="normal" in2="BackgroundImageFix" result="effect1_dropShadow_344_1718"/>
<feBlend mode="normal" in="SourceGraphic" in2="effect1_dropShadow_344_1718" result="shape"/>
</filter>
<filter id="filter1_d_344_1718" x="207.304" y="301.327" width="99.9021" height="24.8232" filterUnits="userSpaceOnUse" color-interpolation-filters="sRGB">
<feFlood flood-opacity="0" result="BackgroundImageFix"/>
<feColorMatrix in="SourceAlpha" type="matrix" values="0 0 0 0 0 0 0 0 0 0 0 0 0 0 0 0 0 0 127 0" result="hardAlpha"/>
<feOffset dy="4.1729"/>
<feGaussianBlur stdDeviation="1.47308"/>
<feComposite in2="hardAlpha" operator="out"/>
<feColorMatrix type="matrix" values="0 0 0 0 0.788235 0 0 0 0 0.878431 0 0 0 0 1 0 0 0 0.6 0"/>
<feBlend mode="multiply" in2="BackgroundImageFix" result="effect1_dropShadow_344_1718"/>
<feBlend mode="normal" in="SourceGraphic" in2="effect1_dropShadow_344_1718" result="shape"/>
</filter>
<filter id="filter2_f_344_1718" x="204.44" y="303.057" width="106.543" height="22.8507" filterUnits="userSpaceOnUse" color-interpolation-filters="sRGB">
<feFlood flood-opacity="0" result="BackgroundImageFix"/>
<feBlend mode="normal" in="SourceGraphic" in2="BackgroundImageFix" result="shape"/>
<feGaussianBlur stdDeviation="2.08645" result="effect1_foregroundBlur_344_1718"/>
</filter>
<filter id="filter3_d_344_1718" x="205.478" y="321.21" width="99.9021" height="24.8232" filterUnits="userSpaceOnUse" color-interpolation-filters="sRGB">
<feFlood flood-opacity="0" result="BackgroundImageFix"/>
<feColorMatrix in="SourceAlpha" type="matrix" values="0 0 0 0 0 0 0 0 0 0 0 0 0 0 0 0 0 0 127 0" result="hardAlpha"/>
<feOffset dy="4.1729"/>
<feGaussianBlur stdDeviation="1.47308"/>
<feComposite in2="hardAlpha" operator="out"/>
<feColorMatrix type="matrix" values="0 0 0 0 0.788235 0 0 0 0 0.878431 0 0 0 0 1 0 0 0 0.6 0"/>
<feBlend mode="multiply" in2="BackgroundImageFix" result="effect1_dropShadow_344_1718"/>
<feBlend mode="normal" in="SourceGraphic" in2="effect1_dropShadow_344_1718" result="shape"/>
</filter>
<filter id="filter4_f_344_1718" x="202.606" y="322.936" width="106.543" height="22.8507" filterUnits="userSpaceOnUse" color-interpolation-filters="sRGB">
<feFlood flood-opacity="0" result="BackgroundImageFix"/>
<feBlend mode="normal" in="SourceGraphic" in2="BackgroundImageFix" result="shape"/>
<feGaussianBlur stdDeviation="2.08645" result="effect1_foregroundBlur_344_1718"/>
</filter>
<filter id="filter5_d_344_1718" x="203.624" y="341.092" width="99.9021" height="24.8232" filterUnits="userSpaceOnUse" color-interpolation-filters="sRGB">
<feFlood flood-opacity="0" result="BackgroundImageFix"/>
<feColorMatrix in="SourceAlpha" type="matrix" values="0 0 0 0 0 0 0 0 0 0 0 0 0 0 0 0 0 0 127 0" result="hardAlpha"/>
<feOffset dy="4.1729"/>
<feGaussianBlur stdDeviation="1.47308"/>
<feComposite in2="hardAlpha" operator="out"/>
<feColorMatrix type="matrix" values="0 0 0 0 0.788235 0 0 0 0 0.878431 0 0 0 0 1 0 0 0 0.6 0"/>
<feBlend mode="multiply" in2="BackgroundImageFix" result="effect1_dropShadow_344_1718"/>
<feBlend mode="normal" in="SourceGraphic" in2="effect1_dropShadow_344_1718" result="shape"/>
</filter>
<filter id="filter6_f_344_1718" x="200.829" y="342.82" width="106.543" height="22.8507" filterUnits="userSpaceOnUse" color-interpolation-filters="sRGB">
<feFlood flood-opacity="0" result="BackgroundImageFix"/>
<feBlend mode="normal" in="SourceGraphic" in2="BackgroundImageFix" result="shape"/>
<feGaussianBlur stdDeviation="2.08645" result="effect1_foregroundBlur_344_1718"/>
</filter>
<filter id="filter7_d_344_1718" x="201.794" y="360.977" width="55.3923" height="20.7099" filterUnits="userSpaceOnUse" color-interpolation-filters="sRGB">
<feFlood flood-opacity="0" result="BackgroundImageFix"/>
<feColorMatrix in="SourceAlpha" type="matrix" values="0 0 0 0 0 0 0 0 0 0 0 0 0 0 0 0 0 0 127 0" result="hardAlpha"/>
<feOffset dy="4.1729"/>
<feGaussianBlur stdDeviation="1.47308"/>
<feComposite in2="hardAlpha" operator="out"/>
<feColorMatrix type="matrix" values="0 0 0 0 0.788235 0 0 0 0 0.878431 0 0 0 0 1 0 0 0 0.6 0"/>
<feBlend mode="multiply" in2="BackgroundImageFix" result="effect1_dropShadow_344_1718"/>
<feBlend mode="normal" in="SourceGraphic" in2="effect1_dropShadow_344_1718" result="shape"/>
</filter>
<filter id="filter8_f_344_1718" x="198.909" y="362.698" width="106.543" height="22.8507" filterUnits="userSpaceOnUse" color-interpolation-filters="sRGB">
<feFlood flood-opacity="0" result="BackgroundImageFix"/>
<feBlend mode="normal" in="SourceGraphic" in2="BackgroundImageFix" result="shape"/>
<feGaussianBlur stdDeviation="2.08645" result="effect1_foregroundBlur_344_1718"/>
</filter>
<filter id="filter9_f_344_1718" x="128.869" y="267.955" width="131.77" height="131.771" filterUnits="userSpaceOnUse" color-interpolation-filters="sRGB">
<feFlood flood-opacity="0" result="BackgroundImageFix"/>
<feBlend mode="normal" in="SourceGraphic" in2="BackgroundImageFix" result="shape"/>
<feGaussianBlur stdDeviation="11.5235" result="effect1_foregroundBlur_344_1718"/>
</filter>
<filter id="filter10_f_344_1718" x="54.6711" y="202.531" width="182.82" height="182.822" filterUnits="userSpaceOnUse" color-interpolation-filters="sRGB">
<feFlood flood-opacity="0" result="BackgroundImageFix"/>
<feBlend mode="normal" in="SourceGraphic" in2="BackgroundImageFix" result="shape"/>
<feGaussianBlur stdDeviation="26.8881" result="effect1_foregroundBlur_344_1718"/>
</filter>
<filter id="filter11_d_344_1718" x="139.6" y="302.312" width="68.4195" height="60.0494" filterUnits="userSpaceOnUse" color-interpolation-filters="sRGB">
<feFlood flood-opacity="0" result="BackgroundImageFix"/>
<feColorMatrix in="SourceAlpha" type="matrix" values="0 0 0 0 0 0 0 0 0 0 0 0 0 0 0 0 0 0 127 0" result="hardAlpha"/>
<feOffset dy="9.15693"/>
<feGaussianBlur stdDeviation="6.73037"/>
<feComposite in2="hardAlpha" operator="out"/>
<feColorMatrix type="matrix" values="0 0 0 0 0.411765 0 0 0 0 0.658824 0 0 0 0 1 0 0 0 1 0"/>
<feBlend mode="multiply" in2="BackgroundImageFix" result="effect1_dropShadow_344_1718"/>
<feBlend mode="normal" in="SourceGraphic" in2="effect1_dropShadow_344_1718" result="shape"/>
</filter>
<filter id="filter12_f_344_1718" x="243.26" y="355.535" width="91.847" height="94.1078" filterUnits="userSpaceOnUse" color-interpolation-filters="sRGB">
<feFlood flood-opacity="0" result="BackgroundImageFix"/>
<feBlend mode="normal" in="SourceGraphic" in2="BackgroundImageFix" result="shape"/>
<feGaussianBlur stdDeviation="11.8914" result="effect1_foregroundBlur_344_1718"/>
</filter>
<linearGradient id="paint0_linear_344_1718" x1="89.0231" y1="50.4175" x2="1.29875" y2="12.1156" gradientUnits="userSpaceOnUse">
<stop offset="0.164383" stop-color="#BBD8FF"/>
<stop offset="1" stop-color="#E5F0FF"/>
</linearGradient>
<linearGradient id="paint1_linear_344_1718" x1="147.558" y1="155.897" x2="0.498591" y2="31.5821" gradientUnits="userSpaceOnUse">
<stop offset="0.276007" stop-color="#D4E6FF"/>
<stop offset="1" stop-color="#F3F8FF"/>
<stop offset="1" stop-color="#DCF4FF"/>
</linearGradient>
<linearGradient id="paint2_linear_344_1718" x1="118.517" y1="162.645" x2="-0.00290532" y2="-8.02082" gradientUnits="userSpaceOnUse">
<stop stop-color="#DFEBFE"/>
<stop offset="1" stop-color="#F3F8FF"/>
<stop offset="1" stop-color="#F3F8FF"/>
</linearGradient>
<linearGradient id="paint3_linear_344_1718" x1="213.919" y1="397.534" x2="151.916" y2="291.002" gradientUnits="userSpaceOnUse">
<stop offset="0.348958" stop-color="#86BAFF"/>
<stop offset="1" stop-color="#86BAFF" stop-opacity="0.4"/>
</linearGradient>
<linearGradient id="paint4_linear_344_1718" x1="188.332" y1="365.257" x2="131.002" y2="279.58" gradientUnits="userSpaceOnUse">
<stop offset="0.306345" stop-color="#85B9FF"/>
<stop offset="1" stop-color="#86BAFF" stop-opacity="0.4"/>
</linearGradient>
<linearGradient id="paint5_linear_344_1718" x1="188.341" y1="365.256" x2="131.012" y2="279.579" gradientUnits="userSpaceOnUse">
<stop offset="0.306345" stop-color="#85B9FF"/>
<stop offset="1" stop-color="#86BAFF" stop-opacity="0.4"/>
</linearGradient>
<linearGradient id="paint6_linear_344_1718" x1="373.625" y1="332.941" x2="362.134" y2="330.895" gradientUnits="userSpaceOnUse">
<stop stop-color="#5D9DF3"/>
<stop offset="1" stop-color="#B3D3FD"/>
</linearGradient>
<linearGradient id="paint7_linear_344_1718" x1="279.38" y1="389.06" x2="286.014" y2="400.507" gradientUnits="userSpaceOnUse">
<stop stop-color="#B3D3FD"/>
<stop offset="0.723958" stop-color="#5D9DF3"/>
</linearGradient>
<linearGradient id="paint8_linear_344_1718" x1="366.95" y1="389.06" x2="353.627" y2="388.636" gradientUnits="userSpaceOnUse">
</linearGradient>
<clipPath id="clip0_344_1718">
<path d="M0.21875 20C0.21875 8.9543 9.17305 0 20.2187 0H426.219C437.264 0 446.219 8.95431 446.219 20V670C446.219 681.046 437.264 690 426.219 690H20.2188C9.17307 690 0.21875 681.046 0.21875 670V20Z" fill="white"/>
</clipPath>
<clipPath id="clip1_344_1718">
</clipPath>
<clipPath id="clip2_344_1718">
<rect width="67.576" height="67.576" fill="white" transform="translate(140.023 288.6)"/>
</clipPath>
</defs>
</svg>
