<svg width="447" height="690" viewBox="0 0 447 690" fill="none" xmlns="http://www.w3.org/2000/svg">
<g clip-path="url(#clip0_344_1718)">
<path d="M0.21875 20C0.21875 8.9543 9.17305 0 20.2187 0H426.219C437.264 0 446.219 8.95431 446.219 20V670C446.219 681.046 437.264 690 426.219 690H20.2188C9.17307 690 0.21875 681.046 0.21875 670V20Z" fill="white"/>
<g clip-path="url(#clip1_344_1718)">
<rect x="0.122915" y="0.064655" width="90.5348" height="120.24" rx="4.81206" transform="matrix(0.954993 -0.296629 0.296621 0.954995 121.289 341.932)" fill="url(#paint0_linear_344_1718)" stroke="#D8E9FF" stroke-width="0.196411"/>
<rect x="-0.188561" y="-0.226959" width="122.946" height="163.062" rx="5.11891" transform="matrix(0.995757 0.092019 -0.0920156 0.995758 198.635 271.9)" fill="url(#paint1_linear_344_1718)" stroke="#CFE4FF" stroke-width="0.41729"/>
<g filter="url(#filter0_d_344_1718)">
<g filter="url(#filter1_d_344_1718)">
<rect width="94.3678" height="9.93363" rx="4.96682" transform="matrix(0.995757 0.092019 -0.0920156 0.995758 210.729 300.892)" fill="white"/>
</g>
<mask id="mask0_344_1718" style="mask-type:alpha" maskUnits="userSpaceOnUse" x="210" y="301" width="95" height="19">
<rect width="94.3678" height="9.93363" rx="4.96682" transform="matrix(0.995757 0.092019 -0.0920156 0.995758 210.732 300.896)" fill="white"/>
</mask>
<g mask="url(#mask0_344_1718)">
<g filter="url(#filter2_f_344_1718)">
<rect width="98.0479" height="5.98243" transform="matrix(0.996195 0.0871573 -0.0871542 0.996195 209.135 307.229)" fill="#E3EFFF"/>
</g>
</g>
<g filter="url(#filter3_d_344_1718)">
<rect width="94.3678" height="9.93363" rx="4.96682" transform="matrix(0.995757 0.092019 -0.0920156 0.995758 208.902 320.774)" fill="white"/>
</g>
<mask id="mask1_344_1718" style="mask-type:alpha" maskUnits="userSpaceOnUse" x="208" y="321" width="95" height="18">
<rect width="94.3678" height="9.93363" rx="4.96682" transform="matrix(0.995757 0.092019 -0.0920156 0.995758 208.898 320.774)" fill="white"/>
</mask>
<g mask="url(#mask1_344_1718)">
<g filter="url(#filter4_f_344_1718)">
<rect width="98.0479" height="5.98243" transform="matrix(0.996195 0.0871573 -0.0871542 0.996195 207.301 327.108)" fill="#E3EFFF" fill-opacity="0.9"/>
</g>
</g>
<g filter="url(#filter5_d_344_1718)">
<rect width="94.3678" height="9.93363" rx="4.96682" transform="matrix(0.995757 0.0920189 -0.0920157 0.995758 207.049 340.656)" fill="white"/>
</g>
<mask id="mask2_344_1718" style="mask-type:alpha" maskUnits="userSpaceOnUse" x="206" y="341" width="95" height="18">
<rect width="94.3678" height="9.93363" rx="4.96682" transform="matrix(0.995757 0.092019 -0.0920156 0.995758 207.121 340.658)" fill="white"/>
</mask>
<g mask="url(#mask2_344_1718)">
<g filter="url(#filter6_f_344_1718)">
<rect width="98.0479" height="5.98243" transform="matrix(0.996195 0.0871573 -0.0871542 0.996195 205.523 346.993)" fill="#E3EFFF" fill-opacity="0.9"/>
</g>
</g>
<g filter="url(#filter7_d_344_1718)">
<rect width="49.6673" height="9.93363" rx="4.96682" transform="matrix(0.995757 0.0920189 -0.0920157 0.995758 205.219 360.541)" fill="white"/>
</g>
<mask id="mask3_344_1718" style="mask-type:alpha" maskUnits="userSpaceOnUse" x="204" y="360" width="51" height="15">
<rect width="49.9048" height="9.93363" rx="4.96682" transform="matrix(0.995757 0.092019 -0.0920156 0.995758 205.201 360.54)" fill="white"/>
</mask>
<g mask="url(#mask3_344_1718)">
<g filter="url(#filter8_f_344_1718)">
<rect width="98.0479" height="5.98243" transform="matrix(0.996195 0.0871573 -0.0871542 0.996195 203.604 366.871)" fill="#E3EFFF" fill-opacity="0.9"/>
</g>
</g>
</g>
<mask id="mask4_344_1718" style="mask-type:alpha" maskUnits="userSpaceOnUse" x="184" y="272" width="137" height="173">
<mask id="path-25-inside-1_344_1718" fill="white">
<rect width="122.528" height="162.645" rx="4.91026" transform="matrix(0.995757 0.092019 -0.0920156 0.995758 198.674 271.887)"/>
</mask>
<rect width="122.528" height="162.645" rx="4.91026" transform="matrix(0.995757 0.092019 -0.0920156 0.995758 198.674 271.887)" fill="url(#paint2_linear_344_1718)" stroke="#DAE7FF" stroke-width="10.105" mask="url(#path-25-inside-1_344_1718)"/>
<rect width="91.1669" height="2.18805" rx="1.09402" transform="matrix(0.995757 0.092019 -0.0920156 0.995758 212.621 295.148)" fill="white"/>
<rect width="91.1669" height="2.18805" rx="1.09402" transform="matrix(0.995757 0.092019 -0.0920156 0.995758 211.078 311.853)" fill="white"/>
<rect width="91.1669" height="2.18805" rx="1.09402" transform="matrix(0.995757 0.0920189 -0.0920157 0.995758 209.547 328.558)" fill="white"/>
<rect width="91.1669" height="2.18805" rx="1.09402" transform="matrix(0.995757 0.0920189 -0.0920157 0.995758 207.996 345.261)" fill="white"/>
<rect width="58.3468" height="2.18804" rx="1.09402" transform="matrix(0.995757 0.0920189 -0.0920157 0.995758 201.82 412.075)" fill="white"/>
</mask>
<g mask="url(#mask4_344_1718)">
<g opacity="0.5" filter="url(#filter9_f_344_1718)">
<ellipse cx="194.754" cy="333.84" rx="42.8383" ry="42.8383" fill="url(#paint3_linear_344_1718)"/>
</g>
</g>
<ellipse cx="175.838" cy="324.943" rx="42.8383" ry="42.8383" fill="#5D9DF3"/>
<ellipse cx="173.84" cy="322.418" rx="42.8383" ry="42.8383" fill="url(#paint4_linear_344_1718)"/>
<mask id="mask5_344_1718" style="mask-type:alpha" maskUnits="userSpaceOnUse" x="131" y="279" width="86" height="87">
<ellipse cx="173.85" cy="322.417" rx="42.8383" ry="42.8383" fill="url(#paint5_linear_344_1718)"/>
<path d="M166.852 338.314L154.905 326.367C153.806 325.267 153.806 323.484 154.905 322.385V322.385C156.005 321.285 157.787 321.285 158.887 322.384L166.856 330.344L166.852 330.348L188.752 308.448C189.851 307.348 191.634 307.348 192.733 308.448V308.448C193.833 309.547 193.833 311.33 192.733 312.429L170.833 334.332L166.854 338.311L166.852 338.314Z" fill="white"/>
</mask>
<g mask="url(#mask5_344_1718)">
<g filter="url(#filter10_f_344_1718)">
<ellipse cx="146.081" cy="293.942" rx="37.634" ry="37.6347" fill="white"/>
</g>
</g>
<g clip-path="url(#clip2_344_1718)">
<g filter="url(#filter11_d_344_1718)">
<path d="M166.842 338.316L154.896 326.37C153.796 325.27 153.796 323.487 154.896 322.388V322.388C155.995 321.288 157.777 321.288 158.877 322.387L166.846 330.347L166.842 330.351L188.742 308.451C189.842 307.351 191.624 307.351 192.724 308.451V308.451C193.823 309.55 193.823 311.333 192.724 312.432L170.823 334.335L166.845 338.314L166.842 338.316Z" fill="white"/>
<path d="M166.485 338.673L166.842 339.03L167.199 338.673L167.202 338.671L167.202 338.671L171.18 334.692L171.18 334.692L193.081 312.789C194.377 311.492 194.377 309.39 193.08 308.094C191.784 306.797 189.682 306.797 188.385 308.094L166.846 329.633L159.234 322.029C157.937 320.734 155.835 320.734 154.539 322.031C153.242 323.328 153.242 325.43 154.539 326.727L166.485 338.673Z" stroke="white" stroke-width="1.00956"/>
</g>
</g>
</g>
<rect x="360.24" y="323.273" width="17.2085" height="15.0574" rx="4.75658" transform="rotate(52.6429 360.24 323.273)" fill="url(#paint6_linear_344_1718)"/>
<path d="M275.491 401.5C273.527 401.92 271.958 399.866 272.882 398.081L277.862 388.455C278.664 386.906 280.806 386.718 281.865 388.105L287.483 395.464C288.541 396.851 287.796 398.868 286.09 399.233L275.491 401.5Z" fill="url(#paint7_linear_344_1718)"/>
<rect x="351.893" y="328.293" width="19.3595" height="94.6465" rx="4.75658" transform="rotate(52.6429 351.893 328.293)" fill="url(#paint8_linear_344_1718)"/>
<g style="mix-blend-mode:multiply" filter="url(#filter12_f_344_1718)">
<path fill-rule="evenodd" clip-rule="evenodd" d="M311.324 379.318L274.876 407.141C273.381 408.282 272.751 410.137 273.099 411.864C272.774 412.078 272.494 412.378 272.295 412.761L267.315 422.387C266.391 424.171 267.96 426.225 269.924 425.805L280.523 423.538C280.945 423.448 281.308 423.257 281.6 422.999C283.174 423.79 285.129 423.67 286.623 422.529L308.902 405.523L311.324 379.318Z" fill="#A8C3F1"/>
</g>
<circle cx="366.796" cy="284.612" r="4.75658" fill="#A4C7FC"/>
<circle cx="77.698" cy="441.882" r="4.75658" fill="#468EFF"/>
<circle cx="374.249" cy="298.716" r="3.56743" fill="#468EFF"/>
<circle cx="88.6514" cy="430.539" r="3.56743" fill="#A4C7FC"/>
<circle cx="95.671" cy="301.261" r="3.56743" fill="#468EFF"/>
<path d="M132.594 91.9688C132.594 96.1719 133.859 100.469 138.062 102.656L135.594 105.938C133.109 104.703 131.484 102.594 130.5 100.016C129.516 102.844 127.891 105.219 125.375 106.625L122.844 103.25C127.016 100.875 128.328 96.3125 128.344 91.9688V91.6562H123.875V88.0312H128.344V84.2812H132.562V88.0312H137V91.6562H132.594V91.9688ZM138.094 110.719V83.6875H142.344V94.1875H144.312V83.3125H148.625V112H144.312V97.8125H142.344V110.719H138.094ZM177.281 96.7188V100.312H151.125V96.7188H156.812V93.4531C154.797 92.5156 153.641 91.0938 153.656 89.2812C153.641 85.8125 157.781 83.7031 164.188 83.6875C170.562 83.7031 174.703 85.8125 174.719 89.2812C174.703 91.1406 173.516 92.5781 171.406 93.5156V96.7188H177.281ZM154.062 106.75C154.062 103.406 157.844 101.562 164.156 101.562C170.359 101.562 174.156 103.406 174.156 106.75C174.156 110.141 170.359 111.969 164.156 111.969C157.844 111.969 154.062 110.141 154.062 106.75ZM158.344 89.2812C158.312 90.7188 160.359 91.375 164.188 91.375C167.984 91.375 170.062 90.7188 170.062 89.2812C170.062 87.8438 167.984 87.1406 164.188 87.1562C160.359 87.1406 158.312 87.8438 158.344 89.2812ZM158.656 106.75C158.625 108.031 160.391 108.641 164.156 108.625C167.828 108.641 169.641 108.031 169.656 106.75C169.641 105.484 167.828 104.953 164.156 104.938C160.391 104.953 158.625 105.484 158.656 106.75ZM161.375 96.7188H166.906V94.6094C166.062 94.7031 165.141 94.75 164.188 94.75C163.188 94.75 162.25 94.7031 161.375 94.6094V96.7188ZM191.688 101.094C197.984 101.094 201.938 103.094 201.969 106.562C201.938 109.984 197.984 112.031 191.688 112C185.438 112.031 181.406 109.984 181.406 106.562C181.406 103.094 185.438 101.094 191.688 101.094ZM178.875 99.5625V95.9375H188.281V91.0625H192.719V95.9375H204.875V99.5625H178.875ZM181.75 88.0625V84.5625H201.844V86.875C201.859 89.125 201.859 91.625 201.031 94.5625L196.594 94.1562C197.203 91.7344 197.312 89.8906 197.328 88.0625H181.75ZM185.906 106.562C185.891 107.984 187.938 108.609 191.688 108.625C195.422 108.609 197.5 107.984 197.5 106.562C197.5 105.125 195.422 104.422 191.688 104.438C187.938 104.422 185.891 105.125 185.906 106.562ZM230.25 85.6562V88.3438C230.25 91.9531 230.25 96.0156 229.094 102.219L224.531 101.75C225.625 96.4844 225.703 92.5156 225.75 89.2188H209.125V85.6562H230.25ZM206.438 108.656V105.031H215.531V95.2812H220V105.031H232.594V108.656H206.438ZM255.906 85.625V99.5625H242V85.625H255.906ZM245.281 111.531V102.125H249.781V107.938H265.031V111.531H245.281ZM246.438 96.0625H251.469V89.1875H246.438V96.0625ZM259.594 104.219V83.3438H264.094V91.4375H267.812V95.125H264.094V104.219H259.594ZM295.125 94.25V97.75H268.906V94.25H295.125ZM271.875 111.781V103.75H287.469V102.531H271.875V99.1562H291.938V106.906H276.312V108.312H292.625V111.781H271.875ZM272.094 92.9062V83.7812H291.812V87.3438H276.594V89.4062H292V92.9062H272.094ZM320.781 83.3125V112H316.219V83.3125H320.781ZM296.562 103.656C303.859 100.219 306.922 95.9688 307.562 89.7812H298.188V86.2812H312.156C312.141 95.125 309.344 102.328 298.906 107.219L296.562 103.656Z" fill="#2B3C56"/>
<line x1="124.219" y1="121.5" x2="322.219" y2="121.5" stroke="#468EFF" stroke-width="3" stroke-linecap="round"/>
</g>
<defs>
<filter id="filter0_d_344_1718" x="202.759" y="300.345" width="103.469" height="77.189" filterUnits="userSpaceOnUse" color-interpolation-filters="sRGB">
<feFlood flood-opacity="0" result="BackgroundImageFix"/>
<feColorMatrix in="SourceAlpha" type="matrix" values="0 0 0 0 0 0 0 0 0 0 0 0 0 0 0 0 0 0 127 0" result="hardAlpha"/>
<feOffset dy="0.982053"/>
<feGaussianBlur stdDeviation="0.982053"/>
<feComposite in2="hardAlpha" operator="out"/>
<feColorMatrix type="matrix" values="0 0 0 0 0.792157 0 0 0 0 0.858824 0 0 0 0 0.964706 0 0 0 0.6 0"/>
<feBlend mode="normal" in2="BackgroundImageFix" result="effect1_dropShadow_344_1718"/>
<feBlend mode="normal" in="SourceGraphic" in2="effect1_dropShadow_344_1718" result="shape"/>
</filter>
<filter id="filter1_d_344_1718" x="207.304" y="301.327" width="99.9021" height="24.8232" filterUnits="userSpaceOnUse" color-interpolation-filters="sRGB">
<feFlood flood-opacity="0" result="BackgroundImageFix"/>
<feColorMatrix in="SourceAlpha" type="matrix" values="0 0 0 0 0 0 0 0 0 0 0 0 0 0 0 0 0 0 127 0" result="hardAlpha"/>
<feOffset dy="4.1729"/>
<feGaussianBlur stdDeviation="1.47308"/>
<feComposite in2="hardAlpha" operator="out"/>
<feColorMatrix type="matrix" values="0 0 0 0 0.788235 0 0 0 0 0.878431 0 0 0 0 1 0 0 0 0.6 0"/>
<feBlend mode="multiply" in2="BackgroundImageFix" result="effect1_dropShadow_344_1718"/>
<feBlend mode="normal" in="SourceGraphic" in2="effect1_dropShadow_344_1718" result="shape"/>
</filter>
<filter id="filter2_f_344_1718" x="204.44" y="303.057" width="106.543" height="22.8507" filterUnits="userSpaceOnUse" color-interpolation-filters="sRGB">
<feFlood flood-opacity="0" result="BackgroundImageFix"/>
<feBlend mode="normal" in="SourceGraphic" in2="BackgroundImageFix" result="shape"/>
<feGaussianBlur stdDeviation="2.08645" result="effect1_foregroundBlur_344_1718"/>
</filter>
<filter id="filter3_d_344_1718" x="205.478" y="321.21" width="99.9021" height="24.8232" filterUnits="userSpaceOnUse" color-interpolation-filters="sRGB">
<feFlood flood-opacity="0" result="BackgroundImageFix"/>
<feColorMatrix in="SourceAlpha" type="matrix" values="0 0 0 0 0 0 0 0 0 0 0 0 0 0 0 0 0 0 127 0" result="hardAlpha"/>
<feGaussianBlur stdDeviation="26.8881" result="effect1_foregroundBlur_344_1718"/>
</filter>
<filter id="filter11_d_344_1718" x="139.6" y="302.312" width="68.4195" height="60.0494" filterUnits="userSpaceOnUse" color-interpolation-filters="sRGB">
<feFlood flood-opacity="0" result="BackgroundImageFix"/>
<feColorMatrix in="SourceAlpha" type="matrix" values="0 0 0 0 0 0 0 0 0 0 0 0 0 0 0 0 0 0 127 0" result="hardAlpha"/>
<feOffset dy="9.15693"/>
<feGaussianBlur stdDeviation="6.73037"/>
<feComposite in2="hardAlpha" operator="out"/>
<feColorMatrix type="matrix" values="0 0 0 0 0.411765 0 0 0 0 0.658824 0 0 0 0 1 0 0 0 1 0"/>
<feBlend mode="multiply" in2="BackgroundImageFix" result="effect1_dropShadow_344_1718"/>
<feBlend mode="normal" in="SourceGraphic" in2="effect1_dropShadow_344_1718" result="shape"/>
</filter>
<filter id="filter12_f_344_1718" x="243.26" y="355.535" width="91.847" height="94.1078" filterUnits="userSpaceOnUse" color-interpolation-filters="sRGB">
<feFlood flood-opacity="0" result="BackgroundImageFix"/>
<feBlend mode="normal" in="SourceGraphic" in2="BackgroundImageFix" result="shape"/>
<feGaussianBlur stdDeviation="11.8914" result="effect1_foregroundBlur_344_1718"/>
</filter>
<linearGradient id="paint0_linear_344_1718" x1="89.0231" y1="50.4175" x2="1.29875" y2="12.1156" gradientUnits="userSpaceOnUse">
<stop offset="0.164383" stop-color="#BBD8FF"/>
<stop offset="1" stop-color="#E5F0FF"/>
</linearGradient>
<linearGradient id="paint1_linear_344_1718" x1="147.558" y1="155.897" x2="0.498591" y2="31.5821" gradientUnits="userSpaceOnUse">
<stop offset="0.276007" stop-color="#D4E6FF"/>
<stop offset="1" stop-color="#F3F8FF"/>
<stop offset="1" stop-color="#DCF4FF"/>
</linearGradient>
<linearGradient id="paint2_linear_344_1718" x1="118.517" y1="162.645" x2="-0.00290532" y2="-8.02082" gradientUnits="userSpaceOnUse">
<stop stop-color="#DFEBFE"/>
<stop offset="1" stop-color="#F3F8FF"/>
<stop offset="1" stop-color="#F3F8FF"/>
</linearGradient>
<linearGradient id="paint3_linear_344_1718" x1="213.919" y1="397.534" x2="151.916" y2="291.002" gradientUnits="userSpaceOnUse">
<stop offset="0.348958" stop-color="#86BAFF"/>
<stop offset="1" stop-color="#86BAFF" stop-opacity="0.4"/>
</linearGradient>
<linearGradient id="paint4_linear_344_1718" x1="188.332" y1="365.257" x2="131.002" y2="279.58" gradientUnits="userSpaceOnUse">
<stop offset="0.306345" stop-color="#85B9FF"/>
<stop offset="1" stop-color="#86BAFF" stop-opacity="0.4"/>
</linearGradient>
<linearGradient id="paint5_linear_344_1718" x1="188.341" y1="365.256" x2="131.012" y2="279.579" gradientUnits="userSpaceOnUse">
<stop offset="0.306345" stop-color="#85B9FF"/>
<stop offset="1" stop-color="#86BAFF" stop-opacity="0.4"/>
</linearGradient>
<linearGradient id="paint6_linear_344_1718" x1="373.625" y1="332.941" x2="362.134" y2="330.895" gradientUnits="userSpaceOnUse">
<stop stop-color="#5D9DF3"/>
<stop offset="1" stop-color="#B3D3FD"/>
</linearGradient>
<linearGradient id="paint7_linear_344_1718" x1="279.38" y1="389.06" x2="286.014" y2="400.507" gradientUnits="userSpaceOnUse">
</linearGradient>
<linearGradient id="paint8_linear_344_1718" x1="366.95" y1="389.06" x2="353.627" y2="388.636" gradientUnits="userSpaceOnUse">
</linearGradient>
<clipPath id="clip0_344_1718">
<path d="M0.21875 20C0.21875 8.9543 9.17305 0 20.2187 0H426.219C437.264 0 446.219 8.95431 446.219 20V670C446.219 681.046 437.264 690 426.219 690H20.2188C9.17307 6900.21875 681.046 0.21875 670V20Z" fill="white"/>
</clipPath>
<clipPath id="clip1_344_1718">
</clipPath>
<clipPath id="clip2_344_1718">
</clipPath>
</defs>
</svg>
