<svg width="78" height="32" viewBox="0 0 78 32" fill="none" xmlns="http://www.w3.org/2000/svg">
<circle cx="16" cy="16" r="15.5" fill="white" stroke="#E3E8F4" stroke-dasharray="2 2"/>
<g clip-path="url(#clip0_665_5994)">
<path d="M15.9113 15.1406C17.283 15.1406 18.382 14.0333 18.382 12.6616C18.382 11.2899 17.283 10.1826 15.9113 10.1826C14.5396 10.1826 13.4323 11.2899 13.4323 12.6616C13.4323 14.0333 14.5396 15.1406 15.9113 15.1406ZM15.9113 16.7933C13.9859 16.7933 10.127 17.7601 10.127 19.6855V20.7513C10.127 21.3036 10.5747 21.7513 11.127 21.7513H20.6956C21.2479 21.7513 21.6956 21.3036 21.6956 20.7513V19.6855C21.6956 17.7601 17.8367 16.7933 15.9113 16.7933Z" fill="#E3E8F4"/>
</g>
<circle cx="39" cy="16" r="15.5" fill="white" stroke="#E3E8F4" stroke-dasharray="2 2"/>
<g clip-path="url(#clip1_665_5994)">
<path d="M38.9113 15.1406C40.283 15.1406 41.382 14.0333 41.382 12.6616C41.382 11.2899 40.283 10.1826 38.9113 10.1826C37.5396 10.1826 36.4323 11.2899 36.4323 12.6616C36.4323 14.0333 37.5396 15.1406 38.9113 15.1406ZM38.9113 16.7933C36.9859 16.7933 33.127 17.7601 33.127 19.6855V20.7513C33.127 21.3036 33.5747 21.7513 34.127 21.7513H43.6956C44.2479 21.7513 44.6956 21.3036 44.6956 20.7513V19.6855C44.6956 17.7601 40.8367 16.7933 38.9113 16.7933Z" fill="#E3E8F4"/>
</g>
<circle cx="62" cy="16" r="15.5" fill="white" stroke="#E3E8F4" stroke-dasharray="2 2"/>
<g clip-path="url(#clip2_665_5994)">
<path d="M61.9113 15.1406C63.283 15.1406 64.382 14.0333 64.382 12.6616C64.382 11.2899 63.283 10.1826 61.9113 10.1826C60.5396 10.1826 59.4323 11.2899 59.4323 12.6616C59.4323 14.0333 60.5396 15.1406 61.9113 15.1406ZM61.9113 16.7933C59.9859 16.7933 56.127 17.7601 56.127 19.6855V20.7513C56.127 21.3036 56.5747 21.7513 57.127 21.7513H66.6956C67.2479 21.7513 67.6956 21.3036 67.6956 20.7513V19.6855C67.6956 17.7601 63.8367 16.7933 61.9113 16.7933Z" fill="#E3E8F4"/>
</g>
<defs>
<clipPath id="clip0_665_5994">
<rect width="16" height="16" fill="white" transform="translate(8 8)"/>
</clipPath>
<clipPath id="clip1_665_5994">
<rect width="16" height="16" fill="white" transform="translate(31 8)"/>
</clipPath>
<clipPath id="clip2_665_5994">
<rect width="16" height="16" fill="white" transform="translate(54 8)"/>
</clipPath>
</defs>
</svg>
