<svg width="64" height="64" viewBox="0 0 64 64" fill="none" xmlns="http://www.w3.org/2000/svg">
<path d="M7.9987 8H55.9987C57.4715 8 58.6654 9.19392 58.6654 10.6667V53.3333C58.6654 54.8061 57.4715 56 55.9987 56H7.9987C6.52595 56 5.33203 54.8061 5.33203 53.3333V10.6667C5.33203 9.19392 6.52595 8 7.9987 8ZM32.3184 31.0176C32.2274 31.0963 32.0926 31.0969 32.0009 31.0191L17.0907 18.3598C15.9681 17.4066 14.2852 17.544 13.332 18.6667C12.3788 19.7893 12.5162 21.4722 13.6389 22.4254L31.8127 37.8555C32.0319 38.0416 32.3541 38.0401 32.5715 37.8519L50.394 22.4282C51.5076 21.4644 51.6291 19.7803 50.6653 18.6666C49.7016 17.553 48.0175 17.4315 46.9039 18.3953L32.3184 31.0176Z" fill="url(#paint0_linear_1030_8955)"/>
<defs>
<linearGradient id="paint0_linear_1030_8955" x1="-1.00195" y1="3.5" x2="64.498" y2="64.5" gradientUnits="userSpaceOnUse">
<stop stop-color="#0F6CFF"/>
<stop offset="1" stop-color="#0F6CFF" stop-opacity="0.25"/>
</linearGradient>
</defs>
</svg>
