<svg width="159" height="673" viewBox="0 0 159 673" fill="none" xmlns="http://www.w3.org/2000/svg">
<path fill-rule="evenodd" clip-rule="evenodd" d="M-63 -261.001L807.35 559.615L808.036 558.888L-62.314 -261.729L-63 -261.001ZM803.35 563.615L-67 -257.001L-66.314 -257.729L804.036 562.888L803.35 563.615ZM-71 -253.001L799.35 567.615L800.036 566.888L-70.314 -253.729L-71 -253.001ZM795.35 571.615L-75 -249.001L-74.314 -249.729L796.036 570.888L795.35 571.615ZM-79 -245.001L791.35 575.615L792.036 574.888L-78.314 -245.729L-79 -245.001ZM787.35 579.615L-83 -241.001L-82.314 -241.729L788.036 578.888L787.35 579.615ZM-87 -237.001L783.35 583.615L784.036 582.888L-86.314 -237.729L-87 -237.001ZM779.35 587.615L-91 -233.001L-90.314 -233.729L780.036 586.888L779.35 587.615ZM-95 -229.001L775.35 591.615L776.036 590.888L-94.314 -229.729L-95 -229.001ZM771.35 595.615L-99 -225.001L-98.314 -225.729L772.036 594.888L771.35 595.615ZM-103 -221.001L767.35 599.615L768.036 598.888L-102.314 -221.729L-103 -221.001ZM763.35 603.615L-107 -217.001L-106.314 -217.729L764.036 602.888L763.35 603.615ZM-111 -213.001L759.35 607.615L760.036 606.888L-110.314 -213.729L-111 -213.001ZM755.35 611.615L-115 -209.001L-114.314 -209.729L756.036 610.888L755.35 611.615ZM-119 -205.001L751.35 615.615L752.036 614.888L-118.314 -205.729L-119 -205.001ZM747.35 619.615L-123 -201.001L-122.314 -201.729L748.036 618.888L747.35 619.615ZM-127 -197.001L743.35 623.615L744.036 622.888L-126.314 -197.729L-127 -197.001ZM739.35 627.615L-131 -193.001L-130.314 -193.729L740.036 626.888L739.35 627.615ZM-135 -189.001L735.35 631.615L736.036 630.888L-134.314 -189.729L-135 -189.001ZM731.35 635.615L-139 -185.001L-138.314 -185.729L732.036 634.888L731.35 635.615ZM-143 -181.001L727.35 639.615L728.036 638.888L-142.314 -181.729L-143 -181.001ZM723.35 643.615L-147 -177.001L-146.314 -177.729L724.036 642.888L723.35 643.615ZM-151 -173.001L719.35 647.615L720.036 646.888L-150.314 -173.729L-151 -173.001ZM715.35 651.615L-155 -169.001L-154.314 -169.729L716.036 650.888L715.35 651.615ZM-159 -165.001L711.35 655.615L712.036 654.888L-158.314 -165.729L-159 -165.001ZM707.35 659.615L-163 -161.001L-162.314 -161.729L708.036 658.888L707.35 659.615ZM-167 -157.001L703.35 663.615L704.036 662.888L-166.314 -157.729L-167 -157.001ZM699.35 667.615L-171 -153.001L-170.314 -153.729L700.036 666.888L699.35 667.615ZM-175 -149.001L695.35 671.615L696.036 670.888L-174.314 -149.729L-175 -149.001ZM691.35 675.615L-179 -145.001L-178.314 -145.729L692.036 674.888L691.35 675.615ZM-183 -141.001L687.35 679.615L688.036 678.888L-182.314 -141.729L-183 -141.001ZM683.35 683.615L-187 -137.001L-186.314 -137.729L684.036 682.888L683.35 683.615ZM-191 -133.001L679.35 687.615L680.036 686.888L-190.314 -133.729L-191 -133.001ZM675.35 691.615L-195 -129.001L-194.314 -129.729L676.036 690.888L675.35 691.615ZM-199 -125.001L671.35 695.615L672.036 694.888L-198.314 -125.729L-199 -125.001ZM667.35 699.615L-203 -121.001L-202.314 -121.729L668.036 698.888L667.35 699.615ZM-207 -117.001L663.35 703.615L664.036 702.888L-206.314 -117.729L-207 -117.001ZM659.35 707.615L-211 -113.001L-210.314 -113.729L660.036 706.888L659.35 707.615ZM-215 -109.001L655.35 711.615L656.036 710.888L-214.314 -109.729L-215 -109.001ZM651.35 715.615L-219 -105.001L-218.314 -105.729L652.036 714.888L651.35 715.615ZM-223 -101.001L647.35 719.615L648.036 718.888L-222.314 -101.729L-223 -101.001ZM643.35 723.615L-227 -97.0004L-226.314 -97.728L644.036 722.888L643.35 723.615ZM-231 -93.0004L639.35 727.615L640.036 726.888L-230.314 -93.728L-231 -93.0004ZM635.35 731.615L-235 -89.0004L-234.314 -89.728L636.036 730.888L635.35 731.615ZM-239 -85.0004L631.35 735.615L632.036 734.888L-238.314 -85.728L-239 -85.0004ZM627.35 739.615L-243 -81.0004L-242.314 -81.728L628.036 738.888L627.35 739.615ZM-247 -77.0004L623.35 743.615L624.036 742.888L-246.314 -77.728L-247 -77.0004ZM619.35 747.615L-251 -73.0004L-250.314 -73.728L620.036 746.888L619.35 747.615ZM-255 -69.0004L615.35 751.615L616.036 750.888L-254.314 -69.728L-255 -69.0004ZM611.35 755.615L-259 -65.0004L-258.314 -65.728L612.036 754.888L611.35 755.615ZM-263 -61.0004L607.35 759.615L608.036 758.888L-262.314 -61.728L-263 -61.0004ZM603.35 763.615L-267 -57.0004L-266.314 -57.728L604.036 762.887L603.35 763.615ZM-271 -53.0004L599.35 767.615L600.036 766.887L-270.314 -53.728L-271 -53.0004ZM595.35 771.615L-275 -49.0004L-274.314 -49.728L596.036 770.887L595.35 771.615ZM-279 -45.0004L591.35 775.615L592.036 774.887L-278.314 -45.728L-279 -45.0004ZM587.35 779.615L-283 -41.0004L-282.314 -41.728L588.036 778.887L587.35 779.615ZM-287 -37.0004L583.35 783.615L584.036 782.887L-286.314 -37.728L-287 -37.0004ZM579.35 787.615L-291 -33.0004L-290.314 -33.728L580.036 786.887L579.35 787.615ZM-295 -29.0004L575.35 791.615L576.036 790.887L-294.314 -29.728L-295 -29.0004ZM571.35 795.615L-299 -25.0004L-298.314 -25.728L572.036 794.887L571.35 795.615ZM-303 -21.0004L567.35 799.615L568.036 798.887L-302.314 -21.728L-303 -21.0004ZM563.35 803.615L-307 -17.0004L-306.314 -17.728L564.036 802.887L563.35 803.615ZM-311 -13.0004L559.35 807.615L560.036 806.887L-310.314 -13.728L-311 -13.0004ZM555.35 811.615L-315 -9.00044L-314.314 -9.72803L556.036 810.887L555.35 811.615ZM-319 -5.00043L551.35 815.615L552.036 814.887L-318.314 -5.72803L-319 -5.00043ZM547.35 819.615L-323 -1.00043L-322.314 -1.72803L548.036 818.887L547.35 819.615ZM-327 2.99957L543.35 823.615L544.036 822.887L-326.314 2.27197L-327 2.99957ZM539.35 827.615L-331 6.99957L-330.314 6.27197L540.036 826.887L539.35 827.615ZM-335 10.9996L535.35 831.615L536.036 830.887L-334.314 10.272L-335 10.9996ZM531.35 835.615L-339 14.9996L-338.314 14.272L532.036 834.887L531.35 835.615ZM-343 18.9996L527.35 839.615L528.036 838.887L-342.314 18.272L-343 18.9996ZM523.35 843.615L-347 22.9996L-346.314 22.272L524.036 842.887L523.35 843.615ZM-351 26.9996L519.35 847.615L520.036 846.887L-350.314 26.272L-351 26.9996ZM515.35 851.615L-355 30.9996L-354.314 30.272L516.036 850.887L515.35 851.615ZM-359 34.9996L511.35 855.615L512.036 854.887L-358.314 34.272L-359 34.9996ZM507.35 859.615L-363 38.9996L-362.314 38.272L508.036 858.887L507.35 859.615ZM-367 42.9996L503.35 863.615L504.036 862.887L-366.314 42.272L-367 42.9996ZM499.35 867.615L-371 46.9996L-370.314 46.272L500.036 866.887L499.35 867.615ZM-375 50.9996L495.35 871.615L496.036 870.887L-374.314 50.272L-375 50.9996ZM491.35 875.615L-379 54.9996L-378.314 54.272L492.036 874.887L491.35 875.615ZM-383 58.9996L487.35 879.615L488.036 878.887L-382.314 58.272L-383 58.9996ZM483.35 883.615L-387 62.9996L-386.314 62.272L484.036 882.887L483.35 883.615ZM-391 66.9996L479.35 887.615L480.036 886.887L-390.314 66.272L-391 66.9996ZM475.35 891.615L-395 70.9996L-394.314 70.272L476.036 890.887L475.35 891.615ZM-399 74.9996L471.35 895.615L472.036 894.887L-398.314 74.272L-399 74.9996ZM467.35 899.615L-403 78.9996L-402.314 78.272L468.036 898.887L467.35 899.615ZM-407 82.9996L463.35 903.615L464.036 902.887L-406.314 82.272L-407 82.9996ZM459.35 907.615L-411 86.9996L-410.314 86.272L460.036 906.887L459.35 907.615ZM-415 90.9996L455.35 911.615L456.036 910.887L-414.314 90.272L-415 90.9996ZM451.35 915.615L-419 94.9996L-418.314 94.272L452.036 914.887L451.35 915.615ZM-423 98.9996L447.35 919.615L448.036 918.887L-422.314 98.272L-423 98.9996ZM443.35 923.615L-427 102.999L-426.314 102.271L444.036 922.887L443.35 923.615ZM-431 106.999L439.35 927.615L440.036 926.887L-430.314 106.271L-431 106.999ZM435.35 931.615L-435 110.999L-434.314 110.271L436.036 930.887L435.35 931.615ZM-439 114.999L431.35 935.615L432.036 934.887L-438.314 114.271L-439 114.999ZM427.35 939.615L-443 118.999L-442.314 118.271L428.036 938.887L427.35 939.615ZM-447 122.999L423.35 943.615L424.036 942.887L-446.314 122.271L-447 122.999ZM419.35 947.615L-451 126.999L-450.314 126.271L420.036 946.887L419.35 947.615ZM-455 130.999L415.35 951.615L416.036 950.887L-454.314 130.271L-455 130.999ZM411.35 955.615L-459 134.999L-458.314 134.271L412.036 954.887L411.35 955.615ZM-463 138.999L407.35 959.615L408.036 958.887L-462.314 138.271L-463 138.999ZM403.35 963.615L-467 142.999L-466.314 142.271L404.036 962.887L403.35 963.615ZM-471 146.999L399.35 967.615L400.036 966.887L-470.314 146.271L-471 146.999ZM395.35 971.615L-475 150.999L-474.314 150.271L396.036 970.887L395.35 971.615ZM-479 154.999L391.35 975.615L392.036 974.887L-478.314 154.271L-479 154.999ZM387.35 979.615L-483 158.999L-482.314 158.271L388.036 978.887L387.35 979.615ZM-487 162.999L383.35 983.615L384.036 982.887L-486.314 162.271L-487 162.999ZM379.35 987.615L-491 166.999L-490.314 166.271L380.036 986.887L379.35 987.615ZM-495 170.999L375.35 991.615L376.036 990.887L-494.314 170.271L-495 170.999ZM371.35 995.615L-499 174.999L-498.314 174.271L372.036 994.887L371.35 995.615ZM-503 178.999L367.35 999.615L368.036 998.887L-502.314 178.271L-503 178.999ZM363.35 1003.61L-507 182.999L-506.314 182.271L364.036 1002.89L363.35 1003.61ZM-511 186.999L359.35 1007.61L360.036 1006.89L-510.314 186.271L-511 186.999ZM355.35 1011.61L-515 190.999L-514.314 190.271L356.036 1010.89L355.35 1011.61ZM351.35 1015.61L-519 194.999L-518.314 194.271L352.036 1014.89L351.35 1015.61Z" fill="#E5E8EB"/>
</svg>
