<svg width="62" height="24" viewBox="0 0 62 24" fill="none" xmlns="http://www.w3.org/2000/svg">
<path d="M20.5243 16.226C21.0531 16.6836 21.6164 17.0082 22.2004 17.1912C22.7774 17.3725 23.4354 17.464 24.1537 17.464C24.8721 17.464 25.5232 17.3328 26.1312 17.0721C26.7445 16.8096 27.2475 16.4246 27.6264 15.929C28.0106 15.4266 28.2052 14.8205 28.2052 14.1299C28.2052 13.5946 28.1242 13.1319 27.9658 12.7538C27.8038 12.3704 27.5575 12.0476 27.2337 11.792C26.9167 11.5434 26.5154 11.3379 26.0417 11.1808C25.58 11.0288 25.0357 10.8942 24.4276 10.7819C23.9746 10.6921 23.5801 10.5903 23.258 10.478C22.9548 10.3727 22.7223 10.2311 22.5673 10.0567C22.4191 9.89098 22.3468 9.68378 22.3468 9.42306C22.3468 9.20896 22.4088 9.02593 22.5363 8.86363C22.6672 8.69787 22.867 8.56319 23.1323 8.46478C23.4079 8.36118 23.7558 8.30938 24.1658 8.30938C24.4104 8.30938 24.6791 8.35082 24.9633 8.43197C25.2562 8.51485 25.537 8.61845 25.7988 8.74104C26.0537 8.86018 26.2587 8.98622 26.4172 9.12435C26.5688 9.23831 26.7393 9.29529 26.9288 9.29529C27.2078 9.29529 27.4542 9.18479 27.6574 8.96896C27.859 8.75485 27.9606 8.5114 27.9606 8.24549C27.9606 7.88981 27.7918 7.57383 27.4628 7.31311C27.0959 6.99713 26.617 6.73468 26.0417 6.53267C25.4681 6.33065 24.8359 6.22705 24.1658 6.22705C23.4509 6.22705 22.7895 6.3531 22.1969 6.60346C21.5975 6.85727 21.1134 7.23196 20.7586 7.72059C20.4003 8.21269 20.2194 8.81183 20.2194 9.50249C20.2194 9.95659 20.2952 10.3727 20.4434 10.7405C20.5932 11.11 20.8189 11.4363 21.1117 11.7091C21.4028 11.9802 21.768 12.2047 22.1986 12.3791C22.6224 12.55 23.1168 12.6778 23.6732 12.7607C24.2313 12.8401 24.6946 12.9506 25.0529 13.0904C25.3974 13.2251 25.6541 13.3909 25.8143 13.5791C25.9693 13.7604 26.0451 13.9762 26.0451 14.2387C26.0451 14.4459 25.9676 14.6272 25.8074 14.7912C25.6351 14.969 25.4026 15.1123 25.1167 15.2194C24.8255 15.3282 24.5 15.3817 24.1503 15.3817C23.6232 15.3817 23.1753 15.3057 22.8222 15.1538C22.4622 15.0001 22.0918 14.7687 21.7232 14.4666C21.5424 14.3215 21.3322 14.2473 21.1031 14.2473C20.8034 14.2473 20.5502 14.3543 20.3521 14.5667C20.1557 14.7756 20.0558 15.0208 20.0558 15.2971C20.0558 15.4646 20.0971 15.6338 20.1798 15.7978C20.2608 15.9601 20.3762 16.1052 20.5226 16.2295L20.5243 16.226Z" fill="white"/>
<path d="M33.2867 11.0323C33.5744 11.0323 33.8172 10.9374 34.0102 10.7491C34.2048 10.5592 34.3047 10.3227 34.3047 10.043C34.3047 9.76324 34.2065 9.50942 34.0136 9.31604C33.819 9.12265 33.5761 9.02423 33.2884 9.02423H32.3892V8.22825C32.3892 7.92091 32.2893 7.66019 32.093 7.45126C31.8931 7.23889 31.6365 7.13184 31.3264 7.13184C31.0164 7.13184 30.7562 7.23716 30.5478 7.44781C30.3394 7.65673 30.2326 7.91918 30.2326 8.22825V9.02423H29.7107C29.423 9.02423 29.1801 9.1192 28.9872 9.3074C28.7925 9.49733 28.6926 9.73388 28.6926 10.0136C28.6926 10.2933 28.7908 10.5471 28.9837 10.7405C29.1767 10.9339 29.4213 11.034 29.7089 11.034H30.2309V15.0381C30.2309 15.5596 30.3136 15.9791 30.4772 16.2848C30.6426 16.5938 30.8544 16.8269 31.1059 16.9789C31.3523 17.1274 31.6175 17.2206 31.8949 17.2586C32.1567 17.2948 32.4013 17.3138 32.6201 17.3138C33.0025 17.3138 33.3642 17.2137 33.6967 17.0169C34.0584 16.8027 34.241 16.5179 34.241 16.1725C34.241 15.898 34.1686 15.677 34.0239 15.5129C33.8741 15.3437 33.7018 15.2574 33.5106 15.2574C33.3556 15.2574 33.2161 15.285 33.092 15.3403C32.9405 15.4076 32.7458 15.4128 32.5873 15.3455C32.5253 15.3196 32.4771 15.2781 32.4409 15.2177C32.403 15.1555 32.3841 15.0675 32.3841 14.9604V11.0323H33.2832H33.2867Z" fill="white"/>
<path d="M43.0122 13.6256C43.231 13.4426 43.3481 13.2026 43.3602 12.9021C43.3602 12.3375 43.2517 11.7954 43.0364 11.2912C42.8228 10.7905 42.5299 10.3433 42.1647 9.96167C41.7996 9.58008 41.3724 9.27447 40.8969 9.05346C40.4181 8.83245 39.9047 8.72021 39.3673 8.72021C38.6766 8.72021 38.0117 8.90151 37.395 9.2572C36.7766 9.61461 36.2702 10.1309 35.8895 10.7956C35.5088 11.4604 35.3159 12.2702 35.3159 13.2043C35.3159 14.0072 35.4933 14.7376 35.843 15.3747C36.1944 16.0153 36.7042 16.5298 37.3571 16.901C38.0082 17.2723 38.7868 17.4605 39.6688 17.4605C40.189 17.4605 40.7006 17.3724 41.1898 17.2015C41.6807 17.0288 42.07 16.8216 42.3404 16.592C42.6643 16.3364 42.8296 16.0412 42.8296 15.7148C42.8296 15.4679 42.7401 15.2504 42.5627 15.0656C42.2595 14.7514 41.803 14.6875 41.2931 14.943C41.1812 15.0035 41.0571 15.0777 40.9142 15.1675C40.7936 15.2435 40.6299 15.3108 40.425 15.3661C40.22 15.423 39.934 15.4507 39.5792 15.4507C39.2243 15.4507 38.8523 15.3591 38.5233 15.1761C38.1942 14.9948 37.9221 14.7255 37.7119 14.3767C37.6241 14.2299 37.5552 14.0676 37.5035 13.8898H42.2664C42.5489 13.8898 42.7986 13.8 43.0105 13.6221L43.0122 13.6256ZM37.519 12.0336C37.5311 11.9905 37.5431 11.9508 37.5552 11.9145C37.6568 11.6175 37.7946 11.381 37.9669 11.2083C38.1374 11.0374 38.3424 10.9148 38.5749 10.8423C38.8195 10.7663 39.0865 10.7283 39.369 10.7283C39.6515 10.7283 39.9254 10.7905 40.1769 10.9148C40.4301 11.0391 40.6437 11.21 40.8125 11.4207C40.9624 11.6072 41.0502 11.8109 41.0778 12.0319H37.519V12.0336Z" fill="white"/>
<path d="M51.4442 8.72021C51.1358 8.72021 50.8757 8.82727 50.6707 9.03792C50.5415 9.17087 50.4537 9.32454 50.4072 9.4972C50.3882 9.48166 50.3676 9.46612 50.3486 9.45058C50.0696 9.23993 49.7371 9.06382 49.3599 8.92741C48.9809 8.79101 48.5589 8.72021 48.1093 8.72021C47.4048 8.72021 46.7536 8.91015 46.1749 9.28483C45.5978 9.65778 45.1344 10.1792 44.7951 10.8336C44.4575 11.4863 44.2852 12.2477 44.2852 13.099C44.2852 13.9502 44.4575 14.6978 44.7951 15.3505C45.1344 16.0049 45.6047 16.5264 46.1921 16.8993C46.7812 17.274 47.4461 17.4639 48.1713 17.4639C48.5727 17.4639 48.9516 17.3966 49.2979 17.2636C49.6389 17.1324 49.9386 16.9701 50.1919 16.7784C50.2745 16.7163 50.3538 16.6524 50.4261 16.5885C50.4761 16.7405 50.5588 16.8769 50.6742 16.996C50.8774 17.2067 51.1375 17.3137 51.4476 17.3137C51.7577 17.3137 52.0161 17.2067 52.2193 16.996C52.4226 16.7871 52.5242 16.5246 52.5242 16.2173V9.8149C52.5242 9.4972 52.4209 9.2313 52.2176 9.02756C52.0143 8.82381 51.7542 8.72021 51.4476 8.72021H51.4442ZM50.1798 14.3094C50.0076 14.6633 49.7664 14.9465 49.4615 15.1485C49.1601 15.3505 48.8018 15.4524 48.3952 15.4524C47.9887 15.4524 47.6459 15.3505 47.3445 15.1485C47.0396 14.9448 46.7984 14.6633 46.6262 14.3094C46.4522 13.9519 46.3643 13.5444 46.3643 13.099C46.3643 12.6535 46.4522 12.2305 46.6262 11.8731C46.7984 11.5191 47.0396 11.2377 47.3445 11.0339C47.6459 10.8319 48.0008 10.73 48.3952 10.73C48.7897 10.73 49.1601 10.8319 49.4615 11.0339C49.7664 11.2377 50.0076 11.5191 50.1798 11.8731C50.3538 12.2305 50.4416 12.6431 50.4416 13.099C50.4416 13.5548 50.3538 13.9519 50.1798 14.3094Z" fill="white"/>
<path d="M61.3937 6.07687C61.1904 5.87313 60.9303 5.76953 60.6237 5.76953C60.3171 5.76953 60.0552 5.87658 59.8503 6.08723C59.647 6.29616 59.5454 6.55861 59.5454 6.86595V9.46627C59.5454 9.46627 59.5333 9.45764 59.5264 9.45246C59.2474 9.24181 58.9149 9.06569 58.5377 8.92928C58.1587 8.79115 57.7367 8.72209 57.2871 8.72209C56.5826 8.72209 55.9314 8.91202 55.3527 9.2867C54.7756 9.65965 54.3122 10.1811 53.9729 10.8355C53.6353 11.4882 53.463 12.2496 53.463 13.1008C53.463 13.9521 53.6353 14.6997 53.9729 15.3524C54.3122 16.0068 54.7825 16.5282 55.3699 16.9012C55.959 17.2759 56.6239 17.4658 57.3491 17.4658C57.7505 17.4658 58.1294 17.3985 58.4757 17.2655C58.8167 17.1343 59.1164 16.972 59.3697 16.7803C59.4523 16.7182 59.5316 16.6543 59.6039 16.5887C59.6539 16.7406 59.7366 16.877 59.852 16.9961C60.0552 17.2068 60.3153 17.3138 60.6254 17.3138C60.9355 17.3138 61.1938 17.2068 61.3971 16.9961C61.6004 16.7872 61.702 16.5248 61.702 16.2174V6.86595C61.702 6.54825 61.5986 6.28234 61.3954 6.0786L61.3937 6.07687ZM59.3593 14.3095C59.1871 14.6635 58.9459 14.9466 58.641 15.1486C58.3396 15.3507 57.9813 15.4525 57.5748 15.4525C57.1682 15.4525 56.8254 15.3507 56.524 15.1486C56.2191 14.9449 55.9779 14.6635 55.8057 14.3095C55.6317 13.9521 55.5439 13.5446 55.5439 13.0991C55.5439 12.6536 55.6317 12.2306 55.8057 11.8732C55.9779 11.5192 56.2191 11.2378 56.524 11.0341C56.8254 10.832 57.1803 10.7302 57.5748 10.7302C57.9692 10.7302 58.3396 10.832 58.641 11.0341C58.9459 11.2378 59.1871 11.5192 59.3593 11.8732C59.5333 12.2306 59.6212 12.6433 59.6212 13.0991C59.6212 13.555 59.5333 13.9521 59.3593 14.3095Z" fill="white"/>
<path d="M14.3366 6.62369L10.1576 2.4552C9.02003 1.32092 7.17486 1.32092 6.03571 2.4552L4.62843 3.85841L1.85513 6.62369C0.717562 7.75797 0.717562 9.5978 1.85513 10.7337L2.72932 11.6053L3.4512 10.8871C4.58559 9.756 6.42124 9.75284 7.56039 10.876L7.56515 10.8808C7.56515 10.8808 7.56991 10.8855 7.57308 10.8871L8.82488 12.1353C9.96403 13.2632 11.8029 13.2601 12.9388 12.129L13.4624 11.6069L10.1576 8.31166C9.02003 7.17739 7.17486 7.17739 6.03571 8.31166L5.51214 8.83371L6.03571 8.31166C7.17327 7.17739 9.01844 7.17739 10.1576 8.31166L13.4624 11.6069L14.3366 10.7352C14.3366 10.7352 14.3413 10.7289 14.3445 10.7273C15.4741 9.59148 15.4726 7.75797 14.3366 6.62686V6.62369Z" fill="url(#paint0_linear_6662_5253)"/>
<path d="M14.3366 12.4769L13.4624 11.6053L12.9388 12.1273C11.8028 13.26 9.96402 13.2616 8.82487 12.1336C8.8217 12.1305 8.82011 12.1289 8.81694 12.1273L7.56514 10.8791C6.42599 9.7512 4.58717 9.75436 3.45119 10.8855L2.72931 11.6053L1.84718 12.4848C0.717552 13.6207 0.720725 15.4542 1.85512 16.5853L6.0357 20.7538C7.17326 21.8881 9.01843 21.8881 10.1576 20.7538L11.7616 19.1544L14.3382 16.5853C15.4757 15.451 15.4757 13.6112 14.3382 12.4754L14.3366 12.4769Z" fill="url(#paint1_linear_6662_5253)"/>
<path d="M7.56512 10.8789L8.81692 12.1271C8.81692 12.1271 8.82168 12.1318 8.82485 12.1334L7.57306 10.8852C7.57306 10.8852 7.5683 10.8805 7.56512 10.8789Z" fill="#001588"/>
<defs>
<linearGradient id="paint0_linear_6662_5253" x1="8.09606" y1="1.60449" x2="8.09606" y2="12.9793" gradientUnits="userSpaceOnUse">
<stop stop-color="#5CF6FF"/>
<stop offset="1" stop-color="#0C89FE"/>
</linearGradient>
<linearGradient id="paint1_linear_6662_5253" x1="8.09673" y1="10.0352" x2="8.09673" y2="21.6045" gradientUnits="userSpaceOnUse">
<stop stop-color="#01067B"/>
<stop offset="1" stop-color="#1B5EFF"/>
</linearGradient>
</defs>
</svg>
