<svg width="65" height="64" viewBox="0 0 65 64" fill="none" xmlns="http://www.w3.org/2000/svg">
<g id="emotion-sad-line 1">
<path id="Vector" d="M32.5006 5.33301C47.2281 5.33301 59.1673 17.2721 59.1673 31.9997C59.1673 33.9373 58.9606 35.8266 58.5681 37.6469L53.8156 32.8943C53.8278 32.5975 53.834 32.2994 53.834 31.9997C53.834 20.2176 44.2828 10.6663 32.5006 10.6663C20.7186 10.6663 11.1673 20.2176 11.1673 31.9997C11.1673 43.7818 20.7186 53.333 32.5006 53.333C35.9734 53.333 39.2524 52.5031 42.1502 51.0311C42.5633 51.6871 43.0553 52.3061 43.6249 52.8754C44.431 53.6815 45.334 54.3317 46.2964 54.8258C42.2719 57.2629 37.5502 58.6663 32.5006 58.6663C17.7731 58.6663 5.83398 46.7271 5.83398 31.9997C5.83398 17.2721 17.7731 5.33301 32.5006 5.33301ZM51.1673 37.7906L54.9385 41.5618C57.0214 43.6445 57.0214 47.0215 54.9385 49.1042C52.8558 51.1871 49.4788 51.1871 47.3961 49.1042C45.4078 47.1162 45.3177 43.949 47.1249 41.8535L47.3961 41.5618L51.1673 37.7906ZM32.5006 39.9997C36.411 39.9997 39.9281 41.6829 42.367 44.3645L39.847 46.6559C37.7406 45.8197 35.2153 45.333 32.5006 45.333C29.786 45.333 27.2606 45.8197 25.1541 46.6559L22.6342 44.3645C25.0731 41.6829 28.5903 39.9997 32.5006 39.9997ZM23.1673 26.6663C25.3765 26.6663 27.1673 28.4573 27.1673 30.6663C27.1673 32.8754 25.3765 34.6663 23.1673 34.6663C20.9582 34.6663 19.1673 32.8754 19.1673 30.6663C19.1673 28.4573 20.9582 26.6663 23.1673 26.6663ZM41.834 26.6663C44.043 26.6663 45.834 28.4573 45.834 30.6663C45.834 32.8754 44.043 34.6663 41.834 34.6663C39.6249 34.6663 37.834 32.8754 37.834 30.6663C37.834 28.4573 39.6249 26.6663 41.834 26.6663Z" fill="url(#paint0_linear_1464_7295)"/>
</g>
<defs>
<linearGradient id="paint0_linear_1464_7295" x1="6.00073" y1="4.99903" x2="68.0007" y2="86.499" gradientUnits="userSpaceOnUse">
<stop stop-color="#0F6CFF"/>
<stop offset="1" stop-color="#0F6CFF" stop-opacity="0.25"/>
</linearGradient>
</defs>
</svg>
