<svg width="123" height="41" viewBox="0 0 123 41" fill="none" xmlns="http://www.w3.org/2000/svg">
<g clip-path="url(#clip0_1090_12567)">
<path d="M40.0127 29.3439C41.0785 30.2661 42.2138 30.9204 43.3907 31.2892C44.5537 31.6546 45.8799 31.8391 47.3276 31.8391C48.7754 31.8391 50.0877 31.5746 51.3132 31.0491C52.5491 30.5202 53.5629 29.7441 54.3267 28.7454C55.1009 27.7327 55.4932 26.5112 55.4932 25.1192C55.4932 24.0405 55.33 23.1078 55.0106 22.3457C54.6843 21.5732 54.1878 20.9224 53.5351 20.4074C52.8963 19.9062 52.0874 19.4921 51.1327 19.1755C50.2022 18.8692 49.1052 18.5978 47.8796 18.3716C46.9666 18.1906 46.1715 17.9853 45.5223 17.7591C44.9113 17.5468 44.4426 17.2615 44.1302 16.91C43.8316 16.5759 43.6858 16.1583 43.6858 15.6328C43.6858 15.2013 43.8108 14.8324 44.0677 14.5053C44.3315 14.1712 44.7342 13.8998 45.2689 13.7015C45.8244 13.4927 46.5257 13.3883 47.3519 13.3883C47.8449 13.3883 48.3865 13.4718 48.9594 13.6353C49.5496 13.8024 50.1154 14.0112 50.6432 14.2582C51.157 14.4984 51.5701 14.7524 51.8895 15.0308C52.195 15.2605 52.5387 15.3753 52.9206 15.3753C53.483 15.3753 53.9795 15.1526 54.3892 14.7176C54.7954 14.2861 55.0002 13.7954 55.0002 13.2595C55.0002 12.5426 54.66 11.9058 53.9969 11.3803C53.2574 10.7435 52.2922 10.2145 51.1327 9.80736C49.9766 9.4002 48.7024 9.19141 47.3519 9.19141C45.9112 9.19141 44.578 9.44544 43.3837 9.95004C42.1756 10.4616 41.2 11.2168 40.4848 12.2016C39.7627 13.1934 39.3982 14.4009 39.3982 15.7929C39.3982 16.7082 39.5509 17.5468 39.8495 18.2881C40.1515 19.0328 40.6063 19.6905 41.1965 20.2403C41.7833 20.7867 42.5193 21.2391 43.3872 21.5906C44.2413 21.9351 45.2376 22.1926 46.359 22.3596C47.4839 22.5197 48.4178 22.7424 49.1399 23.0243C49.8342 23.2957 50.3515 23.6298 50.6744 24.0091C50.9869 24.3745 51.1396 24.8095 51.1396 25.3385C51.1396 25.7561 50.9834 26.1215 50.6605 26.4521C50.3133 26.8105 49.8447 27.0994 49.2683 27.3151C48.6816 27.5343 48.0255 27.6422 47.3207 27.6422C46.2583 27.6422 45.3557 27.4891 44.644 27.1829C43.9184 26.8732 43.172 26.4068 42.429 25.7978C42.0645 25.5055 41.6409 25.3559 41.1792 25.3559C40.5751 25.3559 40.0647 25.5716 39.6655 25.9997C39.2697 26.4208 39.0684 26.9149 39.0684 27.4717C39.0684 27.8093 39.1517 28.1503 39.3183 28.4809C39.4815 28.808 39.7141 29.1003 40.0092 29.3509L40.0127 29.3439Z" fill="black"/>
<path d="M65.7357 18.8759C66.3155 18.8759 66.805 18.6845 67.1938 18.3052C67.5861 17.9224 67.7875 17.4456 67.7875 16.8819C67.7875 16.3181 67.5896 15.8066 67.2008 15.4168C66.8085 15.0271 66.319 14.8287 65.7392 14.8287H63.9269V13.2244C63.9269 12.605 63.7256 12.0795 63.3298 11.6584C62.9271 11.2304 62.4098 11.0146 61.7849 11.0146C61.1599 11.0146 60.6357 11.2269 60.2156 11.6515C59.7955 12.0726 59.5803 12.6015 59.5803 13.2244V14.8287H58.5284C57.9486 14.8287 57.4591 15.0201 57.0702 15.3994C56.6779 15.7822 56.4766 16.259 56.4766 16.8227C56.4766 17.3865 56.6745 17.898 57.0633 18.2878C57.4521 18.6776 57.9451 18.8794 58.5249 18.8794H59.5768V26.9495C59.5768 28.0004 59.7435 28.846 60.0733 29.462C60.4066 30.0849 60.8336 30.5547 61.3405 30.8609C61.8369 31.1602 62.3716 31.3481 62.9305 31.4247C63.4582 31.4978 63.9512 31.5361 64.3921 31.5361C65.1629 31.5361 65.8919 31.3342 66.562 30.9375C67.291 30.506 67.659 29.9318 67.659 29.2358C67.659 28.6825 67.5132 28.237 67.2216 27.9064C66.9196 27.5654 66.5724 27.3914 66.187 27.3914C65.8746 27.3914 65.5934 27.4471 65.3434 27.5584C65.0379 27.6942 64.6456 27.7046 64.3262 27.5689C64.2012 27.5167 64.104 27.4332 64.0311 27.3114C63.9547 27.1861 63.9165 27.0086 63.9165 26.7929V18.8759H65.7288H65.7357Z" fill="black"/>
<path d="M85.336 24.1029C85.7769 23.734 86.013 23.2503 86.0373 22.6448C86.0373 21.5069 85.8185 20.4141 85.3846 19.398C84.9541 18.3888 84.3639 17.4875 83.6279 16.7184C82.8919 15.9493 82.0309 15.3334 81.0727 14.8879C80.1075 14.4425 79.0729 14.2163 77.9898 14.2163C76.5976 14.2163 75.2575 14.5817 74.0146 15.2986C72.7683 16.0189 71.7476 17.0594 70.9803 18.3992C70.2131 19.739 69.8242 21.3711 69.8242 23.2538C69.8242 24.872 70.1818 26.344 70.8866 27.6281C71.5948 28.9192 72.6224 29.9562 73.9382 30.7044C75.2506 31.4526 76.8198 31.8319 78.5973 31.8319C79.6458 31.8319 80.6769 31.6545 81.6629 31.3099C82.6523 30.9619 83.4369 30.5443 83.982 30.0815C84.6347 29.5665 84.968 28.9714 84.968 28.3137C84.968 27.816 84.7874 27.3776 84.4298 27.0052C83.8188 26.3719 82.8988 26.2431 81.8712 26.7581C81.6455 26.8799 81.3955 27.0296 81.1074 27.2105C80.8644 27.3637 80.5345 27.4994 80.1214 27.6107C79.7083 27.7256 79.132 27.7812 78.4168 27.7812C77.7016 27.7812 76.9517 27.5968 76.2886 27.2279C75.6255 26.8625 75.077 26.3197 74.6534 25.6167C74.4764 25.3209 74.3375 24.9938 74.2333 24.6354H83.8327C84.4021 24.6354 84.9055 24.4544 85.3325 24.096L85.336 24.1029ZM74.2646 20.8944C74.2889 20.8074 74.3132 20.7273 74.3375 20.6543C74.5423 20.0557 74.8201 19.5789 75.1672 19.231C75.5109 18.8864 75.9241 18.6394 76.3928 18.4932C76.8857 18.3401 77.4239 18.2635 77.9932 18.2635C78.5626 18.2635 79.1146 18.3888 79.6215 18.6394C80.1318 18.8899 80.5623 19.2344 80.9026 19.659C81.2046 20.0348 81.3817 20.4455 81.4372 20.8909H74.2646V20.8944Z" fill="black"/>
<path d="M102.331 14.2163C101.709 14.2163 101.185 14.4321 100.772 14.8566C100.512 15.1246 100.335 15.4343 100.241 15.7823C100.203 15.751 100.161 15.7197 100.123 15.6883C99.5605 15.2638 98.8904 14.9088 98.1301 14.6339C97.3663 14.359 96.5157 14.2163 95.6096 14.2163C94.1897 14.2163 92.8774 14.5991 91.7108 15.3543C90.5478 16.1059 89.6139 17.1569 88.93 18.4758C88.2495 19.7912 87.9023 21.3259 87.9023 23.0415C87.9023 24.7571 88.2495 26.264 88.93 27.5794C89.6139 28.8983 90.5617 29.9493 91.7456 30.7009C92.9329 31.4561 94.273 31.8389 95.7346 31.8389C96.5435 31.8389 97.3073 31.7032 98.0051 31.4352C98.6925 31.1707 99.2966 30.8436 99.807 30.4573C99.9736 30.3321 100.133 30.2033 100.279 30.0745C100.38 30.3808 100.546 30.6557 100.779 30.8958C101.189 31.3204 101.713 31.5361 102.338 31.5361C102.963 31.5361 103.484 31.3204 103.893 30.8958C104.303 30.4747 104.508 29.9458 104.508 29.3264V16.4226C104.508 15.7823 104.299 15.2464 103.89 14.8357C103.48 14.4251 102.956 14.2163 102.338 14.2163H102.331ZM99.7827 25.481C99.4355 26.1944 98.9494 26.7651 98.3349 27.1723C97.7274 27.5794 97.0053 27.7847 96.1859 27.7847C95.3666 27.7847 94.6757 27.5794 94.0682 27.1723C93.4537 26.7616 92.9676 26.1944 92.6204 25.481C92.2698 24.7606 92.0927 23.9394 92.0927 23.0415C92.0927 22.1437 92.2698 21.2911 92.6204 20.5707C92.9676 19.8573 93.4537 19.2901 94.0682 18.8795C94.6757 18.4723 95.3909 18.267 96.1859 18.267C96.981 18.267 97.7274 18.4723 98.3349 18.8795C98.9494 19.2901 99.4355 19.8573 99.7827 20.5707C100.133 21.2911 100.31 22.1228 100.31 23.0415C100.31 23.9602 100.133 24.7606 99.7827 25.481Z" fill="black"/>
<path d="M122.384 8.88848C121.975 8.47784 121.45 8.26904 120.832 8.26904C120.214 8.26904 119.687 8.4848 119.274 8.90936C118.864 9.33044 118.659 9.85939 118.659 10.4788V15.7197C118.659 15.7197 118.635 15.7023 118.621 15.6918C118.059 15.2673 117.388 14.9123 116.628 14.6374C115.864 14.359 115.014 14.2198 114.108 14.2198C112.688 14.2198 111.375 14.6026 110.209 15.3578C109.046 16.1094 108.112 17.1604 107.428 18.4793C106.748 19.7947 106.4 21.3294 106.4 23.045C106.4 24.7606 106.748 26.2675 107.428 27.5829C108.112 28.9018 109.06 29.9528 110.244 30.7044C111.431 31.4596 112.771 31.8424 114.233 31.8424C115.042 31.8424 115.805 31.7067 116.503 31.4387C117.191 31.1742 117.795 30.8471 118.305 30.4608C118.472 30.3356 118.631 30.2068 118.777 30.0746C118.878 30.3808 119.044 30.6557 119.277 30.8958C119.687 31.3204 120.211 31.5362 120.836 31.5362C121.461 31.5362 121.982 31.3204 122.391 30.8958C122.801 30.4748 123.006 29.9458 123.006 29.3264V10.4788C123.006 9.83851 122.797 9.3026 122.388 8.89196L122.384 8.88848ZM118.284 25.481C117.937 26.1944 117.451 26.7651 116.836 27.1723C116.229 27.5794 115.507 27.7847 114.687 27.7847C113.868 27.7847 113.177 27.5794 112.57 27.1723C111.955 26.7616 111.469 26.1944 111.122 25.481C110.771 24.7606 110.594 23.9394 110.594 23.0415C110.594 22.1437 110.771 21.2911 111.122 20.5708C111.469 19.8574 111.955 19.2901 112.57 18.8795C113.177 18.4723 113.892 18.267 114.687 18.267C115.482 18.267 116.229 18.4723 116.836 18.8795C117.451 19.2901 117.937 19.8574 118.284 20.5708C118.635 21.2911 118.812 22.1228 118.812 23.0415C118.812 23.9602 118.635 24.7606 118.284 25.481Z" fill="black"/>
</g>
<path d="M26.8754 10.116L18.4528 1.71456C16.1601 -0.571521 12.4412 -0.571521 10.1453 1.71456L7.30901 4.54267L1.71953 10.116C-0.573178 12.4021 -0.573178 16.1102 1.71953 18.3995L3.48143 20.1563L4.93636 18.7087C7.22268 16.429 10.9224 16.4226 13.2183 18.6864L13.2279 18.696C13.2279 18.696 13.2374 18.7055 13.2438 18.7087L15.7668 21.2244C18.0627 23.4977 21.7688 23.4913 24.0583 21.2116L25.1135 20.1594L18.4528 13.518C16.1601 11.2319 12.4412 11.2319 10.1453 13.518L9.0901 14.5702L10.1453 13.518C12.438 11.2319 16.1569 11.2319 18.4528 13.518L25.1135 20.1594L26.8754 18.4026C26.8754 18.4026 26.885 18.3899 26.8914 18.3867C29.1681 16.0974 29.1649 12.4021 26.8754 10.1224V10.116Z" fill="url(#paint0_linear_1090_12567)"/>
<path d="M26.875 21.913L25.1131 20.1562L24.0579 21.2084C21.7684 23.4913 18.0623 23.4944 15.7664 21.2211C15.76 21.2147 15.7568 21.2116 15.7504 21.2084L13.2275 18.6927C10.9316 16.4194 7.22548 16.4258 4.93597 18.7055L3.48104 20.1562L1.70315 21.9289C-0.573567 24.2182 -0.567172 27.9136 1.71914 30.1933L10.1449 38.5947C12.4376 40.8808 16.1565 40.8808 18.4524 38.5947L21.6852 35.3712L26.8782 30.1933C29.1709 27.9072 29.1709 24.1991 26.8782 21.9098L26.875 21.913Z" fill="url(#paint1_linear_1090_12567)"/>
<path d="M13.2285 18.6924L15.7515 21.208C15.7515 21.208 15.761 21.2176 15.7674 21.2208L13.2445 18.7051C13.2445 18.7051 13.2349 18.6956 13.2285 18.6924Z" fill="#001588"/>
<defs>
<linearGradient id="paint0_linear_1090_12567" x1="14.2979" y1="0" x2="14.2979" y2="22.9254" gradientUnits="userSpaceOnUse">
<stop stop-color="#5CF6FF"/>
<stop offset="1" stop-color="#0C89FE"/>
</linearGradient>
<linearGradient id="paint1_linear_1090_12567" x1="14.2989" y1="16.9917" x2="14.2989" y2="40.3093" gradientUnits="userSpaceOnUse">
<stop stop-color="#01067B"/>
<stop offset="1" stop-color="#1B5EFF"/>
</linearGradient>
<clipPath id="clip0_1090_12567">
<rect width="83.9294" height="23.5664" fill="white" transform="translate(39.0723 8.26904)"/>
</clipPath>
</defs>
</svg>
