<svg width="280" height="162" viewBox="0 0 280 162" fill="none" xmlns="http://www.w3.org/2000/svg">
<g clip-path="url(#clip0_271_12520)">
<rect width="280" height="162" rx="8" fill="url(#paint0_linear_271_12520)"/>
<rect x="83" y="32" width="114" height="154" rx="4" fill="white"/>
<path d="M98.0723 51.3711C98.0723 53.3945 99.2617 55.5273 101.258 56.3613L100.424 57.5645C98.9609 56.9355 97.8945 55.6367 97.334 54.0645C96.7598 55.7598 95.6797 57.1816 94.2305 57.8652L93.3555 56.6758C95.3105 55.7734 96.5273 53.4766 96.5273 51.3711V50.332H93.8066V49.0742H100.779V50.332H98.0723V51.3711ZM103.691 47.8574V60.2168H102.16V47.8574H103.691ZM115.733 47.8711V57.2227H114.202V56.1426H111.782V55.0762H114.202V47.8711H115.733ZM116.02 58.7402V59.9707H106.956V56.3203H108.473V58.7402H116.02ZM105.315 53.4219C107.598 53.4082 110.661 53.3809 113.286 53.0527L113.368 54.1465C112.349 54.3174 111.297 54.4336 110.251 54.502V56.8809H108.733V54.584C107.578 54.6318 106.477 54.6387 105.506 54.6387L105.315 53.4219ZM109.348 48.3223C111.153 48.3223 112.411 49.2109 112.424 50.5098C112.411 51.8359 111.153 52.6836 109.348 52.6836C107.516 52.6836 106.258 51.8359 106.258 50.5098C106.258 49.2109 107.516 48.3223 109.348 48.3223ZM109.348 49.4434C108.364 49.4434 107.694 49.8398 107.694 50.5098C107.694 51.1797 108.364 51.5762 109.348 51.5762C110.292 51.5762 110.962 51.1797 110.975 50.5098C110.962 49.8398 110.292 49.4434 109.348 49.4434ZM121.896 50.8242C121.896 53.1211 122.99 55.377 124.958 56.2383L124.042 57.4551C122.641 56.7715 121.657 55.459 121.13 53.8457C120.59 55.5479 119.585 56.9629 118.163 57.6875L117.206 56.457C119.216 55.5137 120.337 53.1348 120.351 50.8242V48.8555H121.896V50.8242ZM127.693 47.8574V60.2305H126.189V53.0801H123.591V51.8496H126.189V47.8574H127.693Z" fill="#333D4B"/>
<rect x="93" y="74" width="83" height="12" rx="2" fill="#E1E1E1"/>
<path d="M182.494 82.3379H181.518L181.61 80.6836L180.22 81.5911L179.726 80.7525L181.208 80.0057L179.726 79.2475L180.22 78.4089L181.61 79.3164L181.518 77.6621H182.494L182.402 79.3164L183.792 78.4089L184.275 79.2475L182.804 80.0057L184.275 80.7525L183.792 81.5911L182.402 80.6836L182.494 82.3379Z" fill="#FF5B46"/>
<rect x="93" y="94" width="94" height="12" rx="2" fill="#F1F1F1"/>
<rect x="93" y="114" width="94" height="12" rx="2" fill="#F1F1F1"/>
<rect x="93" y="134" width="48" height="12" rx="2" fill="#F1F1F1"/>
<path d="M147.494 142.338H146.518L146.61 140.684L145.22 141.591L144.726 140.752L146.208 140.006L144.726 139.248L145.22 138.409L146.61 139.316L146.518 137.662H147.494L147.402 139.316L148.792 138.409L149.275 139.248L147.804 140.006L149.275 140.752L148.792 141.591L147.402 140.684L147.494 142.338Z" fill="#FF5B46"/>
<rect x="93" y="154" width="48" height="12" rx="2" fill="#F1F1F1"/>
<mask id="path-11-inside-1_271_12520" fill="white">
<path d="M0 0H49V162H0V0Z"/>
</mask>
<path d="M0 0H49V162H0V0Z" fill="white" fill-opacity="0.45"/>
<path d="M48 0V162H50V0H48Z" fill="white" fill-opacity="0.35" mask="url(#path-11-inside-1_271_12520)"/>
<rect x="10" y="12" width="18" height="10" rx="2" fill="white"/>
<path d="M37.3723 16.9998C37.3723 17.2264 37.1886 17.4101 36.962 17.4101H34.9106V19.4615C34.9106 19.6881 34.7269 19.8718 34.5003 19.8718C34.2737 19.8718 34.0901 19.6881 34.0901 19.4615V17.4101H32.0387C31.8121 17.4101 31.6284 17.2264 31.6284 16.9998C31.6284 16.7733 31.8121 16.5896 32.0387 16.5896H34.0901V14.5382C34.0901 14.3116 34.2737 14.1279 34.5003 14.1279C34.7269 14.1279 34.9106 14.3116 34.9106 14.5382V16.5896H36.962C37.1886 16.5896 37.3723 16.7733 37.3723 16.9998Z" fill="white"/>
<rect x="10" y="26" width="18" height="10" rx="2" fill="white"/>
<path d="M37.3723 30.9998C37.3723 31.2264 37.1886 31.4101 36.962 31.4101H34.9106V33.4615C34.9106 33.6881 34.7269 33.8718 34.5003 33.8718C34.2737 33.8718 34.0901 33.6881 34.0901 33.4615V31.4101H32.0387C31.8121 31.4101 31.6284 31.2264 31.6284 30.9998C31.6284 30.7733 31.8121 30.5896 32.0387 30.5896H34.0901V28.5382C34.0901 28.3116 34.2737 28.1279 34.5003 28.1279C34.7269 28.1279 34.9106 28.3116 34.9106 28.5382V30.5896H36.962C37.1886 30.5896 37.3723 30.7733 37.3723 30.9998Z" fill="white"/>
<rect x="10" y="40" width="18" height="10" rx="2" fill="white"/>
<path d="M37.3723 44.9998C37.3723 45.2264 37.1886 45.4101 36.962 45.4101H34.9106V47.4615C34.9106 47.6881 34.7269 47.8718 34.5003 47.8718C34.2737 47.8718 34.0901 47.6881 34.0901 47.4615V45.4101H32.0387C31.8121 45.4101 31.6284 45.2264 31.6284 44.9998C31.6284 44.7733 31.8121 44.5896 32.0387 44.5896H34.0901V42.5382C34.0901 42.3116 34.2737 42.1279 34.5003 42.1279C34.7269 42.1279 34.9106 42.3116 34.9106 42.5382V44.5896H36.962C37.1886 44.5896 37.3723 44.7733 37.3723 44.9998Z" fill="white"/>
<rect x="10" y="54" width="29" height="10" rx="2" fill="white"/>
<rect x="10" y="68" width="29" height="10" rx="2" fill="white"/>
<rect x="10" y="82" width="29" height="10" rx="2" fill="white"/>
<rect x="10" y="96" width="29" height="10" rx="2" fill="white"/>
<rect x="10" y="110" width="29" height="10" rx="2" fill="white"/>
<rect x="10" y="124" width="29" height="10" rx="2" fill="white"/>
<mask id="path-25-inside-2_271_12520" fill="white">
<path d="M231 0H280V162H231V0Z"/>
</mask>
<path d="M231 0H280V162H231V0Z" fill="white" fill-opacity="0.45"/>
<path d="M232 162V0H230V162H232Z" fill="white" fill-opacity="0.35" mask="url(#path-25-inside-2_271_12520)"/>
<rect x="241" y="12" width="22" height="11" rx="5.5" fill="white"/>
<rect x="243.062" y="14.0625" width="6.875" height="6.875" rx="3.4375" fill="#E8E8E8"/>
<rect x="241" y="27" width="29" height="10" rx="2" fill="white"/>
<rect x="241" y="41" width="29" height="10" rx="2" fill="white"/>
<rect x="241" y="55" width="29" height="10" rx="2" fill="white"/>
<rect x="241" y="69" width="29" height="10" rx="2" fill="white"/>
</g>
<defs>
<linearGradient id="paint0_linear_271_12520" x1="-25.6934" y1="2.62507e-05" x2="290.034" y2="25.3222" gradientUnits="userSpaceOnUse">
<stop stop-color="#8AAEFF"/>
<stop offset="1" stop-color="#3D87FF"/>
</linearGradient>
<clipPath id="clip0_271_12520">
<rect width="280" height="162" rx="8" fill="white"/>
</clipPath>
</defs>
</svg>
