<svg width="125" height="140" viewBox="0 0 125 140" fill="none" xmlns="http://www.w3.org/2000/svg">
<g clip-path="url(#clip0_3500_12527)">
<line x1="32" y1="11.5" x2="206" y2="11.5" stroke="#E5E8EB"/>
<line x1="32" y1="67.5" x2="206" y2="67.5" stroke="#E5E8EB"/>
<line x1="32" y1="123.5" x2="206" y2="123.5" stroke="#E5E8EB"/>
<g clip-path="url(#clip1_3500_12527)">
<line x1="110.5" y1="2.18557e-08" x2="110.5" y2="189" stroke="#E5E8EB"/>
<line x1="32.5" y1="2.18557e-08" x2="32.5" y2="189" stroke="#E5E8EB"/>
</g>
<path d="M6.16465 24.0977C4.63144 24.0977 3.55723 23.2676 3.56699 22.1152C3.55723 21.207 4.21152 20.4648 5.0416 20.3379V20.2988C4.31894 20.1328 3.83066 19.4883 3.83066 18.7168C3.83066 17.6328 4.81699 16.832 6.16465 16.832C7.50254 16.832 8.4791 17.6328 8.48887 18.7168C8.4791 19.4883 7.99082 20.1328 7.27793 20.2988V20.3379C8.09824 20.4648 8.75254 21.207 8.7623 22.1152C8.75254 23.2676 7.67832 24.0977 6.16465 24.0977ZM6.16465 23.209C7.08262 23.209 7.66855 22.7305 7.66855 22.0371C7.66855 21.3047 7.03379 20.7773 6.16465 20.7773C5.28574 20.7773 4.64121 21.3047 4.66074 22.0371C4.64121 22.7305 5.22715 23.209 6.16465 23.209ZM6.16465 19.9277C6.90684 19.9277 7.43418 19.4785 7.43418 18.8145C7.43418 18.1602 6.9166 17.7109 6.16465 17.7109C5.3834 17.7109 4.87559 18.1504 4.87559 18.8145C4.87559 19.4785 5.41269 19.9277 6.16465 19.9277ZM10.4689 23.0918C10.0881 23.0918 9.76582 22.7793 9.77559 22.3984C9.76582 22.0176 10.0881 21.7051 10.4689 21.7051C10.84 21.7051 11.1623 22.0176 11.1623 22.3984C11.1623 22.7793 10.84 23.0918 10.4689 23.0918ZM10.4689 19.2344C10.0881 19.2344 9.76582 18.9219 9.77559 18.541C9.76582 18.1602 10.0881 17.8477 10.4689 17.8477C10.84 17.8477 11.1623 18.1602 11.1623 18.541C11.1623 18.9219 10.84 19.2344 10.4689 19.2344ZM14.7732 24.0977C13.1326 24.0977 12.1756 22.7793 12.1756 20.4648C12.1756 18.1699 13.1521 16.832 14.7732 16.832C16.3943 16.832 17.3709 18.1699 17.3709 20.4648C17.3709 22.7793 16.4041 24.0977 14.7732 24.0977ZM14.7732 23.1699C15.7303 23.1699 16.2967 22.2324 16.2967 20.4648C16.2967 18.707 15.7205 17.7402 14.7732 17.7402C13.826 17.7402 13.2498 18.707 13.2498 20.4648C13.2498 22.2324 13.8162 23.1699 14.7732 23.1699ZM20.8451 24.0977C19.2045 24.0977 18.2475 22.7793 18.2475 20.4648C18.2475 18.1699 19.224 16.832 20.8451 16.832C22.4662 16.832 23.4428 18.1699 23.4428 20.4648C23.4428 22.7793 22.476 24.0977 20.8451 24.0977ZM20.8451 23.1699C21.8021 23.1699 22.3686 22.2324 22.3686 20.4648C22.3686 18.707 21.7924 17.7402 20.8451 17.7402C19.8979 17.7402 19.3217 18.707 19.3217 20.4648C19.3217 22.2324 19.8881 23.1699 20.8451 23.1699Z" fill="#B0B8C1"/>
<path d="M6.10117 72.832C7.4 72.8418 8.76719 73.623 8.76719 76.2109C8.76719 78.6914 7.70273 80.0977 6.00352 80.0977C4.70469 80.0977 3.78672 79.2969 3.6207 78.1445H4.68516C4.83164 78.7402 5.29062 79.1602 6.00352 79.1602C7.09727 79.1602 7.73203 78.2031 7.7418 76.5918H7.65391C7.27305 77.1875 6.60898 77.5488 5.84727 77.5488C4.57773 77.5488 3.56211 76.582 3.56211 75.2246C3.56211 73.877 4.56797 72.8223 6.10117 72.832ZM6.10117 73.7305C5.2418 73.7305 4.60703 74.3945 4.60703 75.2051C4.60703 76.0254 5.22227 76.6699 6.08164 76.6699C6.93125 76.6699 7.59531 75.9766 7.59531 75.1953C7.59531 74.4336 6.97031 73.7305 6.10117 73.7305ZM10.4934 79.0918C10.1125 79.0918 9.79023 78.7793 9.8 78.3984C9.79023 78.0176 10.1125 77.7051 10.4934 77.7051C10.8645 77.7051 11.1867 78.0176 11.1867 78.3984C11.1867 78.7793 10.8645 79.0918 10.4934 79.0918ZM10.4934 75.2344C10.1125 75.2344 9.79023 74.9219 9.8 74.541C9.79023 74.1602 10.1125 73.8477 10.4934 73.8477C10.8645 73.8477 11.1867 74.1602 11.1867 74.541C11.1867 74.9219 10.8645 75.2344 10.4934 75.2344ZM14.7977 80.0977C13.157 80.0977 12.2 78.7793 12.2 76.4648C12.2 74.1699 13.1766 72.832 14.7977 72.832C16.4187 72.832 17.3953 74.1699 17.3953 76.4648C17.3953 78.7793 16.4285 80.0977 14.7977 80.0977ZM14.7977 79.1699C15.7547 79.1699 16.3211 78.2324 16.3211 76.4648C16.3211 74.707 15.7449 73.7402 14.7977 73.7402C13.8504 73.7402 13.2742 74.707 13.2742 76.4648C13.2742 78.2324 13.8406 79.1699 14.7977 79.1699ZM20.8695 80.0977C19.2289 80.0977 18.2719 78.7793 18.2719 76.4648C18.2719 74.1699 19.2484 72.832 20.8695 72.832C22.4906 72.832 23.4672 74.1699 23.4672 76.4648C23.4672 78.7793 22.5004 80.0977 20.8695 80.0977ZM20.8695 79.1699C21.8266 79.1699 22.393 78.2324 22.393 76.4648C22.393 74.707 21.8168 73.7402 20.8695 73.7402C19.9223 73.7402 19.3461 74.707 19.3461 76.4648C19.3461 78.2324 19.9125 79.1699 20.8695 79.1699Z" fill="#B0B8C1"/>
<path d="M3.69316 128.93V136H2.60918V130.004H2.57012L0.880664 131.107V130.082L2.63848 128.93H3.69316ZM7.85098 136.098C6.21035 136.098 5.25332 134.779 5.25332 132.465C5.25332 130.17 6.22988 128.832 7.85098 128.832C9.47207 128.832 10.4486 130.17 10.4486 132.465C10.4486 134.779 9.48184 136.098 7.85098 136.098ZM7.85098 135.17C8.80801 135.17 9.37441 134.232 9.37441 132.465C9.37441 130.707 8.79824 129.74 7.85098 129.74C6.90371 129.74 6.32754 130.707 6.32754 132.465C6.32754 134.232 6.89395 135.17 7.85098 135.17ZM12.1553 135.092C11.7744 135.092 11.4521 134.779 11.4619 134.398C11.4521 134.018 11.7744 133.705 12.1553 133.705C12.5264 133.705 12.8486 134.018 12.8486 134.398C12.8486 134.779 12.5264 135.092 12.1553 135.092ZM12.1553 131.234C11.7744 131.234 11.4521 130.922 11.4619 130.541C11.4521 130.16 11.7744 129.848 12.1553 129.848C12.5264 129.848 12.8486 130.16 12.8486 130.541C12.8486 130.922 12.5264 131.234 12.1553 131.234ZM16.4596 136.098C14.8189 136.098 13.8619 134.779 13.8619 132.465C13.8619 130.17 14.8385 128.832 16.4596 128.832C18.0807 128.832 19.0572 130.17 19.0572 132.465C19.0572 134.779 18.0904 136.098 16.4596 136.098ZM16.4596 135.17C17.4166 135.17 17.983 134.232 17.983 132.465C17.983 130.707 17.4068 129.74 16.4596 129.74C15.5123 129.74 14.9361 130.707 14.9361 132.465C14.9361 134.232 15.5025 135.17 16.4596 135.17ZM22.5314 136.098C20.8908 136.098 19.9338 134.779 19.9338 132.465C19.9338 130.17 20.9104 128.832 22.5314 128.832C24.1525 128.832 25.1291 130.17 25.1291 132.465C25.1291 134.779 24.1623 136.098 22.5314 136.098ZM22.5314 135.17C23.4885 135.17 24.0549 134.232 24.0549 132.465C24.0549 130.707 23.4787 129.74 22.5314 129.74C21.5842 129.74 21.008 130.707 21.008 132.465C21.008 134.232 21.5744 135.17 22.5314 135.17Z" fill="#B0B8C1"/>
</g>
<defs>
<clipPath id="clip0_3500_12527">
<rect width="125" height="140" fill="white"/>
</clipPath>
<clipPath id="clip1_3500_12527">
<rect width="137" height="156" fill="white" transform="translate(188) rotate(90)"/>
</clipPath>
</defs>
</svg>
