<svg width="40" height="40" viewBox="0 0 40 40" fill="none" xmlns="http://www.w3.org/2000/svg">
<rect width="40" height="40" rx="8" fill="white"/>
<path d="M27.9167 25.8333H29.1833C29.4042 25.8333 29.5833 26.0124 29.5833 26.2333V27.1C29.5833 27.3209 29.4042 27.5 29.1833 27.5H11.65C11.4291 27.5 11.25 27.3209 11.25 27.1V26.2333C11.25 26.0124 11.4291 25.8333 11.65 25.8333H12.9167V13.3333C12.9167 12.8731 13.2898 12.5 13.75 12.5H22.0833C22.5436 12.5 22.9167 12.8731 22.9167 13.3333V25.8333H24.5833V17.7C24.5833 17.5895 24.6729 17.5 24.7833 17.5H27.0833C27.5436 17.5 27.9167 17.8731 27.9167 18.3333V25.8333ZM16.65 19.1667C16.4291 19.1667 16.25 19.3458 16.25 19.5667V20.4333C16.25 20.6542 16.4291 20.8333 16.65 20.8333H19.1833C19.4042 20.8333 19.5833 20.6542 19.5833 20.4333V19.5667C19.5833 19.3458 19.4042 19.1667 19.1833 19.1667H16.65ZM16.65 15.8333C16.4291 15.8333 16.25 16.0124 16.25 16.2333V17.1C16.25 17.3209 16.4291 17.5 16.65 17.5H19.1833C19.4042 17.5 19.5833 17.3209 19.5833 17.1V16.2333C19.5833 16.0124 19.4042 15.8333 19.1833 15.8333H16.65Z" fill="#D1D6DB"/>
</svg>
