<svg width="64" height="64" viewBox="0 0 64 64" fill="none" xmlns="http://www.w3.org/2000/svg">
<g id="git-repository-private-fill 1">
<path id="Vector" d="M48 21.3337H53.3333C54.8061 21.3337 56 22.5276 56 24.0003V56.0003C56 57.4731 54.8061 58.667 53.3333 58.667H10.6667C9.19392 58.667 8 57.4731 8 56.0003V24.0003C8 22.5276 9.19392 21.3337 10.6667 21.3337H16V18.667C16 9.83043 23.1634 2.66699 32 2.66699C40.8365 2.66699 48 9.83043 48 18.667V21.3337ZM42.6667 21.3337V18.667C42.6667 12.776 37.8909 8.00033 32 8.00033C26.109 8.00033 21.3333 12.776 21.3333 18.667V21.3337H42.6667ZM19.6667 29.3337C19.1144 29.3337 18.6667 29.7814 18.6667 30.3337V33.667C18.6667 34.2193 19.1144 34.667 19.6667 34.667H23C23.5523 34.667 24 34.2193 24 33.667V30.3337C24 29.7814 23.5523 29.3337 23 29.3337H19.6667ZM19.6667 37.3337C19.1144 37.3337 18.6667 37.7814 18.6667 38.3337V41.667C18.6667 42.2193 19.1144 42.667 19.6667 42.667H23C23.5523 42.667 24 42.2193 24 41.667V38.3337C24 37.7814 23.5523 37.3337 23 37.3337H19.6667ZM19.6667 45.3337C19.1144 45.3337 18.6667 45.7814 18.6667 46.3337V49.667C18.6667 50.2193 19.1144 50.667 19.6667 50.667H23C23.5523 50.667 24 50.2193 24 49.667V46.3337C24 45.7814 23.5523 45.3337 23 45.3337H19.6667Z" fill="url(#paint0_linear_1016_14992)"/>
</g>
<defs>
<linearGradient id="paint0_linear_1016_14992" x1="-9.48148" y1="-7.11079" x2="75.2593" y2="77.63" gradientUnits="userSpaceOnUse">
<stop stop-color="#0F6CFF"/>
<stop offset="1" stop-color="#0F6CFF" stop-opacity="0.25"/>
</linearGradient>
</defs>
</svg>
