<svg width="64" height="64" viewBox="0 0 64 64" fill="none" xmlns="http://www.w3.org/2000/svg">
<g id="mail-open-fill 1">
<path id="Vector" d="M5.98153 18.2778L30.6393 3.48914C31.4839 2.98261 32.5391 2.9828 33.3833 3.48965L58.0201 18.2778C58.4217 18.5187 58.6673 18.9527 58.6673 19.421V53.3328C58.6673 54.8056 57.4735 55.9995 56.0007 55.9995H8.00065C6.5279 55.9995 5.33398 54.8056 5.33398 53.3328V19.4213C5.33398 18.9528 5.5798 18.5188 5.98153 18.2778ZM50.6673 23.9995C49.7035 22.8859 48.0195 22.7644 46.9058 23.7281L32.8104 35.9263C32.4374 36.249 31.8848 36.2517 31.5088 35.9324L17.0927 23.6926C15.97 22.7394 14.2872 22.8768 13.334 23.9995C12.3808 25.1222 12.5182 26.8051 13.6409 27.7583L30.8887 42.4022C31.6407 43.0406 32.746 43.0354 33.4919 42.3899L50.3959 27.761C51.5096 26.7973 51.6311 25.1132 50.6673 23.9995Z" fill="url(#paint0_linear_1016_14966)"/>
</g>
<defs>
<linearGradient id="paint0_linear_1016_14966" x1="-5" y1="5" x2="70.5" y2="80.5" gradientUnits="userSpaceOnUse">
<stop stop-color="#0F6CFF"/>
<stop offset="1" stop-color="#0F6CFF" stop-opacity="0.25"/>
</linearGradient>
</defs>
</svg>
